SplineFontDB: 3.0
FontName: Campania
FullName: Campania
FamilyName: Campania
Weight: Book
Copyright: Copyright (c) Marc Sabatella, SIL International, 1994-2019
Version: 2.009
ItalicAngle: 0
UnderlinePosition: -350
UnderlineWidth: 120
Ascent: 1638
Descent: 410
InvalidEm: 0
sfntRevision: 0x00020000
LayerCount: 2
Layer: 0 1 "Back" 1
Layer: 1 1 "Fore" 0
XUID: [1021 267 -1670037038 27023]
StyleMap: 0x0040
FSType: 0
OS2Version: 3
OS2_WeightWidthSlopeOnly: 0
OS2_UseTypoMetrics: 1
CreationTime: 1414130042
ModificationTime: 1572295082
PfmFamily: 17
TTFWeight: 400
TTFWidth: 5
LineGap: 0
VLineGap: 0
Panose: 2 0 5 0 7 0 0 2 0 4
OS2TypoAscent: 2500
OS2TypoAOffset: 0
OS2TypoDescent: -410
OS2TypoDOffset: 0
OS2TypoLinegap: 0
OS2WinAscent: 2500
OS2WinAOffset: 0
OS2WinDescent: 410
OS2WinDOffset: 0
HheadAscent: 2500
HheadAOffset: 0
HheadDescent: -410
HheadDOffset: 0
OS2SubXSize: 1331
OS2SubYSize: 1229
OS2SubXOff: 5
OS2SubYOff: 460
OS2SupXSize: 1331
OS2SupYSize: 1229
OS2SupXOff: 5
OS2SupYOff: 785
OS2StrikeYSize: 100
OS2StrikeYPos: 500
OS2CapHeight: 1356
OS2XHeight: 909
OS2FamilyClass: 512
OS2Vendor: '    '
OS2CodePages: 20000197.00000000
OS2UnicodeRanges: a00002ff.5200e1ff.02000029.00000000
Lookup: 6 0 0 "liga_symbols" { "liga_symbols contextual 0"  "liga_symbols contextual 1"  "liga_symbols contextual 2"  "liga_symbols contextual 3"  "liga_symbols contextual 4"  "liga_symbols contextual 5"  "liga_symbols contextual 6"  "liga_symbols contextual 7"  } ['liga' ('latn' <'dflt' > 'DFLT' <'dflt' > ) ]
Lookup: 4 0 0 "Ligature Substitution lookup 1" { "Ligature Substitution lookup 1 subtable"  } []
Lookup: 4 0 0 "Ligature Substitution lookup 2" { "Ligature Substitution lookup 2 subtable"  } []
Lookup: 4 0 0 "Ligature Substitution lookup 3" { "Ligature Substitution lookup 3 subtable"  } []
Lookup: 4 0 0 "Ligature Substitution lookup 4" { "Ligature Substitution lookup 4 subtable"  } []
Lookup: 4 0 0 "Ligature Substitution lookup 5" { "Ligature Substitution lookup 5 subtable"  } []

StartChar: exclam
Encoding: 33 33 0
Width: 682
Flags: W
LayerCount: 2
Fore
SplineSet
451 85 m 0,0,1
 451 61 451 61 442 40.5 c 128,-1,2
 433 20 433 20 418 4 c 128,-1,3
 403 -12 403 -12 383 -21 c 128,-1,4
 363 -30 363 -30 341 -30 c 0,5,6
 324 -30 324 -30 304 -23.5 c 128,-1,7
 284 -17 284 -17 267.5 -3 c 128,-1,8
 251 11 251 11 240 33 c 128,-1,9
 229 55 229 55 229 85 c 0,10,11
 229 112 229 112 239.5 132 c 128,-1,12
 250 152 250 152 266 165.5 c 128,-1,13
 282 179 282 179 302 186 c 128,-1,14
 322 193 322 193 341 193 c 256,15,16
 360 193 360 193 380 185.5 c 128,-1,17
 400 178 400 178 415.5 164 c 128,-1,18
 431 150 431 150 441 130 c 128,-1,19
 451 110 451 110 451 85 c 0,0,1
455 1238 m 0,20,21
 455 1226 455 1226 454.5 1208.5 c 128,-1,22
 454 1191 454 1191 451 1171 c 2,23,-1
 361 359 l 1,24,-1
 321 359 l 1,25,-1
 235 1171 l 2,26,27
 230 1206 230 1206 228.5 1221 c 128,-1,28
 227 1236 227 1236 227 1247 c 0,29,30
 227 1315 227 1315 260.5 1351.5 c 128,-1,31
 294 1388 294 1388 343 1388 c 0,32,33
 362 1388 362 1388 381.5 1380 c 128,-1,34
 401 1372 401 1372 417.5 1354 c 128,-1,35
 434 1336 434 1336 444.5 1307.5 c 128,-1,36
 455 1279 455 1279 455 1238 c 0,20,21
EndSplineSet
Validated: 1
EndChar

StartChar: quotedbl
Encoding: 34 34 1
Width: 835
Flags: W
LayerCount: 2
Fore
SplineSet
335 1279 m 0,0,1
 335 1260 335 1260 328 1214.5 c 128,-1,2
 321 1169 321 1169 307 1098 c 2,3,-1
 252 805 l 1,4,-1
 211 805 l 1,5,-1
 156 1100 l 2,6,7
 144 1161 144 1161 139 1202.5 c 128,-1,8
 134 1244 134 1244 134 1267 c 0,9,10
 134 1335 134 1335 161.5 1361.5 c 128,-1,11
 189 1388 189 1388 233 1388 c 0,12,13
 278 1388 278 1388 306.5 1358 c 128,-1,14
 335 1328 335 1328 335 1279 c 0,0,1
702 1281 m 0,15,16
 702 1261 702 1261 698 1215.5 c 128,-1,17
 694 1170 694 1170 680 1096 c 2,18,-1
 625 805 l 1,19,-1
 576 805 l 1,20,-1
 523 1096 l 2,21,22
 510 1160 510 1160 504.5 1202 c 128,-1,23
 499 1244 499 1244 499 1267 c 0,24,25
 499 1331 499 1331 525.5 1359.5 c 128,-1,26
 552 1388 552 1388 601 1388 c 0,27,28
 649 1388 649 1388 675.5 1356.5 c 128,-1,29
 702 1325 702 1325 702 1281 c 0,15,16
EndSplineSet
Validated: 1
EndChar

StartChar: numbersign
Encoding: 35 35 2
Width: 1025
Flags: W
LayerCount: 2
Fore
SplineSet
378 854 m 1,0,-1
 307 510 l 1,1,-1
 649 510 l 1,2,-1
 720 854 l 1,3,-1
 378 854 l 1,0,-1
715 427 m 1,4,-1
 623 -30 l 1,5,-1
 542 -30 l 1,6,-1
 632 427 l 1,7,-1
 294 427 l 1,8,-1
 199 -30 l 1,9,-1
 115 -30 l 1,10,-1
 207 427 l 1,11,-1
 36 427 l 1,12,-1
 36 510 l 1,13,-1
 222 510 l 1,14,-1
 294 854 l 1,15,-1
 36 854 l 1,16,-1
 36 933 l 1,17,-1
 314 933 l 1,18,-1
 404 1388 l 1,19,-1
 485 1388 l 1,20,-1
 397 933 l 1,21,-1
 733 933 l 1,22,-1
 830 1388 l 1,23,-1
 912 1388 l 1,24,-1
 818 933 l 1,25,-1
 989 933 l 1,26,-1
 989 854 l 1,27,-1
 805 854 l 1,28,-1
 733 510 l 1,29,-1
 989 510 l 1,30,-1
 989 427 l 1,31,-1
 715 427 l 1,4,-1
EndSplineSet
Validated: 1
Substitution2: "Single Substitution lookup 47 subtable" sharpsuperior
Substitution2: "Single Substitution lookup 46 subtable" sharpsuperior
Substitution2: "Single Substitution lookup 45 subtable" sharpsuperior
Substitution2: "Single Substitution lookup 43 subtable" sharpsuperior
Substitution2: "Single Substitution lookup 42 subtable" sharpsuperior
Substitution2: "Single Substitution lookup 19 subtable" sharpsuperior
Substitution2: "Single Substitution lookup 18 subtable" sharp
Substitution2: "Single Substitution lookup 17 subtable" sharp
EndChar

StartChar: dollar
Encoding: 36 36 3
Width: 1025
Flags: W
LayerCount: 2
Fore
SplineSet
922 337 m 0,0,1
 922 256 922 256 889 190 c 128,-1,2
 856 124 856 124 801 77 c 128,-1,3
 746 30 746 30 674.5 2.5 c 128,-1,4
 603 -25 603 -25 526 -30 c 1,5,-1
 526 -156 l 1,6,-1
 463 -156 l 1,7,-1
 463 -30 l 1,8,9
 419 -28 419 -28 371.5 -20.5 c 128,-1,10
 324 -13 324 -13 277.5 -2.5 c 128,-1,11
 231 8 231 8 187.5 22 c 128,-1,12
 144 36 144 36 109 51 c 1,13,-1
 109 335 l 1,14,-1
 152 335 l 1,15,16
 162 193 162 193 239.5 122 c 128,-1,17
 317 51 317 51 463 38 c 1,18,-1
 463 621 l 1,19,20
 379 676 379 676 313 722.5 c 128,-1,21
 247 769 247 769 202 818.5 c 128,-1,22
 157 868 157 868 133 924.5 c 128,-1,23
 109 981 109 981 109 1055 c 0,24,25
 109 1140 109 1140 145 1200.5 c 128,-1,26
 181 1261 181 1261 235 1299.5 c 128,-1,27
 289 1338 289 1338 350.5 1357.5 c 128,-1,28
 412 1377 412 1377 463 1380 c 1,29,-1
 463 1472 l 1,30,-1
 526 1472 l 1,31,-1
 526 1380 l 1,32,33
 566 1378 566 1378 601 1372.5 c 128,-1,34
 636 1367 636 1367 664 1362 c 1,35,-1
 727 1339 l 2,36,37
 776 1322 776 1322 857 1291 c 1,38,-1
 857 991 l 1,39,-1
 818 991 l 1,40,41
 812 1061 812 1061 794.5 1117.5 c 128,-1,42
 777 1174 777 1174 742.5 1215 c 128,-1,43
 708 1256 708 1256 655 1280.5 c 128,-1,44
 602 1305 602 1305 526 1313 c 1,45,-1
 526 805 l 1,46,47
 637 725 637 725 712.5 668 c 128,-1,48
 788 611 788 611 834.5 560 c 128,-1,49
 881 509 881 509 901.5 457 c 128,-1,50
 922 405 922 405 922 337 c 0,0,1
763 288 m 0,51,52
 763 332 763 332 747.5 368 c 128,-1,53
 732 404 732 404 701.5 437 c 128,-1,54
 671 470 671 470 627 503.5 c 128,-1,55
 583 537 583 537 526 577 c 1,56,-1
 526 38 l 1,57,58
 554 40 554 40 594.5 54 c 128,-1,59
 635 68 635 68 672.5 97 c 128,-1,60
 710 126 710 126 736.5 173 c 128,-1,61
 763 220 763 220 763 288 c 0,51,52
463 1313 m 1,62,63
 439 1309 439 1309 404.5 1299.5 c 128,-1,64
 370 1290 370 1290 339 1269 c 128,-1,65
 308 1248 308 1248 286 1211.5 c 128,-1,66
 264 1175 264 1175 264 1117 c 0,67,68
 264 1065 264 1065 285 1022.5 c 128,-1,69
 306 980 306 980 336.5 947 c 128,-1,70
 367 914 367 914 401.5 889.5 c 128,-1,71
 436 865 436 865 463 848 c 1,72,-1
 463 1313 l 1,62,63
EndSplineSet
Validated: 1
EndChar

StartChar: percent
Encoding: 37 37 4
Width: 1772
Flags: W
LayerCount: 2
Fore
SplineSet
767 1139 m 0,0,1
 767 1165 767 1165 760.5 1187.5 c 128,-1,2
 754 1210 754 1210 749 1234 c 1,3,4
 720 1242 720 1242 699.5 1254 c 128,-1,5
 679 1266 679 1266 663 1277 c 128,-1,6
 647 1288 647 1288 633.5 1295.5 c 128,-1,7
 620 1303 620 1303 607 1303 c 0,8,9
 588 1303 588 1303 559 1286.5 c 128,-1,10
 530 1270 530 1270 497 1239.5 c 128,-1,11
 464 1209 464 1209 431 1165.5 c 128,-1,12
 398 1122 398 1122 371.5 1067.5 c 128,-1,13
 345 1013 345 1013 328.5 949.5 c 128,-1,14
 312 886 312 886 312 816 c 0,15,16
 312 783 312 783 318 755 c 128,-1,17
 324 727 324 727 339 707 c 128,-1,18
 354 687 354 687 378.5 675.5 c 128,-1,19
 403 664 403 664 440 664 c 0,20,21
 486 664 486 664 528 685 c 128,-1,22
 570 706 570 706 606 742.5 c 128,-1,23
 642 779 642 779 672 826.5 c 128,-1,24
 702 874 702 874 723 926.5 c 128,-1,25
 744 979 744 979 755.5 1034 c 128,-1,26
 767 1089 767 1089 767 1139 c 0,0,1
1565 497 m 0,27,28
 1565 527 1565 527 1556 557.5 c 128,-1,29
 1547 588 1547 588 1529 612.5 c 128,-1,30
 1511 637 1511 637 1484.5 652.5 c 128,-1,31
 1458 668 1458 668 1423 668 c 0,32,33
 1379 668 1379 668 1339 644.5 c 128,-1,34
 1299 621 1299 621 1264.5 581.5 c 128,-1,35
 1230 542 1230 542 1201.5 490.5 c 128,-1,36
 1173 439 1173 439 1152.5 384.5 c 128,-1,37
 1132 330 1132 330 1121 275.5 c 128,-1,38
 1110 221 1110 221 1110 175 c 0,39,40
 1110 146 1110 146 1117 120.5 c 128,-1,41
 1124 95 1124 95 1139 75.5 c 128,-1,42
 1154 56 1154 56 1178.5 45 c 128,-1,43
 1203 34 1203 34 1238 34 c 0,44,45
 1286 34 1286 34 1329 57 c 128,-1,46
 1372 80 1372 80 1408.5 117.5 c 128,-1,47
 1445 155 1445 155 1474 203.5 c 128,-1,48
 1503 252 1503 252 1523 303.5 c 128,-1,49
 1543 355 1543 355 1554 405.5 c 128,-1,50
 1565 456 1565 456 1565 497 c 0,27,28
542 -30 m 1,51,-1
 444 -30 l 1,52,-1
 1161 1258 l 1,53,54
 1114 1238 1114 1238 1064 1225.5 c 128,-1,55
 1014 1213 1014 1213 966.5 1208 c 128,-1,56
 919 1203 919 1203 877 1205.5 c 128,-1,57
 835 1208 835 1208 805 1220 c 1,58,59
 805 1197 805 1197 812.5 1166.5 c 128,-1,60
 820 1136 820 1136 820 1110 c 0,61,62
 820 1040 820 1040 801.5 975 c 128,-1,63
 783 910 783 910 751.5 852.5 c 128,-1,64
 720 795 720 795 678 747.5 c 128,-1,65
 636 700 636 700 589.5 665.5 c 128,-1,66
 543 631 543 631 494 612 c 128,-1,67
 445 593 445 593 400 593 c 0,68,69
 279 593 279 593 217.5 666.5 c 128,-1,70
 156 740 156 740 156 875 c 0,71,72
 156 930 156 930 172.5 987 c 128,-1,73
 189 1044 189 1044 219 1098.5 c 128,-1,74
 249 1153 249 1153 290.5 1201 c 128,-1,75
 332 1249 332 1249 381.5 1284.5 c 128,-1,76
 431 1320 431 1320 486.5 1341 c 128,-1,77
 542 1362 542 1362 600 1362 c 0,78,79
 642 1362 642 1362 669.5 1353.5 c 128,-1,80
 697 1345 697 1345 718 1332.5 c 128,-1,81
 739 1320 739 1320 757.5 1305 c 128,-1,82
 776 1290 776 1290 798.5 1277.5 c 128,-1,83
 821 1265 821 1265 852 1256.5 c 128,-1,84
 883 1248 883 1248 929 1249 c 256,85,86
 975 1250 975 1250 1019.5 1260 c 128,-1,87
 1064 1270 1064 1270 1103.5 1288 c 128,-1,88
 1143 1306 1143 1306 1176.5 1332.5 c 128,-1,89
 1210 1359 1210 1359 1236 1392 c 1,90,-1
 1334 1392 l 1,91,-1
 542 -30 l 1,51,-1
1618 508 m 0,92,93
 1618 387 1618 387 1580 288 c 128,-1,94
 1542 189 1542 189 1483 118.5 c 128,-1,95
 1424 48 1424 48 1352.5 9 c 128,-1,96
 1281 -30 1281 -30 1215 -30 c 0,97,98
 1136 -30 1136 -30 1085.5 -7.5 c 128,-1,99
 1035 15 1035 15 1005.5 53.5 c 128,-1,100
 976 92 976 92 965 143 c 128,-1,101
 954 194 954 194 954 252 c 0,102,103
 954 308 954 308 971 365.5 c 128,-1,104
 988 423 988 423 1018 476.5 c 128,-1,105
 1048 530 1048 530 1089.5 577 c 128,-1,106
 1131 624 1131 624 1180.5 659 c 128,-1,107
 1230 694 1230 694 1285.5 714.5 c 128,-1,108
 1341 735 1341 735 1399 735 c 0,109,110
 1451 735 1451 735 1492 715 c 128,-1,111
 1533 695 1533 695 1561 662.5 c 128,-1,112
 1589 630 1589 630 1603.5 589.5 c 128,-1,113
 1618 549 1618 549 1618 508 c 0,92,93
EndSplineSet
Validated: 33
EndChar

StartChar: ampersand
Encoding: 38 38 5
Width: 1595
Flags: W
LayerCount: 2
Fore
SplineSet
818 220 m 1,0,1
 751 313 751 313 705.5 377 c 128,-1,2
 660 441 660 441 634 485 c 0,3,4
 609 528 609 528 582 578.5 c 128,-1,5
 555 629 555 629 523 690 c 1,6,7
 493 674 493 674 452 647 c 128,-1,8
 411 620 411 620 373.5 580 c 128,-1,9
 336 540 336 540 310 485.5 c 128,-1,10
 284 431 284 431 284 359 c 0,11,12
 284 309 284 309 300 261 c 128,-1,13
 316 213 316 213 348 175 c 128,-1,14
 380 137 380 137 427 113.5 c 128,-1,15
 474 90 474 90 536 90 c 0,16,17
 582 90 582 90 622.5 102.5 c 128,-1,18
 663 115 663 115 698 134.5 c 128,-1,19
 733 154 733 154 763 177 c 128,-1,20
 793 200 793 200 818 220 c 1,0,1
910 1147 m 0,21,22
 910 1185 910 1185 897.5 1216.5 c 128,-1,23
 885 1248 885 1248 863.5 1270.5 c 128,-1,24
 842 1293 842 1293 814 1305 c 128,-1,25
 786 1317 786 1317 756 1317 c 0,26,27
 702 1317 702 1317 667.5 1294 c 128,-1,28
 633 1271 633 1271 613.5 1241 c 128,-1,29
 594 1211 594 1211 586.5 1181 c 128,-1,30
 579 1151 579 1151 579 1136 c 0,31,32
 579 1101 579 1101 587 1062.5 c 128,-1,33
 595 1024 595 1024 608 986.5 c 128,-1,34
 621 949 621 949 635.5 914 c 128,-1,35
 650 879 650 879 664 850 c 1,36,37
 695 864 695 864 737.5 888 c 128,-1,38
 780 912 780 912 818 948 c 128,-1,39
 856 984 856 984 883 1033.5 c 128,-1,40
 910 1083 910 1083 910 1147 c 0,21,22
1531 244 m 1,41,42
 1523 206 1523 206 1503 158.5 c 128,-1,43
 1483 111 1483 111 1447 68.5 c 128,-1,44
 1411 26 1411 26 1355.5 -3 c 128,-1,45
 1300 -32 1300 -32 1222 -32 c 0,46,47
 1163 -32 1163 -32 1111 -12.5 c 128,-1,48
 1059 7 1059 7 1014.5 36.5 c 128,-1,49
 970 66 970 66 934 100 c 128,-1,50
 898 134 898 134 871 164 c 1,51,52
 840 137 840 137 798.5 103 c 128,-1,53
 757 69 757 69 703.5 39 c 128,-1,54
 650 9 650 9 583 -11.5 c 128,-1,55
 516 -32 516 -32 434 -32 c 0,56,57
 344 -32 344 -32 277 -5.5 c 128,-1,58
 210 21 210 21 165 63.5 c 128,-1,59
 120 106 120 106 97.5 160 c 128,-1,60
 75 214 75 214 75 269 c 0,61,62
 75 331 75 331 94.5 385.5 c 128,-1,63
 114 440 114 440 146.5 487 c 128,-1,64
 179 534 179 534 221.5 574 c 128,-1,65
 264 614 264 614 310 648 c 128,-1,66
 356 682 356 682 403 709 c 128,-1,67
 450 736 450 736 491 758 c 1,68,69
 479 784 479 784 464.5 817 c 128,-1,70
 450 850 450 850 437.5 888 c 128,-1,71
 425 926 425 926 416.5 968.5 c 128,-1,72
 408 1011 408 1011 408 1057 c 0,73,74
 408 1143 408 1143 439.5 1205.5 c 128,-1,75
 471 1268 471 1268 521 1308.5 c 128,-1,76
 571 1349 571 1349 633 1368.5 c 128,-1,77
 695 1388 695 1388 756 1388 c 0,78,79
 822 1388 822 1388 873 1367.5 c 128,-1,80
 924 1347 924 1347 958 1313 c 128,-1,81
 992 1279 992 1279 1009.5 1234.5 c 128,-1,82
 1027 1190 1027 1190 1027 1143 c 0,83,84
 1027 1095 1027 1095 1011 1054 c 128,-1,85
 995 1013 995 1013 968.5 978.5 c 128,-1,86
 942 944 942 944 908 915 c 128,-1,87
 874 886 874 886 837.5 862 c 128,-1,88
 801 838 801 838 765 818 c 128,-1,89
 729 798 729 798 698 782 c 1,90,91
 822 558 822 558 963 369 c 1,92,93
 1139 578 1139 578 1139 724 c 0,94,95
 1139 759 1139 759 1126.5 781 c 128,-1,96
 1114 803 1114 803 1098 815 c 128,-1,97
 1082 827 1082 827 1066.5 831 c 128,-1,98
 1051 835 1051 835 1044 835 c 1,99,-1
 1044 873 l 1,100,-1
 1467 873 l 1,101,-1
 1467 835 l 1,102,103
 1425 830 1425 830 1396 824 c 128,-1,104
 1367 818 1367 818 1340.5 796.5 c 128,-1,105
 1314 775 1314 775 1284 731.5 c 128,-1,106
 1254 688 1254 688 1210 607 c 0,107,108
 1167 526 1167 526 1116.5 452.5 c 128,-1,109
 1066 379 1066 379 1011 310 c 1,110,111
 1033 285 1033 285 1063 252.5 c 128,-1,112
 1093 220 1093 220 1130.5 191 c 128,-1,113
 1168 162 1168 162 1213 142 c 128,-1,114
 1258 122 1258 122 1311 122 c 0,115,116
 1359 122 1359 122 1392 138 c 128,-1,117
 1425 154 1425 154 1446 177 c 128,-1,118
 1467 200 1467 200 1478 225.5 c 128,-1,119
 1489 251 1489 251 1494 270 c 1,120,-1
 1531 244 l 1,41,42
EndSplineSet
Validated: 1
EndChar

StartChar: quotesingle
Encoding: 39 39 6
Width: 371
Flags: W
LayerCount: 2
Fore
SplineSet
286 1281 m 0,0,1
 286 1264 286 1264 279 1218 c 128,-1,2
 272 1172 272 1172 258 1098 c 2,3,-1
 205 805 l 1,4,-1
 160 805 l 1,5,-1
 107 1100 l 2,6,7
 94 1163 94 1163 89.5 1204 c 128,-1,8
 85 1245 85 1245 85 1267 c 0,9,10
 85 1330 85 1330 108 1359 c 128,-1,11
 131 1388 131 1388 179 1388 c 0,12,13
 207 1388 207 1388 227.5 1378 c 128,-1,14
 248 1368 248 1368 261 1352 c 128,-1,15
 274 1336 274 1336 280 1317.5 c 128,-1,16
 286 1299 286 1299 286 1281 c 0,0,1
EndSplineSet
Validated: 1
EndChar

StartChar: parenleft
Encoding: 40 40 7
Width: 682
VWidth: 2298
Flags: W
LayerCount: 2
Fore
SplineSet
634 -190 m 1,0,1
 509 -132 509 -132 407.5 -35.5 c 128,-1,2
 306 61 306 61 234.5 183.5 c 128,-1,3
 163 306 163 306 124 448.5 c 128,-1,4
 85 591 85 591 85 743 c 0,5,6
 85 896 85 896 125 1039 c 128,-1,7
 165 1182 165 1182 237 1303.5 c 128,-1,8
 309 1425 309 1425 410 1520 c 128,-1,9
 511 1615 511 1615 634 1673 c 1,10,-1
 634 1632 l 1,11,12
 551 1588 551 1588 484.5 1510 c 128,-1,13
 418 1432 418 1432 371.5 1323 c 128,-1,14
 325 1214 325 1214 300.5 1074.5 c 128,-1,15
 276 935 276 935 276 769 c 0,16,17
 276 687 276 687 281 600.5 c 128,-1,18
 286 514 286 514 299.5 428 c 128,-1,19
 313 342 313 342 337.5 258.5 c 128,-1,20
 362 175 362 175 402 100 c 128,-1,21
 442 25 442 25 499 -39.5 c 128,-1,22
 556 -104 556 -104 634 -152 c 1,23,-1
 634 -190 l 1,0,1
EndSplineSet
Validated: 1
EndChar

StartChar: parenright
Encoding: 41 41 8
Width: 682
VWidth: 2298
Flags: W
LayerCount: 2
Fore
SplineSet
600 739 m 0,0,1
 600 586 600 586 559 442 c 128,-1,2
 518 298 518 298 444 175.5 c 128,-1,3
 370 53 370 53 268 -41.5 c 128,-1,4
 166 -136 166 -136 45 -190 c 1,5,-1
 45 -152 l 1,6,7
 131 -106 131 -106 198.5 -28 c 128,-1,8
 266 50 266 50 312.5 159 c 128,-1,9
 359 268 359 268 383.5 407 c 128,-1,10
 408 546 408 546 408 713 c 0,11,12
 408 778 408 778 405.5 856 c 128,-1,13
 403 934 403 934 392 1017.5 c 128,-1,14
 381 1101 381 1101 358 1186.5 c 128,-1,15
 335 1272 335 1272 294.5 1352.5 c 128,-1,16
 254 1433 254 1433 193 1505 c 128,-1,17
 132 1577 132 1577 45 1634 c 1,18,-1
 45 1673 l 1,19,20
 177 1607 177 1607 280.5 1509.5 c 128,-1,21
 384 1412 384 1412 455 1291.5 c 128,-1,22
 526 1171 526 1171 563 1030.5 c 128,-1,23
 600 890 600 890 600 739 c 0,0,1
EndSplineSet
Validated: 1
EndChar

StartChar: asterisk
Encoding: 42 42 9
Width: 1025
Flags: W
LayerCount: 2
Fore
SplineSet
881 1175 m 0,0,1
 881 1146 881 1146 863 1125 c 128,-1,2
 845 1104 845 1104 816 1088 c 128,-1,3
 787 1072 787 1072 751 1060.5 c 128,-1,4
 715 1049 715 1049 679 1040 c 128,-1,5
 643 1031 643 1031 611 1023.5 c 128,-1,6
 579 1016 579 1016 558 1008 c 1,7,8
 580 998 580 998 612.5 989.5 c 128,-1,9
 645 981 645 981 680.5 971.5 c 128,-1,10
 716 962 716 962 751.5 950 c 128,-1,11
 787 938 787 938 815.5 922.5 c 128,-1,12
 844 907 844 907 861.5 886.5 c 128,-1,13
 879 866 879 866 879 839 c 0,14,15
 879 807 879 807 857.5 787 c 128,-1,16
 836 767 836 767 805 767 c 0,17,18
 772 767 772 767 735.5 791.5 c 128,-1,19
 699 816 699 816 663 849.5 c 128,-1,20
 627 883 627 883 594 917.5 c 128,-1,21
 561 952 561 952 534 972 c 1,22,23
 534 936 534 936 543.5 901.5 c 128,-1,24
 553 867 553 867 564.5 833.5 c 128,-1,25
 576 800 576 800 585.5 767 c 128,-1,26
 595 734 595 734 595 700 c 0,27,28
 595 680 595 680 590 661 c 128,-1,29
 585 642 585 642 574 627 c 128,-1,30
 563 612 563 612 546.5 602.5 c 128,-1,31
 530 593 530 593 508 593 c 0,32,33
 489 593 489 593 474.5 603 c 128,-1,34
 460 613 460 613 450.5 628 c 128,-1,35
 441 643 441 643 436.5 661 c 128,-1,36
 432 679 432 679 432 696 c 0,37,38
 432 728 432 728 439.5 763.5 c 128,-1,39
 447 799 447 799 457 835 c 128,-1,40
 467 871 467 871 478 906 c 128,-1,41
 489 941 489 941 497 974 c 1,42,43
 469 954 469 954 434 918.5 c 128,-1,44
 399 883 399 883 363 849 c 128,-1,45
 327 815 327 815 291.5 790 c 128,-1,46
 256 765 256 765 227 765 c 0,47,48
 212 765 212 765 197.5 770 c 128,-1,49
 183 775 183 775 171.5 784.5 c 128,-1,50
 160 794 160 794 153 807 c 128,-1,51
 146 820 146 820 146 835 c 0,52,53
 146 863 146 863 164.5 884.5 c 128,-1,54
 183 906 183 906 212 923 c 128,-1,55
 241 940 241 940 277.5 952.5 c 128,-1,56
 314 965 314 965 350.5 975 c 128,-1,57
 387 985 387 985 420 993 c 128,-1,58
 453 1001 453 1001 474 1008 c 1,59,60
 453 1019 453 1019 421 1027.5 c 128,-1,61
 389 1036 389 1036 352.5 1045 c 128,-1,62
 316 1054 316 1054 279 1064.5 c 128,-1,63
 242 1075 242 1075 212.5 1090 c 128,-1,64
 183 1105 183 1105 164.5 1126 c 128,-1,65
 146 1147 146 1147 146 1177 c 0,66,67
 146 1209 146 1209 167 1229 c 128,-1,68
 188 1249 188 1249 220 1249 c 0,69,70
 253 1249 253 1249 290 1224.5 c 128,-1,71
 327 1200 327 1200 364 1166.5 c 128,-1,72
 401 1133 401 1133 435 1098 c 128,-1,73
 469 1063 469 1063 495 1042 c 1,74,75
 491 1073 491 1073 481 1111.5 c 128,-1,76
 471 1150 471 1150 460 1188 c 128,-1,77
 449 1226 449 1226 440.5 1260 c 128,-1,78
 432 1294 432 1294 432 1317 c 0,79,80
 432 1336 432 1336 437 1355 c 128,-1,81
 442 1374 442 1374 453 1389 c 128,-1,82
 464 1404 464 1404 480 1413.5 c 128,-1,83
 496 1423 496 1423 519 1423 c 0,84,85
 538 1423 538 1423 552.5 1413.5 c 128,-1,86
 567 1404 567 1404 576.5 1389 c 128,-1,87
 586 1374 586 1374 590.5 1355.5 c 128,-1,88
 595 1337 595 1337 595 1320 c 0,89,90
 595 1288 595 1288 587.5 1253 c 128,-1,91
 580 1218 580 1218 570.5 1182.5 c 128,-1,92
 561 1147 561 1147 550.5 1111.5 c 128,-1,93
 540 1076 540 1076 534 1042 c 1,94,95
 564 1063 564 1063 598.5 1097.5 c 128,-1,96
 633 1132 633 1132 668 1165.5 c 128,-1,97
 703 1199 703 1199 737.5 1223 c 128,-1,98
 772 1247 772 1247 803 1247 c 0,99,100
 817 1247 817 1247 831 1241.5 c 128,-1,101
 845 1236 845 1236 856 1226.5 c 128,-1,102
 867 1217 867 1217 874 1203.5 c 128,-1,103
 881 1190 881 1190 881 1175 c 0,0,1
EndSplineSet
Validated: 1
EndChar

StartChar: plus
Encoding: 43 43 10
Width: 1971
Flags: W
LayerCount: 2
Fore
SplineSet
1046 530 m 1,0,-1
 1046 0 l 1,1,-1
 925 0 l 1,2,-1
 925 530 l 1,3,-1
 395 530 l 1,4,-1
 395 653 l 1,5,-1
 925 653 l 1,6,-1
 925 1183 l 1,7,-1
 1046 1183 l 1,8,-1
 1046 653 l 1,9,-1
 1576 653 l 1,10,-1
 1576 530 l 1,11,-1
 1046 530 l 1,0,-1
EndSplineSet
Validated: 1
Substitution2: "Single Substitution lookup 25 subtable" plussuperior
Substitution2: "Single Substitution lookup 24 subtable" augmented
EndChar

StartChar: comma
Encoding: 44 44 11
Width: 512
Flags: W
LayerCount: 2
Fore
SplineSet
408 -10 m 0,0,1
 408 -74 408 -74 384 -126.5 c 128,-1,2
 360 -179 360 -179 319 -220 c 128,-1,3
 278 -261 278 -261 224 -291.5 c 128,-1,4
 170 -322 170 -322 111 -343 c 1,5,-1
 111 -297 l 1,6,7
 148 -287 148 -287 186.5 -263.5 c 128,-1,8
 225 -240 225 -240 255.5 -207 c 128,-1,9
 286 -174 286 -174 305.5 -131.5 c 128,-1,10
 325 -89 325 -89 325 -39 c 0,11,12
 325 -28 325 -28 321 -14 c 128,-1,13
 317 0 317 0 303 0 c 0,14,15
 291 0 291 0 280.5 -4.5 c 128,-1,16
 270 -9 270 -9 260 -15 c 128,-1,17
 250 -21 250 -21 239.5 -25.5 c 128,-1,18
 229 -30 229 -30 217 -30 c 0,19,20
 196 -30 196 -30 177 -23.5 c 128,-1,21
 158 -17 158 -17 143.5 -3 c 128,-1,22
 129 11 129 11 120 32 c 128,-1,23
 111 53 111 53 111 83 c 0,24,25
 111 110 111 110 121.5 131.5 c 128,-1,26
 132 153 132 153 150 168 c 128,-1,27
 168 183 168 183 191.5 191 c 128,-1,28
 215 199 215 199 241 199 c 0,29,30
 270 199 270 199 299.5 185.5 c 128,-1,31
 329 172 329 172 353 146 c 128,-1,32
 377 120 377 120 392.5 81 c 128,-1,33
 408 42 408 42 408 -10 c 0,0,1
EndSplineSet
Validated: 1
EndChar

StartChar: hyphen
Encoding: 45 45 12
Width: 682
Flags: W
LayerCount: 2
Fore
SplineSet
83 382 m 1,0,-1
 83 534 l 1,1,-1
 600 534 l 1,2,-1
 600 382 l 1,3,-1
 83 382 l 1,0,-1
EndSplineSet
Validated: 1
Substitution2: "Single Substitution lookup 62 subtable" hyphensuperior
MultipleSubs2: "Multiple Substitution lookup 60 subtable" hyphensuperior hyphensubscript
MultipleSubs2: "Multiple Substitution lookup 59 subtable" hyphensupersuper hyphensuperior hyphensubscript
Substitution2: "Single Substitution lookup 58 subtable" hyphensuperior
MultipleSubs2: "Multiple Substitution lookup 54 subtable" hyphensuperior hyphensubscript
MultipleSubs2: "Multiple Substitution lookup 53 subtable" hyphensupersuper hyphensuperior hyphensubscript
MultipleSubs2: "Multiple Substitution lookup 52 subtable" hyphensupersuper hyphensuperior hyphensubscript
Substitution2: "Single Substitution lookup 51 subtable" hyphensuperior
EndChar

StartChar: period
Encoding: 46 46 13
Width: 512
Flags: W
LayerCount: 2
Fore
SplineSet
367 85 m 0,0,1
 367 62 367 62 359 41 c 128,-1,2
 351 20 351 20 336 4.5 c 128,-1,3
 321 -11 321 -11 300.5 -20.5 c 128,-1,4
 280 -30 280 -30 256 -30 c 0,5,6
 230 -30 230 -30 210 -20.5 c 128,-1,7
 190 -11 190 -11 175.5 4.5 c 128,-1,8
 161 20 161 20 153.5 41 c 128,-1,9
 146 62 146 62 146 85 c 0,10,11
 146 133 146 133 177 164 c 128,-1,12
 208 195 208 195 256 195 c 0,13,14
 278 195 278 195 298.5 187 c 128,-1,15
 319 179 319 179 334 164.5 c 128,-1,16
 349 150 349 150 358 129.5 c 128,-1,17
 367 109 367 109 367 85 c 0,0,1
EndSplineSet
Validated: 1
EndChar

StartChar: slash
Encoding: 47 47 14
Width: 570
Flags: W
LayerCount: 2
Fore
SplineSet
95 -30 m 1,0,-1
 12 -30 l 1,1,-1
 505 1423 l 1,2,-1
 584 1423 l 1,3,-1
 95 -30 l 1,0,-1
EndSplineSet
Validated: 1
EndChar

StartChar: zero
Encoding: 48 48 15
Width: 1025
GlyphClass: 2
Flags: W
AnchorPoint: "Anchor-4" 1025 941 basechar 0
AnchorPoint: "Anchor-3" 513 -100 basechar 0
AnchorPoint: "Anchor-2" 513 -100 basechar 0
AnchorPoint: "Anchor-1" 513 -100 basechar 0
AnchorPoint: "Anchor-0" 513 1435 basechar 0
LayerCount: 2
Fore
SplineSet
952 690 m 0,0,1
 952 599 952 599 939 510.5 c 128,-1,2
 926 422 926 422 900.5 342.5 c 128,-1,3
 875 263 875 263 837.5 196 c 128,-1,4
 800 129 800 129 750.5 80 c 128,-1,5
 701 31 701 31 640 3.5 c 128,-1,6
 579 -24 579 -24 506 -24 c 0,7,8
 440 -24 440 -24 382 3 c 128,-1,9
 324 30 324 30 276 77.5 c 128,-1,10
 228 125 228 125 190 191 c 128,-1,11
 152 257 152 257 126 334 c 128,-1,12
 100 411 100 411 86.5 496.5 c 128,-1,13
 73 582 73 582 73 670 c 0,14,15
 73 832 73 832 109.5 964 c 128,-1,16
 146 1096 146 1096 207.5 1190 c 128,-1,17
 269 1284 269 1284 349.5 1335 c 128,-1,18
 430 1386 430 1386 517 1386 c 0,19,20
 603 1386 603 1386 681.5 1337.5 c 128,-1,21
 760 1289 760 1289 820 1199 c 128,-1,22
 880 1109 880 1109 916 980 c 128,-1,23
 952 851 952 851 952 690 c 0,0,1
756 735 m 0,24,25
 756 870 756 870 740.5 978.5 c 128,-1,26
 725 1087 725 1087 694.5 1163 c 128,-1,27
 664 1239 664 1239 619 1279.5 c 128,-1,28
 574 1320 574 1320 515 1320 c 0,29,30
 487 1320 487 1320 457.5 1308 c 128,-1,31
 428 1296 428 1296 401 1266.5 c 128,-1,32
 374 1237 374 1237 350 1187.5 c 128,-1,33
 326 1138 326 1138 308.5 1063 c 128,-1,34
 291 988 291 988 280.5 885.5 c 128,-1,35
 270 783 270 783 270 647 c 0,36,37
 270 496 270 496 287 382 c 128,-1,38
 304 268 304 268 335.5 191.5 c 128,-1,39
 367 115 367 115 411.5 77 c 128,-1,40
 456 39 456 39 510 39 c 256,41,42
 564 39 564 39 609 74 c 128,-1,43
 654 109 654 109 687 190 c 128,-1,44
 720 271 720 271 738 404.5 c 128,-1,45
 756 538 756 538 756 735 c 0,24,25
EndSplineSet
Validated: 1
Substitution2: "Single Substitution lookup 57 subtable" zerosuperior
Substitution2: "Single Substitution lookup 56 subtable" zerosuperior
Substitution2: "Single Substitution lookup 44 subtable" zerosuperior
Substitution2: "Single Substitution lookup 40 subtable" zerosuperior
Substitution2: "Single Substitution lookup 39 subtable" zerosubscript
Substitution2: "Single Substitution lookup 37 subtable" zerosuperior
Substitution2: "Single Substitution lookup 34 subtable" zerosuperior
Substitution2: "Single Substitution lookup 32 subtable" zerosuperior
Substitution2: "Single Substitution lookup 31 subtable" zerosuperior
Substitution2: "Single Substitution lookup 30 subtable" zerosuperior
Substitution2: "Single Substitution lookup 29 subtable" zerosuperior
Substitution2: "Single Substitution lookup 28 subtable" zerosuperior
Substitution2: "Single Substitution lookup 22 subtable" halfdiminished
EndChar

StartChar: one
Encoding: 49 49 16
Width: 1025
GlyphClass: 2
Flags: W
AnchorPoint: "Anchor-4" 1025 941 basechar 0
AnchorPoint: "Anchor-3" 508 -100 basechar 0
AnchorPoint: "Anchor-2" 508 -100 basechar 0
AnchorPoint: "Anchor-1" 508 -100 basechar 0
AnchorPoint: "Anchor-0" 508 1435 basechar 0
LayerCount: 2
Fore
SplineSet
264 0 m 1,0,-1
 264 38 l 1,1,2
 328 38 328 38 363.5 45.5 c 128,-1,3
 399 53 399 53 416 75 c 128,-1,4
 433 97 433 97 436.5 137 c 128,-1,5
 440 177 440 177 440 241 c 2,6,-1
 440 1057 l 2,7,8
 440 1097 440 1097 436.5 1129 c 128,-1,9
 433 1161 433 1161 422.5 1184 c 128,-1,10
 412 1207 412 1207 391.5 1216.5 c 128,-1,11
 371 1226 371 1226 337.5 1220.5 c 128,-1,12
 304 1215 304 1215 254 1192 c 1,13,-1
 241 1224 l 1,14,-1
 570 1386 l 1,15,-1
 605 1386 l 1,16,-1
 605 241 l 2,17,18
 605 176 605 176 607.5 136 c 128,-1,19
 610 96 610 96 626 74.5 c 128,-1,20
 642 53 642 53 676.5 45.5 c 128,-1,21
 711 38 711 38 775 38 c 1,22,-1
 775 0 l 1,23,-1
 264 0 l 1,0,-1
EndSplineSet
Validated: 1
Substitution2: "Single Substitution lookup 57 subtable" onesuperior
Substitution2: "Single Substitution lookup 56 subtable" onesuperior
Substitution2: "Single Substitution lookup 44 subtable" onesuperior
Substitution2: "Single Substitution lookup 40 subtable" onesuperior
Substitution2: "Single Substitution lookup 39 subtable" onesubscript
Substitution2: "Single Substitution lookup 37 subtable" onesuperior
Substitution2: "Single Substitution lookup 34 subtable" onesuperior
Substitution2: "Single Substitution lookup 32 subtable" onesuperior
Substitution2: "Single Substitution lookup 31 subtable" onesuperior
Substitution2: "Single Substitution lookup 30 subtable" onesuperior
Substitution2: "Single Substitution lookup 29 subtable" onesuperior
Substitution2: "Single Substitution lookup 28 subtable" onesuperior
EndChar

StartChar: two
Encoding: 50 50 17
Width: 1025
GlyphClass: 2
Flags: W
AnchorPoint: "Anchor-4" 1025 941 basechar 0
AnchorPoint: "Anchor-3" 493 -100 basechar 0
AnchorPoint: "Anchor-2" 493 -100 basechar 0
AnchorPoint: "Anchor-1" 493 -100 basechar 0
AnchorPoint: "Anchor-0" 493 1435 basechar 0
LayerCount: 2
Fore
SplineSet
844 0 m 1,0,-1
 45 0 l 1,1,-1
 45 38 l 1,2,3
 221 199 221 199 345.5 329 c 128,-1,4
 470 459 470 459 542 564 c 0,5,6
 686 770 686 770 686 936 c 0,7,8
 686 1023 686 1023 656 1080 c 128,-1,9
 626 1137 626 1137 583.5 1171 c 128,-1,10
 541 1205 541 1205 495.5 1218.5 c 128,-1,11
 450 1232 450 1232 418 1232 c 0,12,13
 346 1232 346 1232 294.5 1207 c 128,-1,14
 243 1182 243 1182 207.5 1146 c 128,-1,15
 172 1110 172 1110 151 1070.5 c 128,-1,16
 130 1031 130 1031 120 1003 c 1,17,-1
 85 1003 l 1,18,19
 89 1033 89 1033 98 1073.5 c 128,-1,20
 107 1114 107 1114 125 1156.5 c 128,-1,21
 143 1199 143 1199 171 1240 c 128,-1,22
 199 1281 199 1281 240.5 1313.5 c 128,-1,23
 282 1346 282 1346 338.5 1366 c 128,-1,24
 395 1386 395 1386 469 1386 c 0,25,26
 541 1386 541 1386 611 1361.5 c 128,-1,27
 681 1337 681 1337 735.5 1291 c 128,-1,28
 790 1245 790 1245 823.5 1178.5 c 128,-1,29
 857 1112 857 1112 857 1029 c 0,30,31
 857 949 857 949 827.5 870.5 c 128,-1,32
 798 792 798 792 754.5 720 c 128,-1,33
 711 648 711 648 660.5 586.5 c 128,-1,34
 610 525 610 525 568 479 c 0,35,36
 443 343 443 343 366 262 c 128,-1,37
 289 181 289 181 258 152 c 1,38,-1
 613 152 l 2,39,40
 690 152 690 152 736 156.5 c 128,-1,41
 782 161 782 161 811.5 173 c 128,-1,42
 841 185 841 185 860.5 206 c 128,-1,43
 880 227 880 227 903 260 c 1,44,-1
 940 260 l 1,45,-1
 844 0 l 1,0,-1
EndSplineSet
Validated: 1
Substitution2: "Single Substitution lookup 57 subtable" twosuperior
Substitution2: "Single Substitution lookup 56 subtable" twosuperior
Substitution2: "Single Substitution lookup 44 subtable" twosuperior
Substitution2: "Single Substitution lookup 40 subtable" twosuperior
Substitution2: "Single Substitution lookup 39 subtable" twosubscript
Substitution2: "Single Substitution lookup 37 subtable" twosuperior
Substitution2: "Single Substitution lookup 34 subtable" twosuperior
Substitution2: "Single Substitution lookup 32 subtable" twosuperior
Substitution2: "Single Substitution lookup 31 subtable" twosuperior
Substitution2: "Single Substitution lookup 30 subtable" twosuperior
Substitution2: "Single Substitution lookup 29 subtable" twosuperior
Substitution2: "Single Substitution lookup 28 subtable" twosuperior
EndChar

StartChar: three
Encoding: 51 51 18
Width: 1025
GlyphClass: 2
Flags: W
AnchorPoint: "Anchor-4" 1025 941 basechar 0
AnchorPoint: "Anchor-3" 471 -100 basechar 0
AnchorPoint: "Anchor-2" 471 -100 basechar 0
AnchorPoint: "Anchor-1" 471 -100 basechar 0
AnchorPoint: "Anchor-0" 471 1435 basechar 0
LayerCount: 2
Fore
SplineSet
856 449 m 0,0,1
 856 345 856 345 819 258 c 128,-1,2
 782 171 782 171 712.5 108.5 c 128,-1,3
 643 46 643 46 543.5 11 c 128,-1,4
 444 -24 444 -24 320 -24 c 0,5,6
 263 -24 263 -24 223.5 -18 c 128,-1,7
 184 -12 184 -12 158 -2.5 c 128,-1,8
 132 7 132 7 117 19 c 128,-1,9
 102 31 102 31 95 43.5 c 128,-1,10
 88 56 88 56 86.5 67 c 128,-1,11
 85 78 85 78 85 85 c 0,12,13
 85 100 85 100 91.5 112.5 c 128,-1,14
 98 125 98 125 109 135 c 128,-1,15
 120 145 120 145 134 150.5 c 128,-1,16
 148 156 148 156 164 156 c 0,17,18
 201 156 201 156 231.5 141.5 c 128,-1,19
 262 127 262 127 294 110 c 128,-1,20
 326 93 326 93 364 78.5 c 128,-1,21
 402 64 402 64 453 64 c 0,22,23
 498 64 498 64 543 82.5 c 128,-1,24
 588 101 588 101 624.5 135.5 c 128,-1,25
 661 170 661 170 684 218.5 c 128,-1,26
 707 267 707 267 707 327 c 0,27,28
 707 395 707 395 690 446 c 128,-1,29
 673 497 673 497 645.5 533.5 c 128,-1,30
 618 570 618 570 582.5 595 c 128,-1,31
 547 620 547 620 510 635 c 0,32,33
 423 671 423 671 312 672 c 1,34,-1
 312 704 l 1,35,36
 325 705 325 705 352.5 711.5 c 128,-1,37
 380 718 380 718 414.5 732.5 c 128,-1,38
 449 747 449 747 485.5 770 c 128,-1,39
 522 793 522 793 552 827.5 c 128,-1,40
 582 862 582 862 601.5 909.5 c 128,-1,41
 621 957 621 957 621 1019 c 0,42,43
 621 1085 621 1085 598.5 1128.5 c 128,-1,44
 576 1172 576 1172 542.5 1198.5 c 128,-1,45
 509 1225 509 1225 470 1236 c 128,-1,46
 431 1247 431 1247 398 1247 c 0,47,48
 242 1247 242 1247 138 1082 c 1,49,-1
 105 1098 l 1,50,51
 115 1119 115 1119 128.5 1148.5 c 128,-1,52
 142 1178 142 1178 162 1210 c 128,-1,53
 182 1242 182 1242 210 1273.5 c 128,-1,54
 238 1305 238 1305 275 1330 c 128,-1,55
 312 1355 312 1355 360.5 1370.5 c 128,-1,56
 409 1386 409 1386 471 1386 c 0,57,58
 536 1386 536 1386 585 1370.5 c 128,-1,59
 634 1355 634 1355 669 1330 c 128,-1,60
 704 1305 704 1305 726.5 1274.5 c 128,-1,61
 749 1244 749 1244 762.5 1213 c 128,-1,62
 776 1182 776 1182 781 1155 c 128,-1,63
 786 1128 786 1128 786 1110 c 0,64,65
 786 1037 786 1037 741 960.5 c 128,-1,66
 696 884 696 884 603 805 c 1,67,68
 636 793 636 793 679.5 768 c 128,-1,69
 723 743 723 743 762 701 c 128,-1,70
 801 659 801 659 828.5 597 c 128,-1,71
 856 535 856 535 856 449 c 0,0,1
EndSplineSet
Validated: 1
Substitution2: "Single Substitution lookup 57 subtable" threesuperior
Substitution2: "Single Substitution lookup 56 subtable" threesuperior
Substitution2: "Single Substitution lookup 44 subtable" threesuperior
Substitution2: "Single Substitution lookup 40 subtable" threesuperior
Substitution2: "Single Substitution lookup 39 subtable" threesubscript
Substitution2: "Single Substitution lookup 37 subtable" threesuperior
Substitution2: "Single Substitution lookup 34 subtable" threesuperior
Substitution2: "Single Substitution lookup 32 subtable" threesuperior
Substitution2: "Single Substitution lookup 31 subtable" threesuperior
Substitution2: "Single Substitution lookup 30 subtable" threesuperior
Substitution2: "Single Substitution lookup 29 subtable" threesuperior
Substitution2: "Single Substitution lookup 28 subtable" threesuperior
EndChar

StartChar: four
Encoding: 52 52 19
Width: 1025
GlyphClass: 2
Flags: W
AnchorPoint: "Anchor-4" 1025 941 basechar 0
AnchorPoint: "Anchor-3" 492 -100 basechar 0
AnchorPoint: "Anchor-2" 492 -100 basechar 0
AnchorPoint: "Anchor-1" 492 -100 basechar 0
AnchorPoint: "Anchor-0" 492 1435 basechar 0
LayerCount: 2
Fore
SplineSet
773 359 m 1,0,-1
 773 0 l 1,1,-1
 607 0 l 1,2,-1
 607 359 l 1,3,-1
 32 359 l 1,4,-1
 32 485 l 1,5,-1
 662 1386 l 1,6,-1
 773 1386 l 1,7,-1
 773 500 l 1,8,-1
 952 500 l 1,9,-1
 952 359 l 1,10,-1
 773 359 l 1,0,-1
607 1175 m 1,11,-1
 130 500 l 1,12,-1
 607 500 l 1,13,-1
 607 1175 l 1,11,-1
EndSplineSet
Validated: 1
Substitution2: "Single Substitution lookup 57 subtable" foursuperior
Substitution2: "Single Substitution lookup 56 subtable" foursuperior
Substitution2: "Single Substitution lookup 44 subtable" foursuperior
Substitution2: "Single Substitution lookup 40 subtable" foursuperior
Substitution2: "Single Substitution lookup 39 subtable" foursubscript
Substitution2: "Single Substitution lookup 37 subtable" foursuperior
Substitution2: "Single Substitution lookup 34 subtable" foursuperior
Substitution2: "Single Substitution lookup 32 subtable" foursuperior
Substitution2: "Single Substitution lookup 31 subtable" foursuperior
Substitution2: "Single Substitution lookup 30 subtable" foursuperior
Substitution2: "Single Substitution lookup 29 subtable" foursuperior
Substitution2: "Single Substitution lookup 28 subtable" foursuperior
EndChar

StartChar: five
Encoding: 53 53 20
Width: 1025
GlyphClass: 2
Flags: W
AnchorPoint: "Anchor-4" 1025 941 basechar 0
AnchorPoint: "Anchor-3" 494 -100 basechar 0
AnchorPoint: "Anchor-2" 494 -100 basechar 0
AnchorPoint: "Anchor-1" 494 -100 basechar 0
AnchorPoint: "Anchor-0" 494 1435 basechar 0
LayerCount: 2
Fore
SplineSet
812 1187 m 1,0,-1
 404 1187 l 1,1,-1
 314 1005 l 1,2,3
 346 1002 346 1002 399.5 989.5 c 128,-1,4
 453 977 453 977 514.5 951.5 c 128,-1,5
 576 926 576 926 638.5 886.5 c 128,-1,6
 701 847 701 847 752 790.5 c 128,-1,7
 803 734 803 734 835 659.5 c 128,-1,8
 867 585 867 585 867 489 c 0,9,10
 867 404 867 404 843 333 c 128,-1,11
 819 262 819 262 778 205 c 128,-1,12
 737 148 737 148 683.5 105 c 128,-1,13
 630 62 630 62 570 33.5 c 128,-1,14
 510 5 510 5 448.5 -9.5 c 128,-1,15
 387 -24 387 -24 331 -24 c 0,16,17
 273 -24 273 -24 229 -13 c 128,-1,18
 185 -2 185 -2 156 16 c 128,-1,19
 127 34 127 34 112.5 58 c 128,-1,20
 98 82 98 82 98 109 c 0,21,22
 98 117 98 117 101 129 c 128,-1,23
 104 141 104 141 112.5 152.5 c 128,-1,24
 121 164 121 164 136.5 172.5 c 128,-1,25
 152 181 152 181 177 181 c 0,26,27
 213 181 213 181 240 165 c 128,-1,28
 267 149 267 149 295.5 130 c 128,-1,29
 324 111 324 111 359 95 c 128,-1,30
 394 79 394 79 444 79 c 0,31,32
 502 79 502 79 555 101.5 c 128,-1,33
 608 124 608 124 648.5 164.5 c 128,-1,34
 689 205 689 205 713 260.5 c 128,-1,35
 737 316 737 316 737 382 c 0,36,37
 737 413 737 413 730 451 c 128,-1,38
 723 489 723 489 706 529.5 c 128,-1,39
 689 570 689 570 660 611 c 128,-1,40
 631 652 631 652 587 688 c 0,41,42
 532 734 532 734 473.5 761 c 128,-1,43
 415 788 415 788 357.5 803 c 128,-1,44
 300 818 300 818 245.5 823.5 c 128,-1,45
 191 829 191 829 144 830 c 1,46,-1
 404 1356 l 1,47,-1
 889 1356 l 1,48,-1
 812 1187 l 1,0,-1
EndSplineSet
Validated: 1
Substitution2: "Single Substitution lookup 57 subtable" fivesuperior
Substitution2: "Single Substitution lookup 56 subtable" fivesuperior
Substitution2: "Single Substitution lookup 44 subtable" fivesuperior
Substitution2: "Single Substitution lookup 40 subtable" fivesuperior
Substitution2: "Single Substitution lookup 39 subtable" fivesubscript
Substitution2: "Single Substitution lookup 37 subtable" fivesuperior
Substitution2: "Single Substitution lookup 34 subtable" fivesuperior
Substitution2: "Single Substitution lookup 32 subtable" fivesuperior
Substitution2: "Single Substitution lookup 31 subtable" fivesuperior
Substitution2: "Single Substitution lookup 30 subtable" fivesuperior
Substitution2: "Single Substitution lookup 29 subtable" fivesuperior
Substitution2: "Single Substitution lookup 28 subtable" fivesuperior
EndChar

StartChar: six
Encoding: 54 54 21
Width: 1025
GlyphClass: 2
Flags: W
AnchorPoint: "Anchor-4" 1025 941 basechar 0
AnchorPoint: "Anchor-3" 518 -100 basechar 0
AnchorPoint: "Anchor-2" 518 -100 basechar 0
AnchorPoint: "Anchor-1" 518 -100 basechar 0
AnchorPoint: "Anchor-0" 518 1435 basechar 0
LayerCount: 2
Fore
SplineSet
946 457 m 0,0,1
 946 367 946 367 916 281 c 128,-1,2
 886 195 886 195 829.5 127 c 128,-1,3
 773 59 773 59 693.5 17.5 c 128,-1,4
 614 -24 614 -24 515 -24 c 0,5,6
 421 -24 421 -24 342.5 20.5 c 128,-1,7
 264 65 264 65 208 141 c 128,-1,8
 152 217 152 217 120.5 318 c 128,-1,9
 89 419 89 419 89 532 c 0,10,11
 89 644 89 644 113.5 739.5 c 128,-1,12
 138 835 138 835 178 915 c 128,-1,13
 218 995 218 995 268 1059 c 128,-1,14
 318 1123 318 1123 369 1171 c 0,15,16
 433 1231 433 1231 498.5 1272.5 c 128,-1,17
 564 1314 564 1314 627.5 1339 c 128,-1,18
 691 1364 691 1364 750.5 1375 c 128,-1,19
 810 1386 810 1386 861 1386 c 2,20,-1
 918 1386 l 1,21,-1
 918 1348 l 1,22,23
 800 1343 800 1343 706 1296.5 c 128,-1,24
 612 1250 612 1250 536 1175 c 0,25,26
 510 1149 510 1149 479.5 1111 c 128,-1,27
 449 1073 449 1073 418.5 1021.5 c 128,-1,28
 388 970 388 970 360.5 904 c 128,-1,29
 333 838 333 838 314 756 c 1,30,31
 457 857 457 857 603 857 c 0,32,33
 634 857 634 857 671 848 c 128,-1,34
 708 839 708 839 746.5 819.5 c 128,-1,35
 785 800 785 800 821 769 c 128,-1,36
 857 738 857 738 884.5 693.5 c 128,-1,37
 912 649 912 649 929 590.5 c 128,-1,38
 946 532 946 532 946 457 c 0,0,1
767 348 m 0,39,40
 767 427 767 427 752 503 c 128,-1,41
 737 579 737 579 705.5 638.5 c 128,-1,42
 674 698 674 698 624.5 734.5 c 128,-1,43
 575 771 575 771 506 771 c 0,44,45
 476 771 476 771 448 762.5 c 128,-1,46
 420 754 420 754 393.5 741 c 128,-1,47
 367 728 367 728 343 713 c 128,-1,48
 319 698 319 698 297 684 c 1,49,50
 289 617 289 617 283.5 563 c 128,-1,51
 278 509 278 509 278 467 c 0,52,53
 278 421 278 421 286 370 c 128,-1,54
 294 319 294 319 309.5 270.5 c 128,-1,55
 325 222 325 222 347.5 178 c 128,-1,56
 370 134 370 134 399.5 101 c 128,-1,57
 429 68 429 68 465.5 49.5 c 128,-1,58
 502 31 502 31 544 32 c 0,59,60
 588 34 588 34 628.5 54.5 c 128,-1,61
 669 75 669 75 700 115 c 128,-1,62
 731 155 731 155 749 213.5 c 128,-1,63
 767 272 767 272 767 348 c 0,39,40
EndSplineSet
Validated: 33
Substitution2: "Single Substitution lookup 57 subtable" sixsuperior
Substitution2: "Single Substitution lookup 56 subtable" sixsuperior
Substitution2: "Single Substitution lookup 44 subtable" sixsuperior
Substitution2: "Single Substitution lookup 40 subtable" sixsuperior
Substitution2: "Single Substitution lookup 39 subtable" sixsubscript
Substitution2: "Single Substitution lookup 37 subtable" sixsuperior
Substitution2: "Single Substitution lookup 34 subtable" sixsuperior
Substitution2: "Single Substitution lookup 32 subtable" sixsuperior
Substitution2: "Single Substitution lookup 31 subtable" sixsuperior
Substitution2: "Single Substitution lookup 30 subtable" sixsuperior
Substitution2: "Single Substitution lookup 29 subtable" sixsuperior
Substitution2: "Single Substitution lookup 28 subtable" sixsuperior
EndChar

StartChar: seven
Encoding: 55 55 22
Width: 1025
GlyphClass: 2
Flags: W
AnchorPoint: "Anchor-4" 1025 941 basechar 0
AnchorPoint: "Anchor-3" 503 -100 basechar 0
AnchorPoint: "Anchor-2" 503 -100 basechar 0
AnchorPoint: "Anchor-1" 503 -100 basechar 0
AnchorPoint: "Anchor-0" 503 1435 basechar 0
LayerCount: 2
Fore
SplineSet
479 -30 m 1,0,-1
 369 -30 l 1,1,-1
 775 1192 l 1,2,-1
 402 1192 l 2,3,4
 319 1192 319 1192 268 1176 c 128,-1,5
 217 1160 217 1160 186 1136 c 128,-1,6
 155 1112 155 1112 137.5 1083 c 128,-1,7
 120 1054 120 1054 105 1027 c 1,8,-1
 75 1037 l 1,9,-1
 207 1356 l 1,10,-1
 931 1356 l 1,11,-1
 931 1320 l 1,12,-1
 479 -30 l 1,0,-1
EndSplineSet
Validated: 1
Substitution2: "Single Substitution lookup 57 subtable" sevensuperior
Substitution2: "Single Substitution lookup 56 subtable" sevensuperior
Substitution2: "Single Substitution lookup 44 subtable" sevensuperior
Substitution2: "Single Substitution lookup 40 subtable" sevensuperior
Substitution2: "Single Substitution lookup 39 subtable" sevensubscript
Substitution2: "Single Substitution lookup 37 subtable" sevensuperior
Substitution2: "Single Substitution lookup 34 subtable" sevensuperior
Substitution2: "Single Substitution lookup 32 subtable" sevensuperior
Substitution2: "Single Substitution lookup 31 subtable" sevensuperior
Substitution2: "Single Substitution lookup 30 subtable" sevensuperior
Substitution2: "Single Substitution lookup 29 subtable" sevensuperior
Substitution2: "Single Substitution lookup 28 subtable" sevensuperior
EndChar

StartChar: eight
Encoding: 56 56 23
Width: 1025
GlyphClass: 2
Flags: W
AnchorPoint: "Anchor-4" 1025 941 basechar 0
AnchorPoint: "Anchor-3" 515 -100 basechar 0
AnchorPoint: "Anchor-2" 515 -100 basechar 0
AnchorPoint: "Anchor-1" 515 -100 basechar 0
AnchorPoint: "Anchor-0" 515 1435 basechar 0
LayerCount: 2
Fore
SplineSet
907 321 m 0,0,1
 907 291 907 291 899.5 253.5 c 128,-1,2
 892 216 892 216 874.5 177.5 c 128,-1,3
 857 139 857 139 827.5 103 c 128,-1,4
 798 67 798 67 754 38.5 c 128,-1,5
 710 10 710 10 650.5 -7 c 128,-1,6
 591 -24 591 -24 512 -24 c 0,7,8
 417 -24 417 -24 344 6.5 c 128,-1,9
 271 37 271 37 221.5 85 c 128,-1,10
 172 133 172 133 147 192.5 c 128,-1,11
 122 252 122 252 122 310 c 0,12,13
 122 374 122 374 150.5 430.5 c 128,-1,14
 179 487 179 487 220.5 534.5 c 128,-1,15
 262 582 262 582 309.5 619 c 128,-1,16
 357 656 357 656 395 682 c 1,17,18
 355 716 355 716 310 754.5 c 128,-1,19
 265 793 265 793 227.5 838.5 c 128,-1,20
 190 884 190 884 165 939 c 128,-1,21
 140 994 140 994 140 1062 c 0,22,23
 140 1138 140 1138 170.5 1198 c 128,-1,24
 201 1258 201 1258 252.5 1300 c 128,-1,25
 304 1342 304 1342 371.5 1364 c 128,-1,26
 439 1386 439 1386 512 1386 c 0,27,28
 586 1386 586 1386 642 1369.5 c 128,-1,29
 698 1353 698 1353 738.5 1327 c 128,-1,30
 779 1301 779 1301 805.5 1268.5 c 128,-1,31
 832 1236 832 1236 848 1203.5 c 128,-1,32
 864 1171 864 1171 870.5 1141.5 c 128,-1,33
 877 1112 877 1112 877 1092 c 0,34,35
 877 1032 877 1032 849.5 981.5 c 128,-1,36
 822 931 822 931 780 889 c 128,-1,37
 738 847 738 847 689 813.5 c 128,-1,38
 640 780 640 780 598 753 c 1,39,40
 642 719 642 719 695.5 675.5 c 128,-1,41
 749 632 749 632 796 578.5 c 128,-1,42
 843 525 843 525 875 461 c 128,-1,43
 907 397 907 397 907 321 c 0,0,1
733 1104 m 0,44,45
 733 1168 733 1168 714 1211 c 128,-1,46
 695 1254 695 1254 664.5 1279.5 c 128,-1,47
 634 1305 634 1305 595 1315.5 c 128,-1,48
 556 1326 556 1326 515 1326 c 0,49,50
 469 1326 469 1326 427 1313 c 128,-1,51
 385 1300 385 1300 354 1275 c 128,-1,52
 323 1250 323 1250 304.5 1213.5 c 128,-1,53
 286 1177 286 1177 286 1130 c 0,54,55
 286 1079 286 1079 303.5 1038.5 c 128,-1,56
 321 998 321 998 355 960 c 128,-1,57
 389 922 389 922 438.5 881.5 c 128,-1,58
 488 841 488 841 551 790 c 1,59,60
 589 826 589 826 622.5 857.5 c 128,-1,61
 656 889 656 889 680.5 924.5 c 128,-1,62
 705 960 705 960 719 1003 c 128,-1,63
 733 1046 733 1046 733 1104 c 0,44,45
765 241 m 0,64,65
 765 284 765 284 749.5 323.5 c 128,-1,66
 734 363 734 363 708.5 399.5 c 128,-1,67
 683 436 683 436 649.5 469.5 c 128,-1,68
 616 503 616 503 580 533.5 c 128,-1,69
 544 564 544 564 508.5 592.5 c 128,-1,70
 473 621 473 621 442 647 c 1,71,72
 421 629 421 629 392.5 600.5 c 128,-1,73
 364 572 364 572 338 531 c 128,-1,74
 312 490 312 490 294 436 c 128,-1,75
 276 382 276 382 276 314 c 256,76,77
 276 246 276 246 295.5 193.5 c 128,-1,78
 315 141 315 141 348.5 105 c 128,-1,79
 382 69 382 69 428 50.5 c 128,-1,80
 474 32 474 32 526 32 c 0,81,82
 575 32 575 32 618.5 46 c 128,-1,83
 662 60 662 60 694.5 86.5 c 128,-1,84
 727 113 727 113 746 152 c 128,-1,85
 765 191 765 191 765 241 c 0,64,65
EndSplineSet
Validated: 1
Substitution2: "Single Substitution lookup 57 subtable" eightsuperior
Substitution2: "Single Substitution lookup 56 subtable" eightsuperior
Substitution2: "Single Substitution lookup 44 subtable" eightsuperior
Substitution2: "Single Substitution lookup 40 subtable" eightsuperior
Substitution2: "Single Substitution lookup 39 subtable" eightsubscript
Substitution2: "Single Substitution lookup 37 subtable" eightsuperior
Substitution2: "Single Substitution lookup 34 subtable" eightsuperior
Substitution2: "Single Substitution lookup 32 subtable" eightsuperior
Substitution2: "Single Substitution lookup 31 subtable" eightsuperior
Substitution2: "Single Substitution lookup 30 subtable" eightsuperior
Substitution2: "Single Substitution lookup 29 subtable" eightsuperior
Substitution2: "Single Substitution lookup 28 subtable" eightsuperior
EndChar

StartChar: nine
Encoding: 57 57 24
Width: 1025
GlyphClass: 2
Flags: W
AnchorPoint: "Anchor-4" 1025 941 basechar 0
AnchorPoint: "Anchor-3" 510 -100 basechar 0
AnchorPoint: "Anchor-2" 510 -100 basechar 0
AnchorPoint: "Anchor-1" 510 -100 basechar 0
AnchorPoint: "Anchor-0" 510 1435 basechar 0
LayerCount: 2
Fore
SplineSet
936 826 m 0,0,1
 936 491 936 491 707 239 c 0,2,3
 694 224 694 224 668.5 198 c 128,-1,4
 643 172 643 172 607 142 c 128,-1,5
 571 112 571 112 524.5 81.5 c 128,-1,6
 478 51 478 51 422.5 26 c 128,-1,7
 367 1 367 1 302.5 -14.5 c 128,-1,8
 238 -30 238 -30 166 -30 c 2,9,-1
 109 -30 l 1,10,-1
 109 8 l 1,11,12
 135 9 135 9 178 14.5 c 128,-1,13
 221 20 221 20 272 37 c 128,-1,14
 323 54 323 54 377 85 c 128,-1,15
 431 116 431 116 479 167 c 0,16,17
 554 249 554 249 615.5 353.5 c 128,-1,18
 677 458 677 458 711 598 c 1,19,20
 634 545 634 545 563.5 520 c 128,-1,21
 493 495 493 495 427 495 c 0,22,23
 343 495 343 495 279 529.5 c 128,-1,24
 215 564 215 564 171.5 620.5 c 128,-1,25
 128 677 128 677 105.5 749.5 c 128,-1,26
 83 822 83 822 83 899 c 0,27,28
 83 1006 83 1006 117.5 1095.5 c 128,-1,29
 152 1185 152 1185 210 1249.5 c 128,-1,30
 268 1314 268 1314 344.5 1350 c 128,-1,31
 421 1386 421 1386 504 1386 c 0,32,33
 573 1386 573 1386 632 1362.5 c 128,-1,34
 691 1339 691 1339 739 1298.5 c 128,-1,35
 787 1258 787 1258 824 1203.5 c 128,-1,36
 861 1149 861 1149 885.5 1087 c 128,-1,37
 910 1025 910 1025 923 958 c 128,-1,38
 936 891 936 891 936 826 c 0,0,1
747 877 m 0,39,40
 747 986 747 986 722 1070 c 128,-1,41
 697 1154 697 1154 658.5 1210 c 128,-1,42
 620 1266 620 1266 573 1294 c 128,-1,43
 526 1322 526 1322 481 1320 c 256,44,45
 436 1318 436 1318 396 1297.5 c 128,-1,46
 356 1277 356 1277 325.5 1237.5 c 128,-1,47
 295 1198 295 1198 277.5 1139.5 c 128,-1,48
 260 1081 260 1081 260 1003 c 0,49,50
 260 910 260 910 278 833 c 128,-1,51
 296 756 296 756 328.5 701 c 128,-1,52
 361 646 361 646 406.5 615.5 c 128,-1,53
 452 585 452 585 508 585 c 0,54,55
 538 585 538 585 572 593 c 128,-1,56
 606 601 606 601 637.5 614 c 128,-1,57
 669 627 669 627 693.5 642 c 128,-1,58
 718 657 718 657 728 670 c 1,59,60
 736 735 736 735 741.5 787 c 128,-1,61
 747 839 747 839 747 877 c 0,39,40
EndSplineSet
Validated: 33
Substitution2: "Single Substitution lookup 57 subtable" ninesuperior
Substitution2: "Single Substitution lookup 56 subtable" ninesuperior
Substitution2: "Single Substitution lookup 44 subtable" ninesuperior
Substitution2: "Single Substitution lookup 40 subtable" ninesuperior
Substitution2: "Single Substitution lookup 39 subtable" ninesubscript
Substitution2: "Single Substitution lookup 37 subtable" ninesuperior
Substitution2: "Single Substitution lookup 34 subtable" ninesuperior
Substitution2: "Single Substitution lookup 32 subtable" ninesuperior
Substitution2: "Single Substitution lookup 31 subtable" ninesuperior
Substitution2: "Single Substitution lookup 30 subtable" ninesuperior
Substitution2: "Single Substitution lookup 29 subtable" ninesuperior
Substitution2: "Single Substitution lookup 28 subtable" ninesuperior
EndChar

StartChar: colon
Encoding: 58 58 25
Width: 572
Flags: W
LayerCount: 2
Fore
SplineSet
398 85 m 256,0,1
 398 59 398 59 388 37.5 c 128,-1,2
 378 16 378 16 362.5 1 c 128,-1,3
 347 -14 347 -14 327 -22 c 128,-1,4
 307 -30 307 -30 286 -30 c 256,5,6
 265 -30 265 -30 244.5 -21.5 c 128,-1,7
 224 -13 224 -13 208 2 c 128,-1,8
 192 17 192 17 182.5 38 c 128,-1,9
 173 59 173 59 173 85 c 0,10,11
 173 112 173 112 184 133 c 128,-1,12
 195 154 195 154 211.5 167.5 c 128,-1,13
 228 181 228 181 248 188 c 128,-1,14
 268 195 268 195 286 195 c 256,15,16
 304 195 304 195 324 187.5 c 128,-1,17
 344 180 344 180 360.5 166 c 128,-1,18
 377 152 377 152 387.5 131.5 c 128,-1,19
 398 111 398 111 398 85 c 256,0,1
398 833 m 0,20,21
 398 808 398 808 388.5 788 c 128,-1,22
 379 768 379 768 363 753.5 c 128,-1,23
 347 739 347 739 327.5 731.5 c 128,-1,24
 308 724 308 724 288 724 c 0,25,26
 265 724 265 724 244.5 732.5 c 128,-1,27
 224 741 224 741 208.5 756 c 128,-1,28
 193 771 193 771 184 790.5 c 128,-1,29
 175 810 175 810 175 833 c 0,30,31
 175 857 175 857 184 877.5 c 128,-1,32
 193 898 193 898 208.5 912.5 c 128,-1,33
 224 927 224 927 244.5 935.5 c 128,-1,34
 265 944 265 944 288 944 c 0,35,36
 310 944 310 944 330 935.5 c 128,-1,37
 350 927 350 927 365 912.5 c 128,-1,38
 380 898 380 898 389 877.5 c 128,-1,39
 398 857 398 857 398 833 c 0,20,21
EndSplineSet
Validated: 1
EndChar

StartChar: semicolon
Encoding: 59 59 26
Width: 572
Flags: W
LayerCount: 2
Fore
SplineSet
469 -10 m 0,0,1
 469 -74 469 -74 444.5 -126.5 c 128,-1,2
 420 -179 420 -179 379 -220 c 128,-1,3
 338 -261 338 -261 284 -291.5 c 128,-1,4
 230 -322 230 -322 171 -343 c 1,5,-1
 171 -297 l 1,6,7
 209 -287 209 -287 247.5 -263.5 c 128,-1,8
 286 -240 286 -240 316.5 -207 c 128,-1,9
 347 -174 347 -174 366.5 -131.5 c 128,-1,10
 386 -89 386 -89 386 -39 c 0,11,12
 386 -28 386 -28 382 -14 c 128,-1,13
 378 0 378 0 365 0 c 0,14,15
 353 0 353 0 342.5 -4.5 c 128,-1,16
 332 -9 332 -9 321.5 -15 c 128,-1,17
 311 -21 311 -21 300.5 -25.5 c 128,-1,18
 290 -30 290 -30 278 -30 c 0,19,20
 257 -30 257 -30 237.5 -23.5 c 128,-1,21
 218 -17 218 -17 203.5 -3 c 128,-1,22
 189 11 189 11 180 32 c 128,-1,23
 171 53 171 53 171 83 c 0,24,25
 171 110 171 110 181.5 131.5 c 128,-1,26
 192 153 192 153 210 168 c 128,-1,27
 228 183 228 183 251.5 191 c 128,-1,28
 275 199 275 199 301 199 c 0,29,30
 330 199 330 199 360 185.5 c 128,-1,31
 390 172 390 172 414 146 c 128,-1,32
 438 120 438 120 453.5 81 c 128,-1,33
 469 42 469 42 469 -10 c 0,0,1
423 835 m 0,34,35
 423 810 423 810 413.5 790 c 128,-1,36
 404 770 404 770 388.5 755.5 c 128,-1,37
 373 741 373 741 353.5 733.5 c 128,-1,38
 334 726 334 726 314 726 c 0,39,40
 291 726 291 726 270.5 734.5 c 128,-1,41
 250 743 250 743 234.5 758 c 128,-1,42
 219 773 219 773 210 792.5 c 128,-1,43
 201 812 201 812 201 835 c 0,44,45
 201 859 201 859 210 879.5 c 128,-1,46
 219 900 219 900 234.5 914.5 c 128,-1,47
 250 929 250 929 270.5 937.5 c 128,-1,48
 291 946 291 946 314 946 c 0,49,50
 336 946 336 946 355.5 937.5 c 128,-1,51
 375 929 375 929 390 914.5 c 128,-1,52
 405 900 405 900 414 879.5 c 128,-1,53
 423 859 423 859 423 835 c 0,34,35
EndSplineSet
Validated: 1
EndChar

StartChar: less
Encoding: 60 60 27
Width: 1971
Flags: W
LayerCount: 2
Fore
SplineSet
395 530 m 1,0,-1
 395 653 l 1,1,-1
 1576 1106 l 1,2,-1
 1576 984 l 1,3,-1
 521 591 l 1,4,-1
 1576 199 l 1,5,-1
 1576 77 l 1,6,-1
 395 530 l 1,0,-1
EndSplineSet
Validated: 1
EndChar

StartChar: equal
Encoding: 61 61 28
Width: 1971
Flags: W
LayerCount: 2
Fore
SplineSet
395 351 m 1,0,-1
 395 474 l 1,1,-1
 1576 474 l 1,2,-1
 1576 351 l 1,3,-1
 395 351 l 1,0,-1
395 709 m 1,4,-1
 395 832 l 1,5,-1
 1576 832 l 1,6,-1
 1576 709 l 1,7,-1
 395 709 l 1,4,-1
EndSplineSet
Validated: 1
MultipleSubs2: "Multiple Substitution lookup 63 subtable" hyphensuperior hyphensubscript
MultipleSubs2: "Multiple Substitution lookup 61 subtable" hyphensuperior hyphensubscript
MultipleSubs2: "Multiple Substitution lookup 55 subtable" hyphensuperior hyphensubscript
MultipleSubs2: "Multiple Substitution lookup 50 subtable" hyphensupersuper hyphensuperior
EndChar

StartChar: greater
Encoding: 62 62 29
Width: 1971
Flags: W
LayerCount: 2
Fore
SplineSet
395 77 m 1,0,-1
 395 199 l 1,1,-1
 1450 591 l 1,2,-1
 395 984 l 1,3,-1
 395 1106 l 1,4,-1
 1576 653 l 1,5,-1
 1576 530 l 1,6,-1
 395 77 l 1,0,-1
EndSplineSet
Validated: 1
EndChar

StartChar: question
Encoding: 63 63 30
Width: 910
Flags: W
LayerCount: 2
Fore
SplineSet
551 85 m 0,0,1
 551 58 551 58 541 36.5 c 128,-1,2
 531 15 531 15 515.5 1 c 128,-1,3
 500 -13 500 -13 480.5 -20.5 c 128,-1,4
 461 -28 461 -28 442 -28 c 0,5,6
 420 -28 420 -28 399.5 -20.5 c 128,-1,7
 379 -13 379 -13 363 1.5 c 128,-1,8
 347 16 347 16 337 37 c 128,-1,9
 327 58 327 58 327 85 c 0,10,11
 327 109 327 109 336.5 129.5 c 128,-1,12
 346 150 346 150 362 165 c 128,-1,13
 378 180 378 180 398.5 188.5 c 128,-1,14
 419 197 419 197 442 197 c 0,15,16
 463 197 463 197 482.5 189 c 128,-1,17
 502 181 502 181 517 166 c 128,-1,18
 532 151 532 151 541.5 130.5 c 128,-1,19
 551 110 551 110 551 85 c 0,0,1
828 1072 m 0,20,21
 828 1015 828 1015 812 966 c 128,-1,22
 796 917 796 917 772.5 875.5 c 128,-1,23
 749 834 749 834 722 800.5 c 128,-1,24
 695 767 695 767 672 741 c 0,25,26
 619 681 619 681 579.5 634 c 128,-1,27
 540 587 540 587 513.5 540.5 c 128,-1,28
 487 494 487 494 472.5 442 c 128,-1,29
 458 390 458 390 455 320 c 1,30,-1
 412 320 l 1,31,32
 415 380 415 380 424 435 c 128,-1,33
 433 490 433 490 449.5 543.5 c 128,-1,34
 466 597 466 597 490.5 650 c 128,-1,35
 515 703 515 703 548 758 c 0,36,37
 563 784 563 784 580 819.5 c 128,-1,38
 597 855 597 855 611 894.5 c 128,-1,39
 625 934 625 934 634 976 c 128,-1,40
 643 1018 643 1018 643 1057 c 0,41,42
 643 1132 643 1132 621.5 1184.5 c 128,-1,43
 600 1237 600 1237 566 1270 c 128,-1,44
 532 1303 532 1303 490.5 1317.5 c 128,-1,45
 449 1332 449 1332 410 1332 c 0,46,47
 362 1332 362 1332 326.5 1320 c 128,-1,48
 291 1308 291 1308 267 1288.5 c 128,-1,49
 243 1269 243 1269 231.5 1245.5 c 128,-1,50
 220 1222 220 1222 220 1200 c 0,51,52
 220 1179 220 1179 230 1156 c 128,-1,53
 240 1133 240 1133 252 1110.5 c 128,-1,54
 264 1088 264 1088 274 1067 c 128,-1,55
 284 1046 284 1046 284 1029 c 0,56,57
 284 1008 284 1008 276.5 991.5 c 128,-1,58
 269 975 269 975 257 964 c 128,-1,59
 245 953 245 953 230.5 947.5 c 128,-1,60
 216 942 216 942 203 942 c 0,61,62
 192 942 192 942 173.5 948.5 c 128,-1,63
 155 955 155 955 137 972.5 c 128,-1,64
 119 990 119 990 105.5 1020.5 c 128,-1,65
 92 1051 92 1051 92 1100 c 0,66,67
 92 1156 92 1156 115.5 1208 c 128,-1,68
 139 1260 139 1260 185 1300 c 128,-1,69
 231 1340 231 1340 298.5 1364 c 128,-1,70
 366 1388 366 1388 453 1388 c 0,71,72
 534 1388 534 1388 603 1366.5 c 128,-1,73
 672 1345 672 1345 722 1304 c 128,-1,74
 772 1263 772 1263 800 1204.5 c 128,-1,75
 828 1146 828 1146 828 1072 c 0,20,21
EndSplineSet
Validated: 1
EndChar

StartChar: at
Encoding: 64 64 31
Width: 1888
Flags: W
LayerCount: 2
Fore
SplineSet
1127 515 m 0,0,1
 1165 609 1165 609 1177 684 c 128,-1,2
 1189 759 1189 759 1178.5 811 c 128,-1,3
 1168 863 1168 863 1137 890.5 c 128,-1,4
 1106 918 1106 918 1059 918 c 0,5,6
 1009 918 1009 918 960 883.5 c 128,-1,7
 911 849 911 849 866 794 c 128,-1,8
 821 739 821 739 782.5 670 c 128,-1,9
 744 601 744 601 715 531.5 c 128,-1,10
 686 462 686 462 670 399.5 c 128,-1,11
 654 337 654 337 654 294 c 0,12,13
 654 258 654 258 665 231 c 128,-1,14
 676 204 676 204 693 186.5 c 128,-1,15
 710 169 710 169 730.5 160.5 c 128,-1,16
 751 152 751 152 769 152 c 0,17,18
 818 152 818 152 871 184 c 128,-1,19
 924 216 924 216 972 267.5 c 128,-1,20
 1020 319 1020 319 1060.5 384 c 128,-1,21
 1101 449 1101 449 1127 515 c 0,0,1
1837 171 m 1,22,23
 1824 124 1824 124 1793 60.5 c 128,-1,24
 1762 -3 1762 -3 1712 -71 c 128,-1,25
 1662 -139 1662 -139 1591.5 -206 c 128,-1,26
 1521 -273 1521 -273 1429 -326 c 128,-1,27
 1337 -379 1337 -379 1222.5 -411.5 c 128,-1,28
 1108 -444 1108 -444 970 -444 c 0,29,30
 824 -444 824 -444 703 -407 c 128,-1,31
 582 -370 582 -370 485 -306 c 128,-1,32
 388 -242 388 -242 315 -155.5 c 128,-1,33
 242 -69 242 -69 193.5 29.5 c 128,-1,34
 145 128 145 128 120.5 235 c 128,-1,35
 96 342 96 342 96 446 c 0,36,37
 96 607 96 607 136 742 c 128,-1,38
 176 877 176 877 244.5 985.5 c 128,-1,39
 313 1094 313 1094 405.5 1176 c 128,-1,40
 498 1258 498 1258 603.5 1313 c 128,-1,41
 709 1368 709 1368 821 1395.5 c 128,-1,42
 933 1423 933 1423 1042 1423 c 0,43,44
 1189 1423 1189 1423 1319 1379 c 128,-1,45
 1449 1335 1449 1335 1546.5 1248 c 128,-1,46
 1644 1161 1644 1161 1701 1033 c 128,-1,47
 1758 905 1758 905 1758 737 c 0,48,49
 1758 589 1758 589 1715.5 460.5 c 128,-1,50
 1673 332 1673 332 1598.5 236.5 c 128,-1,51
 1524 141 1524 141 1423 86.5 c 128,-1,52
 1322 32 1322 32 1206 32 c 0,53,54
 1141 32 1141 32 1108 53.5 c 128,-1,55
 1075 75 1075 75 1063 113 c 128,-1,56
 1051 151 1051 151 1055 203 c 128,-1,57
 1059 255 1059 255 1070 316 c 1,58,59
 1033 271 1033 271 988.5 221 c 128,-1,60
 944 171 944 171 894 129 c 128,-1,61
 844 87 844 87 789 59.5 c 128,-1,62
 734 32 734 32 676 32 c 0,63,64
 641 32 641 32 608.5 47.5 c 128,-1,65
 576 63 576 63 551.5 93 c 128,-1,66
 527 123 527 123 512 165.5 c 128,-1,67
 497 208 497 208 497 262 c 0,68,69
 497 344 497 344 522 428 c 128,-1,70
 547 512 547 512 589 590 c 128,-1,71
 631 668 631 668 686.5 736.5 c 128,-1,72
 742 805 742 805 803 856 c 128,-1,73
 864 907 864 907 927 936.5 c 128,-1,74
 990 966 990 966 1046 966 c 0,75,76
 1094 966 1094 966 1125.5 950.5 c 128,-1,77
 1157 935 1157 935 1177 913.5 c 128,-1,78
 1197 892 1197 892 1206.5 868 c 128,-1,79
 1216 844 1216 844 1220 826 c 1,80,-1
 1251 936 l 1,81,-1
 1407 960 l 1,82,-1
 1293 560 l 2,83,84
 1276 503 1276 503 1259.5 444.5 c 128,-1,85
 1243 386 1243 386 1229 334.5 c 128,-1,86
 1215 283 1215 283 1206.5 241.5 c 128,-1,87
 1198 200 1198 200 1198 177 c 0,88,89
 1198 170 1198 170 1201.5 157.5 c 128,-1,90
 1205 145 1205 145 1213.5 132.5 c 128,-1,91
 1222 120 1222 120 1237 111 c 128,-1,92
 1252 102 1252 102 1275 102 c 0,93,94
 1314 102 1314 102 1361 122 c 128,-1,95
 1408 142 1408 142 1455 180.5 c 128,-1,96
 1502 219 1502 219 1545.5 275 c 128,-1,97
 1589 331 1589 331 1622.5 403.5 c 128,-1,98
 1656 476 1656 476 1676.5 564.5 c 128,-1,99
 1697 653 1697 653 1697 756 c 0,100,101
 1697 900 1697 900 1646 1014.5 c 128,-1,102
 1595 1129 1595 1129 1506.5 1208 c 128,-1,103
 1418 1287 1418 1287 1300 1329 c 128,-1,104
 1182 1371 1182 1371 1049 1371 c 0,105,106
 933 1371 933 1371 825 1339.5 c 128,-1,107
 717 1308 717 1308 621.5 1249 c 128,-1,108
 526 1190 526 1190 447 1105.5 c 128,-1,109
 368 1021 368 1021 311.5 915 c 128,-1,110
 255 809 255 809 223.5 683.5 c 128,-1,111
 192 558 192 558 192 418 c 0,112,113
 192 317 192 317 213 219 c 128,-1,114
 234 121 234 121 277 32 c 128,-1,115
 320 -57 320 -57 384.5 -132.5 c 128,-1,116
 449 -208 449 -208 536 -263 c 128,-1,117
 623 -318 623 -318 733 -349 c 128,-1,118
 843 -380 843 -380 976 -380 c 0,119,120
 1102 -380 1102 -380 1205.5 -351.5 c 128,-1,121
 1309 -323 1309 -323 1391.5 -277 c 128,-1,122
 1474 -231 1474 -231 1538 -172 c 128,-1,123
 1602 -113 1602 -113 1649 -51.5 c 128,-1,124
 1696 10 1696 10 1727.5 68 c 128,-1,125
 1759 126 1759 126 1779 171 c 1,126,-1
 1837 171 l 1,22,23
EndSplineSet
Validated: 33
EndChar

StartChar: A
Encoding: 65 65 32
Width: 1472
GlyphClass: 2
Flags: W
AnchorPoint: "Anchor-4" 1472 941 basechar 0
AnchorPoint: "Anchor-3" 1300 0 basechar 0
AnchorPoint: "Anchor-2" 735 0 basechar 0
AnchorPoint: "Anchor-1" 735 -100 basechar 0
AnchorPoint: "Anchor-0" 735 1435 basechar 0
LayerCount: 2
Fore
SplineSet
922 0 m 1,0,-1
 922 38 l 1,1,2
 993 39 993 39 1023 58.5 c 128,-1,3
 1053 78 1053 78 1058 109 c 128,-1,4
 1063 140 1063 140 1049.5 179.5 c 128,-1,5
 1036 219 1036 219 1019 260 c 2,6,-1
 938 455 l 1,7,-1
 412 455 l 1,8,-1
 320 239 l 2,9,10
 301 193 301 193 291 158 c 128,-1,11
 281 123 281 123 291.5 98 c 128,-1,12
 302 73 302 73 337.5 58.5 c 128,-1,13
 373 44 373 44 444 38 c 1,14,-1
 444 0 l 1,15,-1
 15 0 l 1,16,-1
 15 38 l 1,17,18
 58 41 58 41 90 56.5 c 128,-1,19
 122 72 122 72 147.5 101 c 128,-1,20
 173 130 173 130 195 172.5 c 128,-1,21
 217 215 217 215 241 270 c 2,22,-1
 717 1388 l 1,23,-1
 753 1388 l 1,24,-1
 1224 260 l 2,25,26
 1254 189 1254 189 1278 146.5 c 128,-1,27
 1302 104 1302 104 1327.5 81 c 128,-1,28
 1353 58 1353 58 1383.5 49.5 c 128,-1,29
 1414 41 1414 41 1456 38 c 1,30,-1
 1456 0 l 1,31,-1
 922 0 l 1,0,-1
680 1078 m 1,32,-1
 444 528 l 1,33,-1
 910 528 l 1,34,-1
 680 1078 l 1,32,-1
EndSplineSet
Validated: 33
EndChar

StartChar: B
Encoding: 66 66 33
Width: 1332
GlyphClass: 2
Flags: W
AnchorPoint: "Anchor-4" 1332 941 basechar 0
AnchorPoint: "Anchor-3" 645 -100 basechar 0
AnchorPoint: "Anchor-2" 645 -100 basechar 0
AnchorPoint: "Anchor-1" 645 -100 basechar 0
AnchorPoint: "Anchor-0" 645 1435 basechar 0
LayerCount: 2
Fore
SplineSet
1254 371 m 0,0,1
 1254 335 1254 335 1245 298 c 128,-1,2
 1236 261 1236 261 1219 225 c 128,-1,3
 1202 189 1202 189 1176 156.5 c 128,-1,4
 1150 124 1150 124 1117 98 c 0,5,6
 1085 73 1085 73 1044.5 54.5 c 128,-1,7
 1004 36 1004 36 950.5 24 c 128,-1,8
 897 12 897 12 829 6 c 128,-1,9
 761 0 761 0 674 0 c 2,10,-1
 36 0 l 1,11,-1
 36 38 l 1,12,-1
 85 38 l 2,13,14
 169 38 169 38 207 92 c 0,15,16
 217 109 217 109 223 146 c 128,-1,17
 229 183 229 183 229 241 c 2,18,-1
 229 1117 l 2,19,20
 229 1243 229 1243 201 1277 c 0,21,22
 181 1298 181 1298 153 1309 c 128,-1,23
 125 1320 125 1320 85 1320 c 2,24,-1
 36 1320 l 1,25,-1
 36 1356 l 1,26,-1
 621 1356 l 2,27,28
 741 1356 741 1356 829.5 1340.5 c 128,-1,29
 918 1325 918 1325 981.5 1298 c 128,-1,30
 1045 1271 1045 1271 1086 1235 c 128,-1,31
 1127 1199 1127 1199 1150.5 1159 c 128,-1,32
 1174 1119 1174 1119 1183 1076.5 c 128,-1,33
 1192 1034 1192 1034 1192 993 c 0,34,35
 1192 944 1192 944 1176.5 898 c 128,-1,36
 1161 852 1161 852 1130.5 813 c 128,-1,37
 1100 774 1100 774 1054 743.5 c 128,-1,38
 1008 713 1008 713 946 694 c 1,39,40
 1026 679 1026 679 1084 648 c 128,-1,41
 1142 617 1142 617 1180 575 c 128,-1,42
 1218 533 1218 533 1236 481 c 128,-1,43
 1254 429 1254 429 1254 371 c 0,0,1
982 1003 m 0,44,45
 982 1061 982 1061 959 1113 c 128,-1,46
 936 1165 936 1165 888.5 1204 c 128,-1,47
 841 1243 841 1243 770 1266 c 128,-1,48
 699 1289 699 1289 603 1289 c 0,49,50
 552 1289 552 1289 507 1284.5 c 128,-1,51
 462 1280 462 1280 422 1269 c 1,52,-1
 422 747 l 1,53,54
 461 738 461 738 507 735.5 c 128,-1,55
 553 733 553 733 613 733 c 0,56,57
 712 733 712 733 782 751.5 c 128,-1,58
 852 770 852 770 896.5 804.5 c 128,-1,59
 941 839 941 839 961.5 889 c 128,-1,60
 982 939 982 939 982 1003 c 0,44,45
1023 355 m 0,61,62
 1023 423 1023 423 995.5 479.5 c 128,-1,63
 968 536 968 536 914.5 577 c 128,-1,64
 861 618 861 618 782 641 c 128,-1,65
 703 664 703 664 600 664 c 0,66,67
 536 664 536 664 493 662 c 128,-1,68
 450 660 450 660 422 654 c 1,69,-1
 422 98 l 1,70,71
 481 85 481 85 538 78 c 128,-1,72
 595 71 595 71 653 71 c 0,73,74
 743 71 743 71 812 92 c 128,-1,75
 881 113 881 113 928 151 c 128,-1,76
 975 189 975 189 999 241 c 128,-1,77
 1023 293 1023 293 1023 355 c 0,61,62
EndSplineSet
Validated: 1
EndChar

StartChar: C
Encoding: 67 67 34
Width: 1368
GlyphClass: 2
Flags: W
AnchorPoint: "Anchor-4" 1368 941 basechar 0
AnchorPoint: "Anchor-3" 740 -100 basechar 0
AnchorPoint: "Anchor-2" 684 0 basechar 0
AnchorPoint: "Anchor-1" 740 -100 basechar 0
AnchorPoint: "Anchor-0" 740 1435 basechar 0
LayerCount: 2
Fore
SplineSet
1295 318 m 1,0,1
 1245 229 1245 229 1187 163.5 c 128,-1,2
 1129 98 1129 98 1060 54.5 c 128,-1,3
 991 11 991 11 910 -10.5 c 128,-1,4
 829 -32 829 -32 733 -32 c 0,5,6
 629 -32 629 -32 540 -6.5 c 128,-1,7
 451 19 451 19 377.5 64.5 c 128,-1,8
 304 110 304 110 247.5 174 c 128,-1,9
 191 238 191 238 152 314.5 c 128,-1,10
 113 391 113 391 93 478.5 c 128,-1,11
 73 566 73 566 73 658 c 0,12,13
 73 806 73 806 122.5 938.5 c 128,-1,14
 172 1071 172 1071 262.5 1171 c 128,-1,15
 353 1271 353 1271 481 1329.5 c 128,-1,16
 609 1388 609 1388 765 1388 c 0,17,18
 842 1388 842 1388 900.5 1373 c 128,-1,19
 959 1358 959 1358 1001.5 1340.5 c 128,-1,20
 1044 1323 1044 1323 1072 1308 c 128,-1,21
 1100 1293 1100 1293 1115 1293 c 0,22,23
 1142 1293 1142 1293 1164.5 1316.5 c 128,-1,24
 1187 1340 1187 1340 1198 1388 c 1,25,-1
 1234 1388 l 1,26,-1
 1266 927 l 1,27,-1
 1234 927 l 1,28,29
 1203 1031 1203 1031 1158 1105 c 128,-1,30
 1113 1179 1113 1179 1055.5 1226 c 128,-1,31
 998 1273 998 1273 929 1295 c 128,-1,32
 860 1317 860 1317 781 1317 c 0,33,34
 676 1317 676 1317 588 1277.5 c 128,-1,35
 500 1238 500 1238 436.5 1156 c 128,-1,36
 373 1074 373 1074 337 950 c 128,-1,37
 301 826 301 826 301 656 c 0,38,39
 301 511 301 511 337.5 399 c 128,-1,40
 374 287 374 287 441 211 c 128,-1,41
 508 135 508 135 601.5 96 c 128,-1,42
 695 57 695 57 810 57 c 0,43,44
 877 57 877 57 934 69.5 c 128,-1,45
 991 82 991 82 1045 113.5 c 128,-1,46
 1099 145 1099 145 1152.5 199.5 c 128,-1,47
 1206 254 1206 254 1266 339 c 1,48,-1
 1295 318 l 1,0,1
EndSplineSet
Validated: 1
EndChar

StartChar: D
Encoding: 68 68 35
Width: 1480
GlyphClass: 2
Flags: W
AnchorPoint: "Anchor-4" 1480 941 basechar 0
AnchorPoint: "Anchor-3" 718 -100 basechar 0
AnchorPoint: "Anchor-2" 718 -100 basechar 0
AnchorPoint: "Anchor-1" 718 -100 basechar 0
AnchorPoint: "Anchor-0" 718 1435 basechar 0
LayerCount: 2
Fore
SplineSet
1401 686 m 0,0,1
 1401 543 1401 543 1356 418 c 128,-1,2
 1311 293 1311 293 1218 200 c 128,-1,3
 1125 107 1125 107 982 53.5 c 128,-1,4
 839 0 839 0 643 0 c 2,5,-1
 36 0 l 1,6,-1
 36 38 l 1,7,-1
 87 38 l 2,8,9
 130 38 130 38 160.5 51 c 128,-1,10
 191 64 191 64 207 92 c 0,11,12
 217 109 217 109 223 146 c 128,-1,13
 229 183 229 183 229 241 c 2,14,-1
 229 1117 l 2,15,16
 229 1242 229 1242 203 1277 c 1,17,18
 182 1298 182 1298 153.5 1309 c 128,-1,19
 125 1320 125 1320 87 1320 c 2,20,-1
 36 1320 l 1,21,-1
 36 1356 l 1,22,-1
 587 1356 l 2,23,24
 700 1356 700 1356 790.5 1347 c 128,-1,25
 881 1338 881 1338 954 1318.5 c 128,-1,26
 1027 1299 1027 1299 1085.5 1268.5 c 128,-1,27
 1144 1238 1144 1238 1192 1196 c 0,28,29
 1239 1154 1239 1154 1277.5 1099 c 128,-1,30
 1316 1044 1316 1044 1343.5 979 c 128,-1,31
 1371 914 1371 914 1386 840 c 128,-1,32
 1401 766 1401 766 1401 686 c 0,0,1
1175 676 m 0,33,34
 1175 817 1175 817 1134 929 c 128,-1,35
 1093 1041 1093 1041 1020.5 1119 c 128,-1,36
 948 1197 948 1197 847.5 1239 c 128,-1,37
 747 1281 747 1281 627 1281 c 0,38,39
 582 1281 582 1281 531.5 1274.5 c 128,-1,40
 481 1268 481 1268 422 1251 c 1,41,-1
 422 98 l 1,42,43
 485 85 485 85 538 77 c 128,-1,44
 591 69 591 69 634 69 c 0,45,46
 749 68 749 68 848 109.5 c 128,-1,47
 947 151 947 151 1019.5 229.5 c 128,-1,48
 1092 308 1092 308 1133.5 421 c 128,-1,49
 1175 534 1175 534 1175 676 c 0,33,34
EndSplineSet
Validated: 33
EndChar

StartChar: E
Encoding: 69 69 36
Width: 1251
GlyphClass: 2
Flags: W
AnchorPoint: "Anchor-4" 1251 1100 basechar 0
AnchorPoint: "Anchor-3" 1044 0 basechar 0
AnchorPoint: "Anchor-2" 624 0 basechar 0
AnchorPoint: "Anchor-1" 624 -100 basechar 0
AnchorPoint: "Anchor-0" 624 1435 basechar 0
LayerCount: 2
Fore
SplineSet
1088 0 m 1,0,-1
 43 0 l 1,1,-1
 43 38 l 1,2,-1
 90 38 l 2,3,4
 99 38 99 38 112.5 39.5 c 128,-1,5
 126 41 126 41 141.5 44.5 c 128,-1,6
 157 48 157 48 172 54 c 128,-1,7
 187 60 187 60 197 69 c 256,8,9
 207 78 207 78 214.5 89 c 128,-1,10
 222 100 222 100 227 119 c 128,-1,11
 232 138 232 138 234.5 167 c 128,-1,12
 237 196 237 196 237 241 c 2,13,-1
 237 1121 l 2,14,15
 237 1187 237 1187 230 1226.5 c 128,-1,16
 223 1266 223 1266 211 1279 c 0,17,18
 175 1320 175 1320 90 1320 c 2,19,-1
 43 1320 l 1,20,-1
 43 1356 l 1,21,-1
 1088 1356 l 1,22,-1
 1104 1061 l 1,23,-1
 1064 1061 l 1,24,25
 1057 1090 1057 1090 1051.5 1117.5 c 128,-1,26
 1046 1145 1046 1145 1036.5 1170 c 128,-1,27
 1027 1195 1027 1195 1012 1215.5 c 128,-1,28
 997 1236 997 1236 970.5 1251 c 128,-1,29
 944 1266 944 1266 903.5 1274.5 c 128,-1,30
 863 1283 863 1283 803 1283 c 2,31,-1
 427 1283 l 1,32,-1
 427 747 l 1,33,-1
 726 747 l 2,34,35
 795 747 795 747 834.5 758 c 128,-1,36
 874 769 874 769 895 793 c 128,-1,37
 916 817 916 817 924.5 854 c 128,-1,38
 933 891 933 891 940 942 c 1,39,-1
 978 942 l 1,40,-1
 978 471 l 1,41,-1
 940 471 l 1,42,43
 933 524 933 524 924 562 c 128,-1,44
 915 600 915 600 894 624.5 c 128,-1,45
 873 649 873 649 834 660.5 c 128,-1,46
 795 672 795 672 726 672 c 2,47,-1
 427 672 l 1,48,-1
 427 164 l 2,49,50
 427 137 427 137 436.5 116.5 c 128,-1,51
 446 96 446 96 470 84.5 c 128,-1,52
 494 73 494 73 542 73 c 2,53,-1
 771 73 l 2,54,55
 826 73 826 73 868 77.5 c 128,-1,56
 910 82 910 82 943.5 93 c 128,-1,57
 977 104 977 104 1003.5 123.5 c 128,-1,58
 1030 143 1030 143 1055.5 172.5 c 128,-1,59
 1081 202 1081 202 1107 243.5 c 128,-1,60
 1133 285 1133 285 1165 341 c 1,61,-1
 1206 341 l 1,62,-1
 1088 0 l 1,0,-1
EndSplineSet
Validated: 1
EndChar

StartChar: F
Encoding: 70 70 37
Width: 1139
GlyphClass: 2
Flags: W
AnchorPoint: "Anchor-4" 1139 941 basechar 0
AnchorPoint: "Anchor-3" 545 -100 basechar 0
AnchorPoint: "Anchor-2" 545 -100 basechar 0
AnchorPoint: "Anchor-1" 545 -100 basechar 0
AnchorPoint: "Anchor-0" 545 1435 basechar 0
LayerCount: 2
Fore
SplineSet
1021 1061 m 1,0,1
 1003 1123 1003 1123 981.5 1165.5 c 128,-1,2
 960 1208 960 1208 926.5 1234 c 128,-1,3
 893 1260 893 1260 843.5 1271.5 c 128,-1,4
 794 1283 794 1283 720 1283 c 2,5,-1
 420 1283 l 1,6,-1
 420 751 l 1,7,-1
 666 751 l 2,8,9
 710 751 710 751 740.5 760 c 128,-1,10
 771 769 771 769 791.5 790 c 128,-1,11
 812 811 812 811 824.5 846.5 c 128,-1,12
 837 882 837 882 844 934 c 1,13,-1
 881 934 l 1,14,-1
 881 475 l 1,15,-1
 844 475 l 1,16,17
 844 523 844 523 835.5 559 c 128,-1,18
 827 595 827 595 806.5 618.5 c 128,-1,19
 786 642 786 642 751.5 654 c 128,-1,20
 717 666 717 666 666 666 c 2,21,-1
 420 666 l 1,22,-1
 420 241 l 2,23,24
 420 175 420 175 423.5 139.5 c 128,-1,25
 427 104 427 104 442 89 c 0,26,27
 462 63 462 63 496.5 50.5 c 128,-1,28
 531 38 531 38 566 38 c 2,29,-1
 615 38 l 1,30,-1
 615 0 l 1,31,-1
 34 0 l 1,32,-1
 34 38 l 1,33,-1
 83 38 l 2,34,35
 163 38 163 38 203 87 c 0,36,37
 227 119 227 119 227 241 c 2,38,-1
 227 1117 l 2,39,40
 227 1154 227 1154 225.5 1180.5 c 128,-1,41
 224 1207 224 1207 220.5 1225.5 c 128,-1,42
 217 1244 217 1244 211.5 1256 c 128,-1,43
 206 1268 206 1268 199 1275 c 0,44,45
 178 1296 178 1296 146.5 1308 c 128,-1,46
 115 1320 115 1320 83 1320 c 2,47,-1
 34 1320 l 1,48,-1
 34 1356 l 1,49,-1
 1042 1356 l 1,50,-1
 1057 1061 l 1,51,-1
 1021 1061 l 1,0,1
EndSplineSet
Validated: 1
EndChar

StartChar: G
Encoding: 71 71 38
Width: 1480
GlyphClass: 2
Flags: W
AnchorPoint: "Anchor-4" 1480 941 basechar 0
AnchorPoint: "Anchor-3" 760 -100 basechar 0
AnchorPoint: "Anchor-2" 761 0 basechar 0
AnchorPoint: "Anchor-1" 760 -100 basechar 0
AnchorPoint: "Anchor-0" 760 1435 basechar 0
LayerCount: 2
Fore
SplineSet
1427 704 m 2,0,1
 1386 704 1386 704 1360 690.5 c 128,-1,2
 1334 677 1334 677 1320 651 c 0,3,4
 1309 633 1309 633 1304 596 c 128,-1,5
 1299 559 1299 559 1299 504 c 2,6,-1
 1299 90 l 1,7,8
 1186 25 1186 25 1068 -3.5 c 128,-1,9
 950 -32 950 -32 822 -32 c 0,10,11
 645 -32 645 -32 506 21.5 c 128,-1,12
 367 75 367 75 270 168 c 128,-1,13
 173 261 173 261 122 387 c 128,-1,14
 71 513 71 513 71 658 c 0,15,16
 71 741 71 741 91.5 827.5 c 128,-1,17
 112 914 112 914 153 995 c 128,-1,18
 194 1076 194 1076 254.5 1147.5 c 128,-1,19
 315 1219 315 1219 395 1272.5 c 128,-1,20
 475 1326 475 1326 574 1357 c 128,-1,21
 673 1388 673 1388 790 1388 c 0,22,23
 875 1388 875 1388 938.5 1374.5 c 128,-1,24
 1002 1361 1002 1361 1048 1344.5 c 128,-1,25
 1094 1328 1094 1328 1124 1314.5 c 128,-1,26
 1154 1301 1154 1301 1173 1301 c 0,27,28
 1179 1301 1179 1301 1186.5 1304.5 c 128,-1,29
 1194 1308 1194 1308 1201 1318 c 128,-1,30
 1208 1328 1208 1328 1213.5 1344.5 c 128,-1,31
 1219 1361 1219 1361 1222 1388 c 1,32,-1
 1260 1388 l 1,33,-1
 1293 960 l 1,34,-1
 1260 960 l 1,35,36
 1227 1057 1227 1057 1181.5 1125 c 128,-1,37
 1136 1193 1136 1193 1078.5 1236 c 128,-1,38
 1021 1279 1021 1279 953.5 1298.5 c 128,-1,39
 886 1318 886 1318 810 1318 c 0,40,41
 687 1318 687 1318 592 1271 c 128,-1,42
 497 1224 497 1224 432.5 1141 c 128,-1,43
 368 1058 368 1058 335 945.5 c 128,-1,44
 302 833 302 833 301 702 c 0,45,46
 300 605 300 605 318 518 c 128,-1,47
 336 431 336 431 369 357.5 c 128,-1,48
 402 284 402 284 449.5 224.5 c 128,-1,49
 497 165 497 165 555 123.5 c 128,-1,50
 613 82 613 82 681 60 c 128,-1,51
 749 38 749 38 824 38 c 0,52,53
 896 38 896 38 966.5 55 c 128,-1,54
 1037 72 1037 72 1104 113 c 1,55,-1
 1104 504 l 2,56,57
 1104 568 1104 568 1097 606.5 c 128,-1,58
 1090 645 1090 645 1070.5 666 c 128,-1,59
 1051 687 1051 687 1016.5 694.5 c 128,-1,60
 982 702 982 702 927 704 c 1,61,-1
 927 739 l 1,62,-1
 1450 739 l 1,63,-1
 1450 704 l 1,64,-1
 1427 704 l 2,0,1
EndSplineSet
Validated: 33
EndChar

StartChar: H
Encoding: 72 72 39
Width: 1480
GlyphClass: 2
Flags: W
AnchorPoint: "Anchor-4" 1480 941 basechar 0
AnchorPoint: "Anchor-3" 737 -100 basechar 0
AnchorPoint: "Anchor-2" 320 0 basechar 0
AnchorPoint: "Anchor-1" 737 -100 basechar 0
AnchorPoint: "Anchor-0" 737 1435 basechar 0
LayerCount: 2
Fore
SplineSet
857 0 m 1,0,-1
 857 38 l 1,1,-1
 907 38 l 2,2,3
 990 38 990 38 1027 87 c 0,4,5
 1038 102 1038 102 1045.5 140 c 128,-1,6
 1053 178 1053 178 1053 241 c 2,7,-1
 1053 654 l 1,8,-1
 420 654 l 1,9,-1
 420 241 l 2,10,11
 420 172 420 172 426 137 c 128,-1,12
 432 102 432 102 446 85 c 0,13,14
 463 64 463 64 498 51 c 128,-1,15
 533 38 533 38 568 38 c 2,16,-1
 617 38 l 1,17,-1
 617 0 l 1,18,-1
 36 0 l 1,19,-1
 36 38 l 1,20,-1
 85 38 l 2,21,22
 165 38 165 38 205 87 c 0,23,24
 229 119 229 119 229 241 c 2,25,-1
 229 1117 l 2,26,27
 229 1153 229 1153 227.5 1178.5 c 128,-1,28
 226 1204 226 1204 223 1222 c 128,-1,29
 220 1240 220 1240 214.5 1252.5 c 128,-1,30
 209 1265 209 1265 201 1275 c 0,31,32
 194 1284 194 1284 180.5 1292 c 128,-1,33
 167 1300 167 1300 150.5 1306.5 c 128,-1,34
 134 1313 134 1313 117 1316.5 c 128,-1,35
 100 1320 100 1320 85 1320 c 2,36,-1
 36 1320 l 1,37,-1
 36 1356 l 1,38,-1
 617 1356 l 1,39,-1
 617 1320 l 1,40,-1
 568 1320 l 2,41,42
 534 1320 534 1320 503 1310.5 c 128,-1,43
 472 1301 472 1301 451 1277 c 0,44,45
 444 1269 444 1269 438 1257.5 c 128,-1,46
 432 1246 432 1246 428 1227.5 c 128,-1,47
 424 1209 424 1209 422 1182.5 c 128,-1,48
 420 1156 420 1156 420 1117 c 2,49,-1
 420 728 l 1,50,-1
 1053 728 l 1,51,-1
 1053 1117 l 2,52,53
 1053 1191 1053 1191 1045 1227 c 128,-1,54
 1037 1263 1037 1263 1023 1277 c 0,55,56
 1003 1297 1003 1297 972 1308.5 c 128,-1,57
 941 1320 941 1320 907 1320 c 2,58,-1
 857 1320 l 1,59,-1
 857 1356 l 1,60,-1
 1439 1356 l 1,61,-1
 1439 1320 l 1,62,-1
 1390 1320 l 2,63,64
 1360 1320 1360 1320 1327 1309 c 128,-1,65
 1294 1298 1294 1298 1273 1277 c 0,66,67
 1262 1265 1262 1265 1256 1253.5 c 128,-1,68
 1250 1242 1250 1242 1247 1225 c 128,-1,69
 1244 1208 1244 1208 1243.5 1182.5 c 128,-1,70
 1243 1157 1243 1157 1243 1117 c 2,71,-1
 1243 241 l 2,72,73
 1243 208 1243 208 1243.5 184 c 128,-1,74
 1244 160 1244 160 1246.5 142 c 128,-1,75
 1249 124 1249 124 1254 111 c 128,-1,76
 1259 98 1259 98 1267 87 c 0,77,78
 1285 61 1285 61 1320 49.5 c 128,-1,79
 1355 38 1355 38 1390 38 c 2,80,-1
 1439 38 l 1,81,-1
 1439 0 l 1,82,-1
 857 0 l 1,0,-1
EndSplineSet
Validated: 1
EndChar

StartChar: I
Encoding: 73 73 40
Width: 682
GlyphClass: 2
Flags: W
AnchorPoint: "Anchor-4" 682 1100 basechar 0
AnchorPoint: "Anchor-3" 510 0 basechar 0
AnchorPoint: "Anchor-2" 341 0 basechar 0
AnchorPoint: "Anchor-1" 341 -100 basechar 0
AnchorPoint: "Anchor-0" 341 1435 basechar 0
LayerCount: 2
Fore
SplineSet
51 0 m 1,0,-1
 51 38 l 1,1,-1
 100 38 l 2,2,3
 142 38 142 38 171 49.5 c 128,-1,4
 200 61 200 61 220 87 c 0,5,6
 244 115 244 115 244 241 c 2,7,-1
 244 1117 l 2,8,9
 244 1152 244 1152 243.5 1176.5 c 128,-1,10
 243 1201 243 1201 241 1218.5 c 128,-1,11
 239 1236 239 1236 234.5 1248 c 128,-1,12
 230 1260 230 1260 222 1269 c 0,13,14
 203 1293 203 1293 169 1306.5 c 128,-1,15
 135 1320 135 1320 100 1320 c 2,16,-1
 51 1320 l 1,17,-1
 51 1356 l 1,18,-1
 632 1356 l 1,19,-1
 632 1320 l 1,20,-1
 583 1320 l 2,21,22
 503 1320 503 1320 463 1271 c 0,23,24
 452 1254 452 1254 445 1216 c 128,-1,25
 438 1178 438 1178 438 1117 c 2,26,-1
 438 241 l 2,27,28
 438 175 438 175 444 139 c 128,-1,29
 450 103 450 103 461 85 c 0,30,31
 466 77 466 77 479 68.5 c 128,-1,32
 492 60 492 60 509.5 53.5 c 128,-1,33
 527 47 527 47 546 42.5 c 128,-1,34
 565 38 565 38 583 38 c 2,35,-1
 632 38 l 1,36,-1
 632 0 l 1,37,-1
 51 0 l 1,0,-1
EndSplineSet
Validated: 1
EndChar

StartChar: J
Encoding: 74 74 41
Width: 798
GlyphClass: 2
Flags: W
AnchorPoint: "Anchor-4" 798 941 basechar 0
AnchorPoint: "Anchor-3" 413 -100 basechar 0
AnchorPoint: "Anchor-2" 413 -100 basechar 0
AnchorPoint: "Anchor-1" 413 -100 basechar 0
AnchorPoint: "Anchor-0" 495 1435 basechar 0
LayerCount: 2
Fore
SplineSet
735 1320 m 2,0,1
 693 1320 693 1320 664.5 1307.5 c 128,-1,2
 636 1295 636 1295 615 1271 c 0,3,4
 591 1236 591 1236 591 1117 c 2,5,-1
 591 453 l 2,6,7
 591 349 591 349 574 273 c 128,-1,8
 557 197 557 197 529 143 c 128,-1,9
 501 89 501 89 464.5 55 c 128,-1,10
 428 21 428 21 389.5 1.5 c 128,-1,11
 351 -18 351 -18 313 -25 c 128,-1,12
 275 -32 275 -32 244 -32 c 0,13,14
 194 -32 194 -32 156.5 -19 c 128,-1,15
 119 -6 119 -6 93.5 16 c 128,-1,16
 68 38 68 38 55.5 65.5 c 128,-1,17
 43 93 43 93 43 122 c 0,18,19
 43 149 43 149 51.5 169 c 128,-1,20
 60 189 60 189 74 202 c 128,-1,21
 88 215 88 215 106.5 221 c 128,-1,22
 125 227 125 227 144 227 c 0,23,24
 174 227 174 227 194 213 c 128,-1,25
 214 199 214 199 227 178 c 128,-1,26
 240 157 240 157 249.5 133 c 128,-1,27
 259 109 259 109 269 88 c 128,-1,28
 279 67 279 67 292 53 c 128,-1,29
 305 39 305 39 325 39 c 0,30,31
 338 39 338 39 351 47 c 128,-1,32
 364 55 364 55 375 73 c 128,-1,33
 386 91 386 91 393 120.5 c 128,-1,34
 400 150 400 150 400 192 c 2,35,-1
 400 1117 l 2,36,37
 400 1177 400 1177 396.5 1211.5 c 128,-1,38
 393 1246 393 1246 380 1266 c 0,39,40
 374 1276 374 1276 361 1286 c 128,-1,41
 348 1296 348 1296 330.5 1303.5 c 128,-1,42
 313 1311 313 1311 292.5 1315.5 c 128,-1,43
 272 1320 272 1320 252 1320 c 2,44,-1
 205 1320 l 1,45,-1
 205 1356 l 1,46,-1
 784 1356 l 1,47,-1
 784 1320 l 1,48,-1
 735 1320 l 2,0,1
EndSplineSet
Validated: 1
EndChar

StartChar: K
Encoding: 75 75 42
Width: 1480
GlyphClass: 2
Flags: W
AnchorPoint: "Anchor-4" 1480 941 basechar 0
AnchorPoint: "Anchor-3" 766 -100 basechar 0
AnchorPoint: "Anchor-2" 320 0 basechar 0
AnchorPoint: "Anchor-1" 766 -100 basechar 0
AnchorPoint: "Anchor-0" 766 1435 basechar 0
LayerCount: 2
Fore
SplineSet
852 0 m 1,0,-1
 852 38 l 1,1,2
 910 38 910 38 934.5 56 c 128,-1,3
 959 74 959 74 961 100 c 0,4,5
 965 121 965 121 948 145 c 128,-1,6
 931 169 931 169 887 213 c 2,7,-1
 479 619 l 1,8,-1
 420 560 l 1,9,-1
 420 241 l 2,10,11
 420 208 420 208 421 184 c 128,-1,12
 422 160 422 160 424.5 142 c 128,-1,13
 427 124 427 124 431.5 111 c 128,-1,14
 436 98 436 98 444 87 c 0,15,16
 461 63 461 63 495 50.5 c 128,-1,17
 529 38 529 38 566 38 c 2,18,-1
 613 38 l 1,19,-1
 613 0 l 1,20,-1
 36 0 l 1,21,-1
 36 38 l 1,22,-1
 83 38 l 2,23,24
 165 38 165 38 205 87 c 0,25,26
 227 116 227 116 227 241 c 2,27,-1
 227 1117 l 2,28,29
 227 1186 227 1186 220.5 1223.5 c 128,-1,30
 214 1261 214 1261 201 1277 c 0,31,32
 195 1284 195 1284 182 1291.5 c 128,-1,33
 169 1299 169 1299 152.5 1305.5 c 128,-1,34
 136 1312 136 1312 117.5 1316 c 128,-1,35
 99 1320 99 1320 83 1320 c 2,36,-1
 36 1320 l 1,37,-1
 36 1356 l 1,38,-1
 613 1356 l 1,39,-1
 613 1320 l 1,40,-1
 566 1320 l 2,41,42
 536 1320 536 1320 505 1311 c 128,-1,43
 474 1302 474 1302 453 1281 c 0,44,45
 445 1273 445 1273 439 1262.5 c 128,-1,46
 433 1252 433 1252 428.5 1234 c 128,-1,47
 424 1216 424 1216 422 1188 c 128,-1,48
 420 1160 420 1160 420 1117 c 2,49,-1
 420 692 l 1,50,51
 431 701 431 701 464.5 732 c 128,-1,52
 498 763 498 763 558 818 c 0,53,54
 707 956 707 956 796 1051.5 c 128,-1,55
 885 1147 885 1147 916 1192 c 0,56,57
 942 1230 942 1230 942 1264 c 0,58,59
 942 1284 942 1284 922 1302 c 128,-1,60
 902 1320 902 1320 852 1320 c 2,61,-1
 820 1320 l 1,62,-1
 820 1356 l 1,63,-1
 1320 1356 l 1,64,-1
 1320 1320 l 1,65,66
 1299 1320 1299 1320 1280 1318 c 128,-1,67
 1261 1316 1261 1316 1241.5 1310 c 128,-1,68
 1222 1304 1222 1304 1200 1293.5 c 128,-1,69
 1178 1283 1178 1283 1151 1266 c 0,70,71
 1129 1252 1129 1252 1113.5 1242 c 128,-1,72
 1098 1232 1098 1232 1083 1219.5 c 128,-1,73
 1068 1207 1068 1207 1049 1189 c 128,-1,74
 1030 1171 1030 1171 1000.5 1141.5 c 128,-1,75
 971 1112 971 1112 928 1068.5 c 128,-1,76
 885 1025 885 1025 820 960 c 2,77,-1
 613 753 l 1,78,-1
 1113 254 l 2,79,80
 1236 131 1236 131 1324 87 c 0,81,82
 1368 64 1368 64 1410.5 53 c 128,-1,83
 1453 42 1453 42 1497 38 c 1,84,-1
 1497 0 l 1,85,-1
 852 0 l 1,0,-1
EndSplineSet
Validated: 1
EndChar

StartChar: L
Encoding: 76 76 43
Width: 1251
GlyphClass: 2
Flags: W
AnchorPoint: "Anchor-4" 751 900 basechar 0
AnchorPoint: "Anchor-3" 624 -100 basechar 0
AnchorPoint: "Anchor-2" 624 0 basechar 0
AnchorPoint: "Anchor-1" 624 -100 basechar 0
AnchorPoint: "Anchor-0" 624 1435 basechar 0
LayerCount: 2
Fore
SplineSet
1092 0 m 1,0,-1
 38 0 l 1,1,-1
 38 38 l 1,2,3
 82 38 82 38 119 43 c 128,-1,4
 156 48 156 48 182 65 c 128,-1,5
 208 82 208 82 222.5 115.5 c 128,-1,6
 237 149 237 149 237 207 c 2,7,-1
 237 1149 l 2,8,9
 237 1207 237 1207 222.5 1240.5 c 128,-1,10
 208 1274 208 1274 182 1291.5 c 128,-1,11
 156 1309 156 1309 119 1313.5 c 128,-1,12
 82 1318 82 1318 38 1318 c 1,13,-1
 38 1356 l 1,14,-1
 627 1356 l 1,15,-1
 627 1318 l 1,16,17
 582 1318 582 1318 545.5 1313.5 c 128,-1,18
 509 1309 509 1309 482.5 1291.5 c 128,-1,19
 456 1274 456 1274 441.5 1240.5 c 128,-1,20
 427 1207 427 1207 427 1149 c 2,21,-1
 427 256 l 2,22,23
 427 198 427 198 437 164.5 c 128,-1,24
 447 131 447 131 468 114 c 128,-1,25
 489 97 489 97 521 92 c 128,-1,26
 553 87 553 87 598 87 c 2,27,-1
 735 87 l 2,28,29
 797 87 797 87 841.5 89 c 128,-1,30
 886 91 886 91 919 97.5 c 128,-1,31
 952 104 952 104 977 115.5 c 128,-1,32
 1002 127 1002 127 1023 146 c 0,33,34
 1049 168 1049 168 1068.5 189.5 c 128,-1,35
 1088 211 1088 211 1105.5 237 c 128,-1,36
 1123 263 1123 263 1139.5 296 c 128,-1,37
 1156 329 1156 329 1175 374 c 1,38,-1
 1210 369 l 1,39,-1
 1092 0 l 1,0,-1
EndSplineSet
Validated: 1
EndChar

StartChar: M
Encoding: 77 77 44
Width: 1823
GlyphClass: 2
Flags: W
AnchorPoint: "Anchor-4" 1823 941 basechar 0
AnchorPoint: "Anchor-3" 907 -100 basechar 0
AnchorPoint: "Anchor-2" 1500 0 basechar 0
AnchorPoint: "Anchor-1" 907 -100 basechar 0
AnchorPoint: "Anchor-0" 907 1435 basechar 0
LayerCount: 2
Fore
SplineSet
1202 0 m 1,0,-1
 1202 38 l 1,1,-1
 1249 38 l 2,2,3
 1296 38 1296 38 1325 50 c 128,-1,4
 1354 62 1354 62 1373 90 c 0,5,6
 1395 121 1395 121 1395 237 c 2,7,-1
 1395 1141 l 1,8,-1
 871 0 l 1,9,-1
 837 0 l 1,10,-1
 314 1141 l 1,11,-1
 314 237 l 2,12,13
 314 109 314 109 343 79 c 1,14,15
 375 38 375 38 459 38 c 2,16,-1
 506 38 l 1,17,-1
 506 0 l 1,18,-1
 36 0 l 1,19,-1
 36 38 l 1,20,-1
 83 38 l 2,21,22
 126 38 126 38 155 50 c 128,-1,23
 184 62 184 62 205 90 c 0,24,25
 214 106 214 106 219 141.5 c 128,-1,26
 224 177 224 177 224 237 c 2,27,-1
 224 1121 l 2,28,29
 224 1185 224 1185 216 1224 c 128,-1,30
 208 1263 208 1263 181 1283 c 0,31,32
 159 1300 159 1300 127.5 1310 c 128,-1,33
 96 1320 96 1320 36 1320 c 1,34,-1
 36 1356 l 1,35,-1
 418 1356 l 1,36,-1
 910 295 l 1,37,-1
 1395 1356 l 1,38,-1
 1779 1356 l 1,39,-1
 1779 1320 l 1,40,-1
 1732 1320 l 2,41,42
 1647 1320 1647 1320 1608 1269 c 0,43,44
 1598 1251 1598 1251 1592.5 1215 c 128,-1,45
 1587 1179 1587 1179 1587 1121 c 2,46,-1
 1587 237 l 2,47,48
 1587 111 1587 111 1616 79 c 0,49,50
 1651 38 1651 38 1732 38 c 2,51,-1
 1779 38 l 1,52,-1
 1779 0 l 1,53,-1
 1202 0 l 1,0,-1
EndSplineSet
Validated: 1
EndChar

StartChar: N
Encoding: 78 78 45
Width: 1480
GlyphClass: 2
Flags: W
AnchorPoint: "Anchor-4" 1480 941 basechar 0
AnchorPoint: "Anchor-3" 731 -100 basechar 0
AnchorPoint: "Anchor-2" 1224 0 basechar 0
AnchorPoint: "Anchor-1" 731 -100 basechar 0
AnchorPoint: "Anchor-0" 731 1435 basechar 0
LayerCount: 2
Fore
SplineSet
1403 1320 m 2,0,1
 1360 1320 1360 1320 1329 1307.5 c 128,-1,2
 1298 1295 1298 1295 1281 1269 c 0,3,4
 1260 1235 1260 1235 1260 1121 c 2,5,-1
 1260 -22 l 1,6,-1
 1224 -22 l 1,7,-1
 327 1070 l 1,8,-1
 327 237 l 2,9,10
 327 112 327 112 355 79 c 0,11,12
 392 38 392 38 474 38 c 2,13,-1
 521 38 l 1,14,-1
 521 0 l 1,15,-1
 47 0 l 1,16,-1
 47 38 l 1,17,-1
 94 38 l 2,18,19
 139 38 139 38 169.5 50 c 128,-1,20
 200 62 200 62 217 90 c 0,21,22
 229 106 229 106 235 141.5 c 128,-1,23
 241 177 241 177 241 237 c 2,24,-1
 241 1179 l 1,25,26
 231 1190 231 1190 216.5 1213.5 c 128,-1,27
 202 1237 202 1237 176.5 1260.5 c 128,-1,28
 151 1284 151 1284 111.5 1302 c 128,-1,29
 72 1320 72 1320 12 1320 c 1,30,-1
 12 1356 l 1,31,-1
 343 1356 l 1,32,-1
 1171 339 l 1,33,-1
 1171 1121 l 2,34,35
 1171 1250 1171 1250 1143 1277 c 0,36,37
 1106 1320 1106 1320 1025 1320 c 2,38,-1
 980 1320 l 1,39,-1
 980 1356 l 1,40,-1
 1450 1356 l 1,41,-1
 1450 1320 l 1,42,-1
 1403 1320 l 2,0,1
EndSplineSet
Validated: 1
EndChar

StartChar: O
Encoding: 79 79 46
Width: 1480
GlyphClass: 2
Flags: W
AnchorPoint: "Anchor-4" 1400 1320 basechar 0
AnchorPoint: "Anchor-3" 990 0 basechar 0
AnchorPoint: "Anchor-2" 735 0 basechar 0
AnchorPoint: "Anchor-1" 735 -100 basechar 0
AnchorPoint: "Anchor-0" 735 1435 basechar 0
LayerCount: 2
Fore
SplineSet
1399 686 m 256,0,1
 1399 584 1399 584 1376 490.5 c 128,-1,2
 1353 397 1353 397 1310.5 317.5 c 128,-1,3
 1268 238 1268 238 1208 173.5 c 128,-1,4
 1148 109 1148 109 1074 63 c 128,-1,5
 1000 17 1000 17 914 -7.5 c 128,-1,6
 828 -32 828 -32 733 -32 c 0,7,8
 595 -32 595 -32 474.5 19.5 c 128,-1,9
 354 71 354 71 264 165 c 128,-1,10
 174 259 174 259 122.5 390.5 c 128,-1,11
 71 522 71 522 71 682 c 0,12,13
 71 834 71 834 123 963.5 c 128,-1,14
 175 1093 175 1093 266.5 1187.5 c 128,-1,15
 358 1282 358 1282 482 1335 c 128,-1,16
 606 1388 606 1388 751 1388 c 0,17,18
 840 1388 840 1388 922.5 1364 c 128,-1,19
 1005 1340 1005 1340 1077 1296 c 128,-1,20
 1149 1252 1149 1252 1208 1189 c 128,-1,21
 1267 1126 1267 1126 1309.5 1048 c 128,-1,22
 1352 970 1352 970 1375.5 879 c 128,-1,23
 1399 788 1399 788 1399 686 c 256,0,1
1173 660 m 0,24,25
 1174 815 1174 815 1147 937 c 128,-1,26
 1120 1059 1120 1059 1064.5 1143 c 128,-1,27
 1009 1227 1009 1227 925.5 1271.5 c 128,-1,28
 842 1316 842 1316 729 1317 c 0,29,30
 627 1317 627 1317 547.5 1273.5 c 128,-1,31
 468 1230 468 1230 413 1148.5 c 128,-1,32
 358 1067 358 1067 329.5 950.5 c 128,-1,33
 301 834 301 834 301 688 c 0,34,35
 301 544 301 544 329 425 c 128,-1,36
 357 306 357 306 411 220.5 c 128,-1,37
 465 135 465 135 545.5 87.5 c 128,-1,38
 626 40 626 40 731 39 c 0,39,40
 828 39 828 39 909 76 c 128,-1,41
 990 113 990 113 1048.5 189.5 c 128,-1,42
 1107 266 1107 266 1139.5 383 c 128,-1,43
 1172 500 1172 500 1173 660 c 0,24,25
EndSplineSet
Validated: 33
EndChar

StartChar: P
Encoding: 80 80 47
Width: 1139
GlyphClass: 2
Flags: W
AnchorPoint: "Anchor-4" 1139 941 basechar 0
AnchorPoint: "Anchor-3" 552 -100 basechar 0
AnchorPoint: "Anchor-2" 552 -100 basechar 0
AnchorPoint: "Anchor-1" 552 -100 basechar 0
AnchorPoint: "Anchor-0" 552 1435 basechar 0
LayerCount: 2
Fore
SplineSet
1068 982 m 0,0,1
 1068 904 1068 904 1044 835.5 c 128,-1,2
 1020 767 1020 767 964.5 716 c 128,-1,3
 909 665 909 665 818 635.5 c 128,-1,4
 727 606 727 606 593 607 c 2,5,-1
 559 607 l 2,6,7
 544 607 544 607 526 607.5 c 128,-1,8
 508 608 508 608 483.5 610.5 c 128,-1,9
 459 613 459 613 420 617 c 1,10,-1
 420 241 l 2,11,12
 420 177 420 177 426 137 c 128,-1,13
 432 97 432 97 449 83 c 0,14,15
 487 38 487 38 564 38 c 2,16,-1
 615 38 l 1,17,-1
 615 0 l 1,18,-1
 36 0 l 1,19,-1
 36 38 l 1,20,-1
 85 38 l 2,21,22
 127 38 127 38 158 51 c 128,-1,23
 189 64 189 64 207 92 c 0,24,25
 215 108 215 108 221 144.5 c 128,-1,26
 227 181 227 181 227 241 c 2,27,-1
 227 1117 l 2,28,29
 227 1242 227 1242 201 1277 c 0,30,31
 181 1298 181 1298 153 1309 c 128,-1,32
 125 1320 125 1320 85 1320 c 2,33,-1
 36 1320 l 1,34,-1
 36 1356 l 1,35,-1
 530 1356 l 2,36,37
 582 1356 582 1356 635 1353 c 128,-1,38
 688 1350 688 1350 737.5 1340.5 c 128,-1,39
 787 1331 787 1331 832 1314.5 c 128,-1,40
 877 1298 877 1298 912 1271 c 0,41,42
 945 1247 945 1247 973.5 1218.5 c 128,-1,43
 1002 1190 1002 1190 1023 1155 c 128,-1,44
 1044 1120 1044 1120 1056 1077.5 c 128,-1,45
 1068 1035 1068 1035 1068 982 c 0,0,1
839 961 m 0,46,47
 840 1023 840 1023 822 1080.5 c 128,-1,48
 804 1138 804 1138 768 1181.5 c 128,-1,49
 732 1225 732 1225 677.5 1251 c 128,-1,50
 623 1277 623 1277 551 1277 c 0,51,52
 527 1277 527 1277 494 1271.5 c 128,-1,53
 461 1266 461 1266 420 1258 c 1,54,-1
 420 684 l 1,55,56
 472 676 472 676 513 674 c 128,-1,57
 554 672 554 672 583 672 c 0,58,59
 635 672 635 672 681.5 692.5 c 128,-1,60
 728 713 728 713 762.5 751 c 128,-1,61
 797 789 797 789 817.5 842 c 128,-1,62
 838 895 838 895 839 961 c 0,46,47
EndSplineSet
Validated: 33
EndChar

StartChar: Q
Encoding: 81 81 48
Width: 1480
GlyphClass: 2
Flags: W
AnchorPoint: "Anchor-4" 1480 941 basechar 0
AnchorPoint: "Anchor-3" 736 -270 basechar 0
AnchorPoint: "Anchor-2" 736 -270 basechar 0
AnchorPoint: "Anchor-1" 736 -270 basechar 0
AnchorPoint: "Anchor-0" 736 1435 basechar 0
LayerCount: 2
Fore
SplineSet
1401 678 m 0,0,1
 1401 554 1401 554 1365 443 c 128,-1,2
 1329 332 1329 332 1264 242 c 128,-1,3
 1199 152 1199 152 1107 86.5 c 128,-1,4
 1015 21 1015 21 903 -13 c 1,5,6
 953 -100 953 -100 1007 -164 c 128,-1,7
 1061 -228 1061 -228 1121 -271.5 c 128,-1,8
 1181 -315 1181 -315 1248.5 -339 c 128,-1,9
 1316 -363 1316 -363 1394 -369 c 1,10,-1
 1394 -402 l 1,11,12
 1273 -397 1273 -397 1151.5 -362.5 c 128,-1,13
 1030 -328 1030 -328 920 -274.5 c 128,-1,14
 810 -221 810 -221 716.5 -153 c 128,-1,15
 623 -85 623 -85 558 -13 c 1,16,17
 423 34 423 34 330.5 107.5 c 128,-1,18
 238 181 238 181 180 271.5 c 128,-1,19
 122 362 122 362 96.5 466.5 c 128,-1,20
 71 571 71 571 71 680 c 0,21,22
 71 782 71 782 94.5 874.5 c 128,-1,23
 118 967 118 967 161.5 1045.5 c 128,-1,24
 205 1124 205 1124 266.5 1187.5 c 128,-1,25
 328 1251 328 1251 403 1295.5 c 128,-1,26
 478 1340 478 1340 565 1364 c 128,-1,27
 652 1388 652 1388 747 1388 c 0,28,29
 882 1388 882 1388 1001.5 1335.5 c 128,-1,30
 1121 1283 1121 1283 1209.5 1188.5 c 128,-1,31
 1298 1094 1298 1094 1349.5 963.5 c 128,-1,32
 1401 833 1401 833 1401 678 c 0,0,1
1173 653 m 0,33,34
 1173 804 1173 804 1144.5 926 c 128,-1,35
 1116 1048 1116 1048 1060.5 1134 c 128,-1,36
 1005 1220 1005 1220 922.5 1266.5 c 128,-1,37
 840 1313 840 1313 733 1313 c 0,38,39
 633 1313 633 1313 552.5 1272 c 128,-1,40
 472 1231 472 1231 416.5 1151 c 128,-1,41
 361 1071 361 1071 331 953 c 128,-1,42
 301 835 301 835 301 680 c 0,43,44
 301 537 301 537 329 419 c 128,-1,45
 357 301 357 301 412 216.5 c 128,-1,46
 467 132 467 132 547.5 85 c 128,-1,47
 628 38 628 38 733 38 c 0,48,49
 838 37 838 37 920 79 c 128,-1,50
 1002 121 1002 121 1058 200.5 c 128,-1,51
 1114 280 1114 280 1143.5 394.5 c 128,-1,52
 1173 509 1173 509 1173 653 c 0,33,34
EndSplineSet
Validated: 33
EndChar

StartChar: R
Encoding: 82 82 49
Width: 1368
GlyphClass: 2
Flags: W
AnchorPoint: "Anchor-4" 1368 941 basechar 0
AnchorPoint: "Anchor-3" 711 -100 basechar 0
AnchorPoint: "Anchor-2" 320 0 basechar 0
AnchorPoint: "Anchor-1" 711 -100 basechar 0
AnchorPoint: "Anchor-0" 611 1435 basechar 0
LayerCount: 2
Fore
SplineSet
1023 0 m 1,0,-1
 564 634 l 1,1,2
 537 633 537 633 517 631.5 c 128,-1,3
 497 630 497 630 481 630 c 0,4,5
 466 630 466 630 451.5 630.5 c 128,-1,6
 437 631 437 631 420 634 c 1,7,-1
 420 241 l 2,8,9
 420 111 420 111 449 83 c 1,10,11
 487 38 487 38 564 38 c 2,12,-1
 617 38 l 1,13,-1
 617 0 l 1,14,-1
 36 0 l 1,15,-1
 36 38 l 1,16,-1
 87 38 l 2,17,18
 175 38 175 38 209 92 c 0,19,20
 229 124 229 124 229 241 c 2,21,-1
 229 1117 l 2,22,23
 229 1242 229 1242 203 1277 c 1,24,25
 182 1298 182 1298 153.5 1309 c 128,-1,26
 125 1320 125 1320 87 1320 c 2,27,-1
 36 1320 l 1,28,-1
 36 1356 l 1,29,-1
 528 1356 l 2,30,31
 637 1356 637 1356 717.5 1348.5 c 128,-1,32
 798 1341 798 1341 850 1324 c 256,33,34
 902 1307 902 1307 946.5 1277.5 c 128,-1,35
 991 1248 991 1248 1024 1208 c 128,-1,36
 1057 1168 1057 1168 1075.5 1118 c 128,-1,37
 1094 1068 1094 1068 1094 1010 c 0,38,39
 1094 947 1094 947 1074 891.5 c 128,-1,40
 1054 836 1054 836 1012.5 791 c 128,-1,41
 971 746 971 746 908.5 712.5 c 128,-1,42
 846 679 846 679 761 660 c 1,43,-1
 1038 270 l 2,44,45
 1084 206 1084 206 1123 163.5 c 128,-1,46
 1162 121 1162 121 1202 95 c 128,-1,47
 1242 69 1242 69 1286 56.5 c 128,-1,48
 1330 44 1330 44 1386 38 c 1,49,-1
 1386 0 l 1,50,-1
 1023 0 l 1,0,-1
869 993 m 256,51,52
 869 1057 869 1057 848.5 1109.5 c 128,-1,53
 828 1162 828 1162 790 1199.5 c 128,-1,54
 752 1237 752 1237 698 1258.5 c 128,-1,55
 644 1280 644 1280 577 1281 c 0,56,57
 551 1281 551 1281 511.5 1276.5 c 128,-1,58
 472 1272 472 1272 420 1264 c 1,59,-1
 420 698 l 1,60,-1
 477 698 l 2,61,62
 577 698 577 698 650.5 720 c 128,-1,63
 724 742 724 742 772.5 781.5 c 128,-1,64
 821 821 821 821 845 875 c 128,-1,65
 869 929 869 929 869 993 c 256,51,52
EndSplineSet
Validated: 1
EndChar

StartChar: S
Encoding: 83 83 50
Width: 1139
GlyphClass: 2
Flags: W
AnchorPoint: "Anchor-4" 1139 941 basechar 0
AnchorPoint: "Anchor-3" 580 -100 basechar 0
AnchorPoint: "Anchor-2" 580 0 basechar 0
AnchorPoint: "Anchor-1" 580 -100 basechar 0
AnchorPoint: "Anchor-0" 580 1435 basechar 0
LayerCount: 2
Fore
SplineSet
1031 346 m 0,0,1
 1031 269 1031 269 999.5 200 c 128,-1,2
 968 131 968 131 911 79.5 c 128,-1,3
 854 28 854 28 775.5 -2 c 128,-1,4
 697 -32 697 -32 603 -32 c 0,5,6
 534 -32 534 -32 477 -20 c 128,-1,7
 420 -8 420 -8 375 7 c 128,-1,8
 330 22 330 22 296 34 c 128,-1,9
 262 46 262 46 238 46 c 256,10,11
 214 46 214 46 199 29 c 128,-1,12
 184 12 184 12 177 -32 c 1,13,-1
 141 -32 l 1,14,-1
 141 434 l 1,15,-1
 177 434 l 1,16,17
 190 329 190 329 227.5 255.5 c 128,-1,18
 265 182 265 182 319.5 135.5 c 128,-1,19
 374 89 374 89 441.5 68 c 128,-1,20
 509 47 509 47 581 47 c 0,21,22
 643 47 643 47 693.5 65 c 128,-1,23
 744 83 744 83 779 113.5 c 128,-1,24
 814 144 814 144 833 184 c 128,-1,25
 852 224 852 224 852 269 c 0,26,27
 852 319 852 319 834.5 357 c 128,-1,28
 817 395 817 395 778 430.5 c 128,-1,29
 739 466 739 466 676.5 504.5 c 128,-1,30
 614 543 614 543 525 593 c 0,31,32
 404 661 404 661 327 714.5 c 128,-1,33
 250 768 250 768 206 817.5 c 128,-1,34
 162 867 162 867 146 917.5 c 128,-1,35
 130 968 130 968 130 1031 c 0,36,37
 130 1103 130 1103 157.5 1167.5 c 128,-1,38
 185 1232 185 1232 236.5 1281 c 128,-1,39
 288 1330 288 1330 361 1359 c 128,-1,40
 434 1388 434 1388 525 1388 c 0,41,42
 584 1388 584 1388 632.5 1376 c 128,-1,43
 681 1364 681 1364 719 1349.5 c 128,-1,44
 757 1335 757 1335 786.5 1323.5 c 128,-1,45
 816 1312 816 1312 838 1312 c 0,46,47
 861 1312 861 1312 876.5 1328.5 c 128,-1,48
 892 1345 892 1345 903 1388 c 1,49,-1
 940 1388 l 1,50,-1
 940 918 l 1,51,-1
 903 918 l 1,52,53
 893 1014 893 1014 860 1087 c 128,-1,54
 827 1160 827 1160 776.5 1209.5 c 128,-1,55
 726 1259 726 1259 662 1284 c 128,-1,56
 598 1309 598 1309 526 1309 c 0,57,58
 477 1309 477 1309 433.5 1292 c 128,-1,59
 390 1275 390 1275 358 1246.5 c 128,-1,60
 326 1218 326 1218 307 1180 c 128,-1,61
 288 1142 288 1142 288 1100 c 0,62,63
 288 1060 288 1060 303 1026.5 c 128,-1,64
 318 993 318 993 356 957.5 c 128,-1,65
 394 922 394 922 459.5 881 c 128,-1,66
 525 840 525 840 625 786 c 0,67,68
 722 734 722 734 785.5 694.5 c 128,-1,69
 849 655 849 655 885 628 c 0,70,71
 954 577 954 577 992.5 503.5 c 128,-1,72
 1031 430 1031 430 1031 346 c 0,0,1
EndSplineSet
Validated: 1
EndChar

StartChar: T
Encoding: 84 84 51
Width: 1247
GlyphClass: 2
Flags: W
AnchorPoint: "Anchor-4" 1247 941 basechar 0
AnchorPoint: "Anchor-3" 624 -100 basechar 0
AnchorPoint: "Anchor-2" 624 0 basechar 0
AnchorPoint: "Anchor-1" 624 -100 basechar 0
AnchorPoint: "Anchor-0" 624 1435 basechar 0
LayerCount: 2
Fore
SplineSet
1157 1038 m 1,0,1
 1153 1075 1153 1075 1147 1101.5 c 128,-1,2
 1141 1128 1141 1128 1133 1147.5 c 128,-1,3
 1125 1167 1125 1167 1115.5 1180.5 c 128,-1,4
 1106 1194 1106 1194 1094 1206 c 0,5,6
 1062 1240 1062 1240 1019.5 1256.5 c 128,-1,7
 977 1273 977 1273 909 1273 c 2,8,-1
 717 1273 l 1,9,-1
 717 237 l 2,10,11
 717 173 717 173 724.5 134 c 128,-1,12
 732 95 732 95 745 79 c 0,13,14
 780 38 780 38 861 38 c 2,15,-1
 909 38 l 1,16,-1
 909 0 l 1,17,-1
 333 0 l 1,18,-1
 333 38 l 1,19,-1
 382 38 l 2,20,21
 426 38 426 38 455 50 c 128,-1,22
 484 62 484 62 504 90 c 0,23,24
 514 106 514 106 519.5 141.5 c 128,-1,25
 525 177 525 177 525 237 c 2,26,-1
 525 1273 l 1,27,-1
 363 1273 l 2,28,29
 322 1273 322 1273 293.5 1271 c 128,-1,30
 265 1269 265 1269 244.5 1264 c 128,-1,31
 224 1259 224 1259 208.5 1251 c 128,-1,32
 193 1243 193 1243 179 1230 c 0,33,34
 106 1176 106 1176 94 1038 c 1,35,-1
 49 1038 l 1,36,-1
 64 1356 l 1,37,-1
 1189 1356 l 1,38,-1
 1200 1038 l 1,39,-1
 1157 1038 l 1,0,1
EndSplineSet
Validated: 1
EndChar

StartChar: U
Encoding: 85 85 52
Width: 1480
GlyphClass: 2
Flags: W
AnchorPoint: "Anchor-4" 1490 1330 basechar 0
AnchorPoint: "Anchor-3" 1006 0 basechar 0
AnchorPoint: "Anchor-2" 744 0 basechar 0
AnchorPoint: "Anchor-1" 744 -100 basechar 0
AnchorPoint: "Anchor-0" 744 1435 basechar 0
LayerCount: 2
Fore
SplineSet
1407 1320 m 2,0,1
 1365 1320 1365 1320 1336.5 1303 c 128,-1,2
 1308 1286 1308 1286 1285 1251 c 0,3,4
 1273 1237 1273 1237 1268.5 1202 c 128,-1,5
 1264 1167 1264 1167 1264 1110 c 2,6,-1
 1264 558 l 2,7,8
 1264 488 1264 488 1259 424.5 c 128,-1,9
 1254 361 1254 361 1240.5 305.5 c 128,-1,10
 1227 250 1227 250 1204 203 c 128,-1,11
 1181 156 1181 156 1145 118 c 0,12,13
 1108 79 1108 79 1068 51 c 128,-1,14
 1028 23 1028 23 980 4.5 c 128,-1,15
 932 -14 932 -14 873 -23 c 128,-1,16
 814 -32 814 -32 739 -32 c 0,17,18
 600 -32 600 -32 506.5 -1 c 128,-1,19
 413 30 413 30 354 80.5 c 128,-1,20
 295 131 295 131 264.5 196 c 128,-1,21
 234 261 234 261 221.5 329.5 c 128,-1,22
 209 398 209 398 208 465 c 128,-1,23
 207 532 207 532 207 585 c 2,24,-1
 207 1117 l 2,25,26
 207 1180 207 1180 199 1220.5 c 128,-1,27
 191 1261 191 1261 173 1281 c 0,28,29
 157 1302 157 1302 129.5 1311 c 128,-1,30
 102 1320 102 1320 61 1320 c 2,31,-1
 30 1320 l 1,32,-1
 30 1356 l 1,33,-1
 577 1356 l 1,34,-1
 577 1320 l 1,35,-1
 526 1320 l 2,36,37
 485 1320 485 1320 464 1307 c 128,-1,38
 443 1294 443 1294 425 1267 c 0,39,40
 414 1247 414 1247 407 1210.5 c 128,-1,41
 400 1174 400 1174 400 1117 c 2,42,-1
 400 525 l 2,43,44
 400 481 400 481 402 428.5 c 128,-1,45
 404 376 404 376 414.5 324 c 128,-1,46
 425 272 425 272 447 223 c 128,-1,47
 469 174 469 174 508 136 c 128,-1,48
 547 98 547 98 607 75.5 c 128,-1,49
 667 53 667 53 753 53 c 0,50,51
 814 53 814 53 865.5 65.5 c 128,-1,52
 917 78 917 78 958 97 c 128,-1,53
 999 116 999 116 1029.5 137 c 128,-1,54
 1060 158 1060 158 1078 175 c 0,55,56
 1104 199 1104 199 1121 232.5 c 128,-1,57
 1138 266 1138 266 1148.5 303.5 c 128,-1,58
 1159 341 1159 341 1164 380 c 128,-1,59
 1169 419 1169 419 1171 454.5 c 128,-1,60
 1173 490 1173 490 1173 519 c 2,61,-1
 1173 1117 l 2,62,63
 1173 1180 1173 1180 1166.5 1220 c 128,-1,64
 1160 1260 1160 1260 1145 1277 c 0,65,66
 1105 1320 1105 1320 1029 1320 c 2,67,-1
 978 1320 l 1,68,-1
 978 1356 l 1,69,-1
 1459 1356 l 1,70,-1
 1459 1320 l 1,71,-1
 1407 1320 l 2,0,1
EndSplineSet
Validated: 1
EndChar

StartChar: V
Encoding: 86 86 53
Width: 1480
GlyphClass: 2
Flags: W
AnchorPoint: "Anchor-4" 1480 941 basechar 0
AnchorPoint: "Anchor-3" 856 0 basechar 0
AnchorPoint: "Anchor-2" 755 0 basechar 0
AnchorPoint: "Anchor-1" 735 -100 basechar 0
AnchorPoint: "Anchor-0" 735 1435 basechar 0
LayerCount: 2
Fore
SplineSet
1454 1320 m 1,0,1
 1419 1315 1419 1315 1391 1304 c 128,-1,2
 1363 1293 1363 1293 1346 1275 c 0,3,4
 1294 1227 1294 1227 1251 1125 c 2,5,-1
 779 -32 l 1,6,-1
 741 -32 l 1,7,-1
 235 1139 l 2,8,9
 217 1183 217 1183 204 1207.5 c 128,-1,10
 191 1232 191 1232 181 1245.5 c 128,-1,11
 171 1259 171 1259 163 1265.5 c 128,-1,12
 155 1272 155 1272 146 1279 c 0,13,14
 123 1297 123 1297 94 1306.5 c 128,-1,15
 65 1316 65 1316 17 1320 c 1,16,-1
 17 1356 l 1,17,-1
 572 1356 l 1,18,-1
 572 1320 l 1,19,20
 512 1315 512 1315 479.5 1303.5 c 128,-1,21
 447 1292 447 1292 434 1271 c 0,22,23
 416 1245 416 1245 424.5 1197.5 c 128,-1,24
 433 1150 433 1150 467 1072 c 2,25,-1
 814 276 l 1,26,-1
 1134 1064 l 2,27,28
 1163 1139 1163 1139 1175 1185 c 128,-1,29
 1187 1231 1187 1231 1171 1258 c 0,30,31
 1166 1267 1166 1267 1158 1275 c 128,-1,32
 1150 1283 1150 1283 1135.5 1291 c 128,-1,33
 1121 1299 1121 1299 1097.5 1306.5 c 128,-1,34
 1074 1314 1074 1314 1037 1320 c 1,35,-1
 1037 1356 l 1,36,-1
 1454 1356 l 1,37,-1
 1454 1320 l 1,0,1
EndSplineSet
Validated: 33
EndChar

StartChar: W
Encoding: 87 87 54
Width: 1935
GlyphClass: 2
Flags: W
AnchorPoint: "Anchor-4" 1935 941 basechar 0
AnchorPoint: "Anchor-3" 973 -100 basechar 0
AnchorPoint: "Anchor-2" 973 -100 basechar 0
AnchorPoint: "Anchor-1" 973 -100 basechar 0
AnchorPoint: "Anchor-0" 973 1435 basechar 0
LayerCount: 2
Fore
SplineSet
1918 1320 m 1,0,1
 1895 1320 1895 1320 1874.5 1316.5 c 128,-1,2
 1854 1313 1854 1313 1836 1303 c 128,-1,3
 1818 1293 1818 1293 1801.5 1275.5 c 128,-1,4
 1785 1258 1785 1258 1770 1230 c 0,5,6
 1761 1213 1761 1213 1744 1171.5 c 128,-1,7
 1727 1130 1727 1130 1705 1064 c 2,8,-1
 1328 -32 l 1,9,-1
 1287 -32 l 1,10,-1
 980 835 l 1,11,-1
 672 -32 l 1,12,-1
 634 -32 l 1,13,-1
 233 1096 l 2,14,15
 213 1152 213 1152 200.5 1185 c 128,-1,16
 188 1218 188 1218 180 1236 c 128,-1,17
 172 1254 172 1254 165.5 1262.5 c 128,-1,18
 159 1271 159 1271 150 1277 c 0,19,20
 132 1300 132 1300 102.5 1310 c 128,-1,21
 73 1320 73 1320 28 1320 c 1,22,-1
 28 1356 l 1,23,-1
 528 1356 l 1,24,-1
 528 1320 l 1,25,-1
 504 1320 l 2,26,27
 431 1320 431 1320 408 1275 c 0,28,29
 403 1265 403 1265 400.5 1254 c 128,-1,30
 398 1243 398 1243 401 1222.5 c 128,-1,31
 404 1202 404 1202 413.5 1168 c 128,-1,32
 423 1134 423 1134 442 1078 c 2,33,-1
 707 316 l 1,34,-1
 933 963 l 1,35,36
 911 1038 911 1038 885 1103 c 0,37,38
 874 1131 874 1131 862 1159 c 128,-1,39
 850 1187 850 1187 836.5 1212 c 128,-1,40
 823 1237 823 1237 809.5 1256.5 c 128,-1,41
 796 1276 796 1276 782 1287 c 0,42,43
 762 1304 762 1304 738.5 1312 c 128,-1,44
 715 1320 715 1320 672 1320 c 1,45,-1
 672 1356 l 1,46,-1
 1200 1356 l 1,47,-1
 1200 1320 l 1,48,-1
 1165 1320 l 2,49,50
 1057 1320 1057 1320 1057 1232 c 0,51,52
 1057 1205 1057 1205 1067 1161.5 c 128,-1,53
 1077 1118 1077 1118 1100 1055 c 2,54,-1
 1362 316 l 1,55,-1
 1620 1064 l 2,56,57
 1635 1109 1635 1109 1645.5 1143 c 128,-1,58
 1656 1177 1656 1177 1660 1202 c 128,-1,59
 1664 1227 1664 1227 1661.5 1245 c 128,-1,60
 1659 1263 1659 1263 1648 1277 c 0,61,62
 1629 1303 1629 1303 1595 1311.5 c 128,-1,63
 1561 1320 1561 1320 1514 1320 c 1,64,-1
 1514 1356 l 1,65,-1
 1918 1356 l 1,66,-1
 1918 1320 l 1,0,1
EndSplineSet
Validated: 1
EndChar

StartChar: X
Encoding: 88 88 55
Width: 1480
GlyphClass: 2
Flags: W
AnchorPoint: "Anchor-4" 1480 941 basechar 0
AnchorPoint: "Anchor-3" 733 -100 basechar 0
AnchorPoint: "Anchor-2" 733 -100 basechar 0
AnchorPoint: "Anchor-1" 733 -100 basechar 0
AnchorPoint: "Anchor-0" 733 1435 basechar 0
LayerCount: 2
Fore
SplineSet
873 0 m 1,0,-1
 873 38 l 1,1,2
 924 38 924 38 951.5 46 c 128,-1,3
 979 54 979 54 993 75 c 0,4,5
 1004 90 1004 90 1007.5 103 c 128,-1,6
 1011 116 1011 116 1006 134 c 128,-1,7
 1001 152 1001 152 985.5 178.5 c 128,-1,8
 970 205 970 205 942 248 c 2,9,-1
 713 598 l 1,10,-1
 427 233 l 2,11,12
 407 207 407 207 395 190 c 128,-1,13
 383 173 383 173 377 160.5 c 128,-1,14
 371 148 371 148 369 137.5 c 128,-1,15
 367 127 367 127 367 115 c 0,16,17
 367 99 367 99 372.5 85.5 c 128,-1,18
 378 72 378 72 392.5 62 c 128,-1,19
 407 52 407 52 432 45.5 c 128,-1,20
 457 39 457 39 497 38 c 1,21,-1
 497 0 l 1,22,-1
 13 0 l 1,23,-1
 13 38 l 1,24,25
 58 39 58 39 103 58 c 128,-1,26
 148 77 148 77 191.5 108 c 128,-1,27
 235 139 235 139 274.5 179 c 128,-1,28
 314 219 314 219 348 262 c 2,29,-1
 670 668 l 1,30,-1
 402 1061 l 2,31,32
 350 1138 350 1138 306 1187 c 128,-1,33
 262 1236 262 1236 220.5 1264.5 c 128,-1,34
 179 1293 179 1293 136 1305 c 128,-1,35
 93 1317 93 1317 43 1320 c 1,36,-1
 43 1356 l 1,37,-1
 670 1356 l 1,38,-1
 670 1320 l 1,39,40
 592 1317 592 1317 560 1293 c 0,41,42
 545 1281 545 1281 537 1268 c 128,-1,43
 529 1255 529 1255 530 1237 c 128,-1,44
 531 1219 531 1219 542.5 1195 c 128,-1,45
 554 1171 554 1171 577 1136 c 2,46,-1
 786 824 l 1,47,-1
 1027 1130 l 2,48,49
 1070 1184 1070 1184 1084 1219.5 c 128,-1,50
 1098 1255 1098 1255 1078 1281 c 0,51,52
 1071 1291 1071 1291 1062.5 1298 c 128,-1,53
 1054 1305 1054 1305 1039.5 1309.5 c 128,-1,54
 1025 1314 1025 1314 1002 1316.5 c 128,-1,55
 979 1319 979 1319 942 1320 c 1,56,-1
 942 1356 l 1,57,-1
 1425 1356 l 1,58,-1
 1425 1320 l 1,59,60
 1370 1317 1370 1317 1330 1302.5 c 128,-1,61
 1290 1288 1290 1288 1255.5 1260.5 c 128,-1,62
 1221 1233 1221 1233 1186.5 1192.5 c 128,-1,63
 1152 1152 1152 1152 1108 1096 c 2,64,-1
 835 753 l 1,65,-1
 1127 318 l 2,66,67
 1168 258 1168 258 1199.5 214 c 128,-1,68
 1231 170 1231 170 1257.5 139.5 c 128,-1,69
 1284 109 1284 109 1307 90 c 128,-1,70
 1330 71 1330 71 1353 60 c 128,-1,71
 1376 49 1376 49 1400.5 44.5 c 128,-1,72
 1425 40 1425 40 1454 38 c 1,73,-1
 1454 0 l 1,74,-1
 873 0 l 1,0,-1
EndSplineSet
Validated: 1
EndChar

StartChar: Y
Encoding: 89 89 56
Width: 1480
GlyphClass: 2
Flags: W
AnchorPoint: "Anchor-4" 1480 941 basechar 0
AnchorPoint: "Anchor-3" 733 -100 basechar 0
AnchorPoint: "Anchor-2" 733 -100 basechar 0
AnchorPoint: "Anchor-1" 733 -100 basechar 0
AnchorPoint: "Anchor-0" 733 1435 basechar 0
LayerCount: 2
Fore
SplineSet
1425 1320 m 2,0,1
 1413 1320 1413 1320 1393 1315 c 128,-1,2
 1373 1310 1373 1310 1350.5 1299.5 c 128,-1,3
 1328 1289 1328 1289 1303.5 1272.5 c 128,-1,4
 1279 1256 1279 1256 1258 1232 c 0,5,6
 1237 1209 1237 1209 1212.5 1174 c 128,-1,7
 1188 1139 1188 1139 1157 1090 c 2,8,-1
 828 576 l 1,9,-1
 828 237 l 2,10,11
 828 109 828 109 857 79 c 0,12,13
 892 38 892 38 978 38 c 2,14,-1
 1021 38 l 1,15,-1
 1021 0 l 1,16,-1
 446 0 l 1,17,-1
 446 38 l 1,18,-1
 493 38 l 2,19,20
 536 38 536 38 565 50 c 128,-1,21
 594 62 594 62 615 90 c 0,22,23
 624 106 624 106 629 141.5 c 128,-1,24
 634 177 634 177 634 237 c 2,25,-1
 634 558 l 1,26,-1
 264 1125 l 2,27,28
 231 1174 231 1174 207.5 1208.5 c 128,-1,29
 184 1243 184 1243 156 1266 c 0,30,31
 130 1285 130 1285 94 1302.5 c 128,-1,32
 58 1320 58 1320 17 1320 c 1,33,-1
 17 1356 l 1,34,-1
 600 1356 l 1,35,-1
 600 1320 l 1,36,-1
 570 1320 l 2,37,38
 556 1320 556 1320 534.5 1316.5 c 128,-1,39
 513 1313 513 1313 493 1303.5 c 128,-1,40
 473 1294 473 1294 458.5 1276.5 c 128,-1,41
 444 1259 444 1259 444 1232 c 0,42,43
 444 1215 444 1215 458.5 1182 c 128,-1,44
 473 1149 473 1149 504 1100 c 2,45,-1
 786 664 l 1,46,-1
 1055 1082 l 2,47,48
 1077 1116 1077 1116 1091.5 1143.5 c 128,-1,49
 1106 1171 1106 1171 1112.5 1193.5 c 128,-1,50
 1119 1216 1119 1216 1115.5 1235.5 c 128,-1,51
 1112 1255 1112 1255 1098 1273 c 0,52,53
 1086 1293 1086 1293 1060 1306.5 c 128,-1,54
 1034 1320 1034 1320 978 1320 c 1,55,-1
 978 1356 l 1,56,-1
 1450 1356 l 1,57,-1
 1450 1320 l 1,58,-1
 1425 1320 l 2,0,1
EndSplineSet
Validated: 1
EndChar

StartChar: Z
Encoding: 90 90 57
Width: 1251
GlyphClass: 2
Flags: W
AnchorPoint: "Anchor-4" 1251 941 basechar 0
AnchorPoint: "Anchor-3" 611 -100 basechar 0
AnchorPoint: "Anchor-2" 611 -100 basechar 0
AnchorPoint: "Anchor-1" 611 -100 basechar 0
AnchorPoint: "Anchor-0" 611 1435 basechar 0
LayerCount: 2
Fore
SplineSet
1132 0 m 1,0,-1
 28 0 l 1,1,-1
 28 38 l 1,2,-1
 895 1277 l 1,3,-1
 463 1277 l 2,4,5
 385 1277 385 1277 340 1265.5 c 128,-1,6
 295 1254 295 1254 266 1228 c 0,7,8
 253 1216 253 1216 242 1200 c 128,-1,9
 231 1184 231 1184 221 1160 c 128,-1,10
 211 1136 211 1136 202.5 1101.5 c 128,-1,11
 194 1067 194 1067 186 1017 c 1,12,-1
 148 1017 l 1,13,-1
 175 1356 l 1,14,-1
 1179 1356 l 1,15,-1
 288 83 l 1,16,-1
 844 83 l 2,17,18
 908 83 908 83 956 96 c 128,-1,19
 1004 109 1004 109 1038 138 c 0,20,21
 1074 166 1074 166 1104 222 c 128,-1,22
 1134 278 1134 278 1163 365 c 1,23,-1
 1194 359 l 1,24,-1
 1132 0 l 1,0,-1
EndSplineSet
Validated: 1
EndChar

StartChar: bracketleft
Encoding: 91 91 58
Width: 682
VWidth: 2298
Flags: W
LayerCount: 2
Fore
SplineSet
166 -156 m 1,0,-1
 166 1638 l 1,1,-1
 607 1638 l 1,2,-1
 607 1561 l 1,3,-1
 316 1561 l 1,4,-1
 316 -77 l 1,5,-1
 607 -77 l 1,6,-1
 607 -156 l 1,7,-1
 166 -156 l 1,0,-1
EndSplineSet
Validated: 1
EndChar

StartChar: backslash
Encoding: 92 92 59
Width: 570
Flags: W
LayerCount: 2
Fore
SplineSet
495 -30 m 1,0,-1
 2 1423 l 1,1,-1
 89 1423 l 1,2,-1
 577 -30 l 1,3,-1
 495 -30 l 1,0,-1
EndSplineSet
Validated: 1
Substitution2: "Single Substitution lookup 15 subtable" zwsp
EndChar

StartChar: bracketright
Encoding: 93 93 60
Width: 682
VWidth: 2298
Flags: W
LayerCount: 2
Fore
SplineSet
77 -158 m 1,0,-1
 77 -77 l 1,1,-1
 367 -77 l 1,2,-1
 367 1561 l 1,3,-1
 77 1561 l 1,4,-1
 77 1638 l 1,5,-1
 517 1638 l 1,6,-1
 517 -158 l 1,7,-1
 77 -158 l 1,0,-1
EndSplineSet
Validated: 1
EndChar

StartChar: asciicircum
Encoding: 94 94 61
Width: 643
Flags: W
LayerCount: 2
Fore
SplineSet
572 1042 m 5,0,-1
 321 1256 l 5,1,-1
 71 1042 l 5,2,-1
 0 1042 l 5,3,-1
 258 1386 l 5,4,-1
 386 1386 l 5,5,-1
 643 1042 l 5,6,-1
 572 1042 l 5,0,-1
EndSplineSet
Validated: 1
Substitution2: "Single Substitution lookup 26 subtable" trianglesuperior
Substitution2: "Single Substitution lookup 23 subtable" majortriangle
EndChar

StartChar: underscore
Encoding: 95 95 62
Width: 643
Flags: W
LayerCount: 2
Fore
SplineSet
0 -295 m 1,0,-1
 0 -186 l 1,1,-1
 643 -186 l 1,2,-1
 643 -295 l 1,3,-1
 0 -295 l 1,0,-1
EndSplineSet
Validated: 1
Substitution2: "Single Substitution lookup 49 subtable" hyphensubscript
EndChar

StartChar: grave
Encoding: 96 96 63
Width: 702
Flags: W
LayerCount: 2
Fore
SplineSet
384 1042 m 5,0,-1
 89 1230 l 6,1,2
 76 1238 76 1238 60.5 1247.5 c 132,-1,3
 45 1257 45 1257 31.5 1268.5 c 132,-1,4
 18 1280 18 1280 9 1292.5 c 132,-1,5
 0 1305 0 1305 0 1318 c 4,6,7
 0 1354 0 1354 17 1374.5 c 132,-1,8
 34 1395 34 1395 64 1395 c 4,9,10
 90 1395 90 1395 122.5 1376 c 132,-1,11
 155 1357 155 1357 183 1328 c 6,12,-1
 467 1042 l 5,13,-1
 384 1042 l 5,0,-1
EndSplineSet
Validated: 1
EndChar

StartChar: a
Encoding: 97 97 64
Width: 910
GlyphClass: 2
Flags: W
AnchorPoint: "Anchor-4" 910 900 basechar 0
AnchorPoint: "Anchor-3" 817 0 basechar 0
AnchorPoint: "Anchor-2" 445 0 basechar 0
AnchorPoint: "Anchor-1" 445 -100 basechar 0
AnchorPoint: "Anchor-0" 445 1000 basechar 0
LayerCount: 2
Fore
SplineSet
909 132 m 1,0,1
 796 -17 796 -17 690 -17 c 0,2,3
 668 -17 668 -17 648.5 -10 c 128,-1,4
 629 -3 629 -3 614.5 14 c 128,-1,5
 600 31 600 31 591.5 59.5 c 128,-1,6
 583 88 583 88 583 132 c 1,7,8
 523 85 523 85 483.5 55.5 c 128,-1,9
 444 26 444 26 413.5 10 c 128,-1,10
 383 -6 383 -6 355.5 -11.5 c 128,-1,11
 328 -17 328 -17 292 -17 c 0,12,13
 243 -17 243 -17 203 -0.5 c 128,-1,14
 163 16 163 16 134 46.5 c 128,-1,15
 105 77 105 77 89 120.5 c 128,-1,16
 73 164 73 164 73 217 c 0,17,18
 73 268 73 268 91.5 314 c 128,-1,19
 110 360 110 360 165 406.5 c 128,-1,20
 220 453 220 453 320 502 c 128,-1,21
 420 551 420 551 583 607 c 1,22,-1
 583 645 l 2,23,24
 583 711 583 711 572.5 756 c 128,-1,25
 562 801 562 801 541 829.5 c 128,-1,26
 520 858 520 858 488 870.5 c 128,-1,27
 456 883 456 883 412 883 c 0,28,29
 349 883 349 883 313 850.5 c 128,-1,30
 277 818 277 818 274 771 c 1,31,-1
 276 711 l 2,32,33
 278 668 278 668 254.5 642.5 c 128,-1,34
 231 617 231 617 193 617 c 0,35,36
 153 617 153 617 131 642.5 c 128,-1,37
 109 668 109 668 109 713 c 0,38,39
 109 767 109 767 136.5 809.5 c 128,-1,40
 164 852 164 852 210.5 881.5 c 128,-1,41
 257 911 257 911 317.5 926.5 c 128,-1,42
 378 942 378 942 444 942 c 0,43,44
 543 942 543 942 603.5 920.5 c 128,-1,45
 664 899 664 899 697 858.5 c 128,-1,46
 730 818 730 818 740.5 760 c 128,-1,47
 751 702 751 702 751 630 c 2,48,-1
 751 318 l 2,49,50
 751 254 751 254 753 213 c 128,-1,51
 755 172 755 172 756 158 c 0,52,53
 761 131 761 131 771 120 c 128,-1,54
 781 109 781 109 800 109 c 0,55,56
 809 109 809 109 817 111.5 c 128,-1,57
 825 114 825 114 836 122 c 128,-1,58
 847 130 847 130 864 146 c 128,-1,59
 881 162 881 162 909 190 c 1,60,-1
 909 132 l 1,0,1
583 548 m 1,61,62
 467 503 467 503 399.5 465.5 c 128,-1,63
 332 428 332 428 297 394 c 128,-1,64
 262 360 262 360 252.5 328.5 c 128,-1,65
 243 297 243 297 243 264 c 0,66,67
 243 228 243 228 254 198 c 128,-1,68
 265 168 265 168 283.5 145.5 c 128,-1,69
 302 123 302 123 327.5 110 c 128,-1,70
 353 97 353 97 382 96 c 0,71,72
 421 94 421 94 470.5 120 c 128,-1,73
 520 146 520 146 583 197 c 1,74,-1
 583 548 l 1,61,62
EndSplineSet
Validated: 33
EndChar

StartChar: b
Encoding: 98 98 65
Width: 1025
GlyphClass: 2
Flags: W
AnchorPoint: "Anchor-4" 1025 900 basechar 0
AnchorPoint: "Anchor-3" 540 -100 basechar 0
AnchorPoint: "Anchor-2" 540 0 basechar 0
AnchorPoint: "Anchor-1" 540 -100 basechar 0
AnchorPoint: "Anchor-0" 540 1435 basechar 0
LayerCount: 2
Fore
SplineSet
954 495 m 0,0,1
 954 382 954 382 915.5 285.5 c 128,-1,2
 877 189 877 189 812 119 c 128,-1,3
 747 49 747 49 661.5 9.5 c 128,-1,4
 576 -30 576 -30 481 -30 c 0,5,6
 402 -30 402 -30 319.5 -1 c 128,-1,7
 237 28 237 28 148 89 c 1,8,-1
 148 1037 l 2,9,10
 148 1114 148 1114 146.5 1159 c 128,-1,11
 145 1204 145 1204 141 1228 c 128,-1,12
 137 1252 137 1252 131 1262 c 128,-1,13
 125 1272 125 1272 116 1279 c 0,14,15
 100 1293 100 1293 76.5 1292.5 c 128,-1,16
 53 1292 53 1292 6 1277 c 1,17,-1
 -8 1313 l 1,18,-1
 269 1423 l 1,19,-1
 316 1423 l 1,20,-1
 316 758 l 1,21,22
 448 942 448 942 603 942 c 0,23,24
 673 942 673 942 736.5 911.5 c 128,-1,25
 800 881 800 881 848.5 823.5 c 128,-1,26
 897 766 897 766 925.5 683 c 128,-1,27
 954 600 954 600 954 495 c 0,0,1
781 438 m 0,28,29
 781 524 781 524 760 592 c 128,-1,30
 739 660 739 660 704 707 c 128,-1,31
 669 754 669 754 622 778.5 c 128,-1,32
 575 803 575 803 523 803 c 0,33,34
 505 803 505 803 484 799.5 c 128,-1,35
 463 796 463 796 438.5 785 c 128,-1,36
 414 774 414 774 384 752.5 c 128,-1,37
 354 731 354 731 316 696 c 1,38,-1
 316 146 l 1,39,40
 364 97 364 97 419 71 c 128,-1,41
 474 45 474 45 532 45 c 0,42,43
 577 45 577 45 621.5 69.5 c 128,-1,44
 666 94 666 94 701.5 143.5 c 128,-1,45
 737 193 737 193 759 266.5 c 128,-1,46
 781 340 781 340 781 438 c 0,28,29
EndSplineSet
Validated: 1
Substitution2: "Single Substitution lookup 47 subtable" flatsuperior
Substitution2: "Single Substitution lookup 46 subtable" flatsuperior
Substitution2: "Single Substitution lookup 45 subtable" flatsuperior
Substitution2: "Single Substitution lookup 43 subtable" flatsuperior
Substitution2: "Single Substitution lookup 42 subtable" flatsuperior
Substitution2: "Single Substitution lookup 19 subtable" flatsuperior
Substitution2: "Single Substitution lookup 18 subtable" flat
Substitution2: "Single Substitution lookup 17 subtable" flat
EndChar

StartChar: c
Encoding: 99 99 66
Width: 910
GlyphClass: 2
Flags: W
AnchorPoint: "Anchor-4" 910 900 basechar 0
AnchorPoint: "Anchor-3" 480 -100 basechar 0
AnchorPoint: "Anchor-2" 455 0 basechar 0
AnchorPoint: "Anchor-1" 480 -100 basechar 0
AnchorPoint: "Anchor-0" 480 1000 basechar 0
LayerCount: 2
Fore
SplineSet
841 348 m 1,0,1
 828 265 828 265 792 195.5 c 128,-1,2
 756 126 756 126 704.5 76 c 128,-1,3
 653 26 653 26 590 -2 c 128,-1,4
 527 -30 527 -30 459 -30 c 0,5,6
 378 -30 378 -30 307 4.5 c 128,-1,7
 236 39 236 39 183 102.5 c 128,-1,8
 130 166 130 166 99.5 256 c 128,-1,9
 69 346 69 346 69 457 c 0,10,11
 69 566 69 566 104 655.5 c 128,-1,12
 139 745 139 745 198.5 808.5 c 128,-1,13
 258 872 258 872 337.5 907 c 128,-1,14
 417 942 417 942 506 942 c 0,15,16
 643 942 643 942 729 871 c 0,17,18
 772 836 772 836 795 799 c 128,-1,19
 818 762 818 762 818 724 c 0,20,21
 818 689 818 689 794.5 664 c 128,-1,22
 771 639 771 639 724 639 c 0,23,24
 709 639 709 639 691 642 c 128,-1,25
 673 645 673 645 656.5 656.5 c 128,-1,26
 640 668 640 668 628 691.5 c 128,-1,27
 616 715 616 715 613 756 c 0,28,29
 608 810 608 810 575.5 843.5 c 128,-1,30
 543 877 543 877 474 877 c 0,31,32
 417 877 417 877 372 851.5 c 128,-1,33
 327 826 327 826 296 781.5 c 128,-1,34
 265 737 265 737 249 676 c 128,-1,35
 233 615 233 615 233 544 c 0,36,37
 233 463 233 463 252.5 388 c 128,-1,38
 272 313 272 313 310 255.5 c 128,-1,39
 348 198 348 198 403 164 c 128,-1,40
 458 130 458 130 530 130 c 0,41,42
 572 130 572 130 610.5 139.5 c 128,-1,43
 649 149 649 149 684 175 c 128,-1,44
 719 201 719 201 751.5 246.5 c 128,-1,45
 784 292 784 292 814 363 c 1,46,-1
 841 348 l 1,0,1
EndSplineSet
Validated: 1
EndChar

StartChar: d
Encoding: 100 100 67
Width: 1025
GlyphClass: 2
Flags: W
AnchorPoint: "Anchor-4" 971 900 basechar 0
AnchorPoint: "Anchor-3" 550 -100 basechar 0
AnchorPoint: "Anchor-2" 550 0 basechar 0
AnchorPoint: "Anchor-1" 550 -100 basechar 0
AnchorPoint: "Anchor-0" 547 1435 basechar 0
LayerCount: 2
Fore
SplineSet
756 -30 m 1,0,-1
 711 -30 l 1,1,-1
 711 102 l 1,2,3
 650 38 650 38 587 4 c 128,-1,4
 524 -30 524 -30 444 -30 c 0,5,6
 368 -30 368 -30 299.5 4 c 128,-1,7
 231 38 231 38 179.5 98 c 128,-1,8
 128 158 128 158 97.5 240.5 c 128,-1,9
 67 323 67 323 67 420 c 0,10,11
 67 479 67 479 80 541 c 128,-1,12
 93 603 93 603 119 661 c 128,-1,13
 145 719 145 719 183 770.5 c 128,-1,14
 221 822 221 822 270 860.5 c 128,-1,15
 319 899 319 899 380 921.5 c 128,-1,16
 441 944 441 944 512 944 c 0,17,18
 572 944 572 944 621.5 925.5 c 128,-1,19
 671 907 671 907 711 867 c 1,20,-1
 711 1037 l 2,21,22
 711 1113 711 1113 709.5 1157 c 128,-1,23
 708 1201 708 1201 704.5 1225.5 c 128,-1,24
 701 1250 701 1250 695 1260 c 128,-1,25
 689 1270 689 1270 680 1279 c 0,26,27
 663 1296 663 1296 637.5 1293.5 c 128,-1,28
 612 1291 612 1291 572 1277 c 1,29,-1
 558 1313 l 1,30,-1
 833 1423 l 1,31,-1
 879 1423 l 1,32,-1
 879 363 l 2,33,34
 879 289 879 289 880 244.5 c 128,-1,35
 881 200 881 200 884 174 c 128,-1,36
 887 148 887 148 893 136 c 128,-1,37
 899 124 899 124 910 116 c 0,38,39
 928 101 928 101 954.5 103 c 128,-1,40
 981 105 981 105 1021 120 c 1,41,-1
 1033 85 l 1,42,-1
 756 -30 l 1,0,-1
711 647 m 2,43,44
 711 685 711 685 696.5 726 c 128,-1,45
 682 767 682 767 655 801.5 c 128,-1,46
 628 836 628 836 589 859 c 128,-1,47
 550 882 550 882 500 883 c 0,48,49
 449 885 449 885 404 858.5 c 128,-1,50
 359 832 359 832 325.5 782 c 128,-1,51
 292 732 292 732 272 660 c 128,-1,52
 252 588 252 588 252 500 c 0,53,54
 252 389 252 389 278 310 c 128,-1,55
 304 231 304 231 345 181 c 128,-1,56
 386 131 386 131 436 107.5 c 128,-1,57
 486 84 486 84 534 83 c 0,58,59
 582 83 582 83 625 105.5 c 128,-1,60
 668 128 668 128 711 173 c 1,61,-1
 711 647 l 2,43,44
EndSplineSet
Validated: 33
EndChar

StartChar: e
Encoding: 101 101 68
Width: 910
GlyphClass: 2
Flags: W
AnchorPoint: "Anchor-4" 910 900 basechar 0
AnchorPoint: "Anchor-3" 661 0 basechar 0
AnchorPoint: "Anchor-2" 463 0 basechar 0
AnchorPoint: "Anchor-1" 485 -100 basechar 0
AnchorPoint: "Anchor-0" 485 1000 basechar 0
LayerCount: 2
Fore
SplineSet
852 335 m 1,0,1
 842 268 842 268 811 202.5 c 128,-1,2
 780 137 780 137 732 85.5 c 128,-1,3
 684 34 684 34 619 2 c 128,-1,4
 554 -30 554 -30 475 -30 c 0,5,6
 394 -30 394 -30 321 3.5 c 128,-1,7
 248 37 248 37 193.5 99.5 c 128,-1,8
 139 162 139 162 107 250.5 c 128,-1,9
 75 339 75 339 75 448 c 0,10,11
 75 564 75 564 106.5 656 c 128,-1,12
 138 748 138 748 194.5 812 c 128,-1,13
 251 876 251 876 329 910 c 128,-1,14
 407 944 407 944 500 944 c 0,15,16
 576 944 576 944 640.5 918.5 c 128,-1,17
 705 893 705 893 752 845 c 128,-1,18
 799 797 799 797 825.5 728 c 128,-1,19
 852 659 852 659 852 572 c 1,20,-1
 217 572 l 1,21,22
 217 470 217 470 244 389 c 128,-1,23
 271 308 271 308 317 252 c 128,-1,24
 363 196 363 196 423.5 166.5 c 128,-1,25
 484 137 484 137 551 136 c 0,26,27
 596 135 596 135 634.5 145.5 c 128,-1,28
 673 156 673 156 706 181.5 c 128,-1,29
 739 207 739 207 767.5 249.5 c 128,-1,30
 796 292 796 292 820 355 c 1,31,-1
 852 335 l 1,0,1
643 628 m 1,32,33
 643 704 643 704 621 751.5 c 128,-1,34
 599 799 599 799 568 826 c 128,-1,35
 537 853 537 853 503 863 c 128,-1,36
 469 873 469 873 444 873 c 0,37,38
 404 873 404 873 365.5 857 c 128,-1,39
 327 841 327 841 296 810 c 128,-1,40
 265 779 265 779 244 733 c 128,-1,41
 223 687 223 687 217 628 c 1,42,-1
 643 628 l 1,32,33
EndSplineSet
Validated: 33
EndChar

StartChar: f
Encoding: 102 102 69
Width: 682
GlyphClass: 2
Flags: W
AnchorPoint: "Anchor-4" 682 941 basechar 0
AnchorPoint: "Anchor-3" 338 -100 basechar 0
AnchorPoint: "Anchor-2" 338 0 basechar 0
AnchorPoint: "Anchor-1" 338 -100 basechar 0
AnchorPoint: "Anchor-0" 570 1375 basechar 0
LayerCount: 2
Fore
SplineSet
891 1251 m 0,0,1
 891 1238 891 1238 885 1223.5 c 128,-1,2
 879 1209 879 1209 868 1196.5 c 128,-1,3
 857 1184 857 1184 842 1176 c 128,-1,4
 827 1168 827 1168 810 1168 c 0,5,6
 784 1167 784 1167 765.5 1180.5 c 128,-1,7
 747 1194 747 1194 730.5 1214 c 128,-1,8
 714 1234 714 1234 698.5 1257.5 c 128,-1,9
 683 1281 683 1281 664 1301 c 128,-1,10
 645 1321 645 1321 620 1334.5 c 128,-1,11
 595 1348 595 1348 560 1348 c 0,12,13
 512 1348 512 1348 484.5 1327 c 128,-1,14
 457 1306 457 1306 443 1261.5 c 128,-1,15
 429 1217 429 1217 425.5 1148 c 128,-1,16
 422 1079 422 1079 422 982 c 2,17,-1
 422 916 l 1,18,-1
 658 916 l 1,19,-1
 658 844 l 1,20,-1
 422 844 l 1,21,-1
 422 243 l 2,22,23
 422 179 422 179 428 138 c 128,-1,24
 434 97 434 97 451 81 c 0,25,26
 484 38 484 38 550 38 c 2,27,-1
 632 38 l 1,28,-1
 632 0 l 1,29,-1
 81 0 l 1,30,-1
 81 38 l 1,31,-1
 122 38 l 2,32,33
 146 38 146 38 168 43.5 c 128,-1,34
 190 49 190 49 213 69 c 0,35,36
 225 80 225 80 233 92 c 128,-1,37
 241 104 241 104 245.5 123 c 128,-1,38
 250 142 250 142 252 170.5 c 128,-1,39
 254 199 254 199 254 243 c 2,40,-1
 254 844 l 1,41,-1
 75 844 l 1,42,-1
 75 916 l 1,43,-1
 254 916 l 1,44,-1
 254 978 l 2,45,46
 254 1082 254 1082 278 1155 c 128,-1,47
 302 1228 302 1228 339.5 1277.5 c 128,-1,48
 377 1327 377 1327 422.5 1356 c 128,-1,49
 468 1385 468 1385 511 1400 c 128,-1,50
 554 1415 554 1415 588.5 1419 c 128,-1,51
 623 1423 623 1423 639 1423 c 0,52,53
 683 1423 683 1423 727.5 1409 c 128,-1,54
 772 1395 772 1395 808.5 1371.5 c 128,-1,55
 845 1348 845 1348 868 1317 c 128,-1,56
 891 1286 891 1286 891 1251 c 0,0,1
EndSplineSet
Validated: 1
EndChar

StartChar: g
Encoding: 103 103 70
Width: 1025
GlyphClass: 2
Flags: W
AnchorPoint: "Anchor-4" 1025 900 basechar 0
AnchorPoint: "Anchor-3" 524 -500 basechar 0
AnchorPoint: "Anchor-2" 520 -432 basechar 0
AnchorPoint: "Anchor-1" 524 -500 basechar 0
AnchorPoint: "Anchor-0" 510 1000 basechar 0
LayerCount: 2
Fore
SplineSet
987 835 m 0,0,1
 987 830 987 830 985 816.5 c 128,-1,2
 983 803 983 803 978 796 c 0,3,4
 973 792 973 792 964.5 790.5 c 128,-1,5
 956 789 956 789 946 788 c 0,6,7
 935 787 935 787 922 788 c 2,8,-1
 805 788 l 1,9,10
 831 753 831 753 845 707.5 c 128,-1,11
 859 662 859 662 859 605 c 0,12,13
 860 542 860 542 836 486 c 128,-1,14
 812 430 812 430 765.5 387.5 c 128,-1,15
 719 345 719 345 652 320 c 128,-1,16
 585 295 585 295 499 295 c 0,17,18
 464 295 464 295 429 300 c 128,-1,19
 394 305 394 305 359 316 c 1,20,21
 339 301 339 301 321 281 c 128,-1,22
 303 261 303 261 293 240.5 c 128,-1,23
 283 220 283 220 283.5 200.5 c 128,-1,24
 284 181 284 181 299 167 c 0,25,26
 305 161 305 161 313.5 157 c 128,-1,27
 322 153 322 153 337 149.5 c 128,-1,28
 352 146 352 146 376 143.5 c 128,-1,29
 400 141 400 141 437.5 139.5 c 128,-1,30
 475 138 475 138 528.5 136 c 128,-1,31
 582 134 582 134 656 132 c 0,32,33
 674 132 674 132 704.5 130.5 c 128,-1,34
 735 129 735 129 771 122.5 c 128,-1,35
 807 116 807 116 843 102.5 c 128,-1,36
 879 89 879 89 909 65.5 c 128,-1,37
 939 42 939 42 957.5 5 c 128,-1,38
 976 -32 976 -32 976 -85 c 0,39,40
 976 -154 976 -154 937 -218.5 c 128,-1,41
 898 -283 898 -283 829 -333.5 c 128,-1,42
 760 -384 760 -384 666.5 -414 c 128,-1,43
 573 -444 573 -444 463 -444 c 0,44,45
 387 -444 387 -444 314.5 -427 c 128,-1,46
 242 -410 242 -410 186 -383 c 128,-1,47
 130 -356 130 -356 95.5 -321.5 c 128,-1,48
 61 -287 61 -287 61 -252 c 0,49,50
 61 -232 61 -232 69.5 -209 c 128,-1,51
 78 -186 78 -186 98.5 -156 c 128,-1,52
 119 -126 119 -126 154.5 -86 c 128,-1,53
 190 -46 190 -46 244 8 c 1,54,55
 198 37 198 37 174 60 c 128,-1,56
 150 83 150 83 150 118 c 0,57,58
 150 136 150 136 155.5 155.5 c 128,-1,59
 161 175 161 175 178 200 c 128,-1,60
 195 225 195 225 226.5 258 c 128,-1,61
 258 291 258 291 310 335 c 1,62,63
 266 354 266 354 233.5 384.5 c 128,-1,64
 201 415 201 415 179 451.5 c 128,-1,65
 157 488 157 488 146.5 529.5 c 128,-1,66
 136 571 136 571 136 613 c 0,67,68
 136 677 136 677 161 736.5 c 128,-1,69
 186 796 186 796 232.5 841.5 c 128,-1,70
 279 887 279 887 347 914.5 c 128,-1,71
 415 942 415 942 500 942 c 0,72,73
 559 942 559 942 601 931 c 128,-1,74
 643 920 643 920 678.5 907.5 c 128,-1,75
 714 895 714 895 750 884 c 128,-1,76
 786 873 786 873 833 873 c 0,77,78
 864 873 864 873 884.5 874.5 c 128,-1,79
 905 876 905 876 920 877 c 128,-1,80
 935 878 935 878 947 878 c 0,81,82
 960 878 960 878 974 875 c 0,83,84
 987 872 987 872 987 835 c 0,0,1
682 579 m 0,85,86
 682 650 682 650 668.5 708 c 128,-1,87
 655 766 655 766 629 807.5 c 128,-1,88
 603 849 603 849 566.5 872 c 128,-1,89
 530 895 530 895 483 895 c 0,90,91
 447 895 447 895 415.5 881.5 c 128,-1,92
 384 868 384 868 360.5 838.5 c 128,-1,93
 337 809 337 809 323.5 764 c 128,-1,94
 310 719 310 719 310 656 c 0,95,96
 310 588 310 588 323.5 531 c 128,-1,97
 337 474 337 474 362.5 432.5 c 128,-1,98
 388 391 388 391 425 368 c 128,-1,99
 462 345 462 345 510 345 c 0,100,101
 546 345 546 345 577.5 358.5 c 128,-1,102
 609 372 609 372 632.5 400.5 c 128,-1,103
 656 429 656 429 669 473 c 128,-1,104
 682 517 682 517 682 579 c 0,85,86
903 -122 m 0,105,106
 903 -98 903 -98 892.5 -80.5 c 128,-1,107
 882 -63 882 -63 853.5 -51.5 c 128,-1,108
 825 -40 825 -40 775.5 -33 c 128,-1,109
 726 -26 726 -26 647 -22 c 0,110,111
 534 -17 534 -17 447 -13 c 128,-1,112
 360 -9 360 -9 299 0 c 1,113,114
 256 -50 256 -50 230.5 -89.5 c 128,-1,115
 205 -129 205 -129 205 -175 c 0,116,117
 205 -207 205 -207 230 -233.5 c 128,-1,118
 255 -260 255 -260 301 -279.5 c 128,-1,119
 347 -299 347 -299 410.5 -310 c 128,-1,120
 474 -321 474 -321 551 -321 c 0,121,122
 641 -321 641 -321 707 -303.5 c 128,-1,123
 773 -286 773 -286 816.5 -257.5 c 128,-1,124
 860 -229 860 -229 881.5 -193.5 c 128,-1,125
 903 -158 903 -158 903 -122 c 0,105,106
EndSplineSet
Validated: 33
EndChar

StartChar: h
Encoding: 104 104 71
Width: 1025
GlyphClass: 2
Flags: W
AnchorPoint: "Anchor-4" 1025 941 basechar 0
AnchorPoint: "Anchor-3" 513 -100 basechar 0
AnchorPoint: "Anchor-2" 251 0 basechar 0
AnchorPoint: "Anchor-1" 513 -100 basechar 0
AnchorPoint: "Anchor-0" 513 1435 basechar 0
LayerCount: 2
Fore
SplineSet
562 0 m 1,0,-1
 562 38 l 1,1,2
 606 38 606 38 634 44 c 128,-1,3
 662 50 662 50 679 66.5 c 128,-1,4
 696 83 696 83 702.5 112.5 c 128,-1,5
 709 142 709 142 709 188 c 2,6,-1
 709 530 l 2,7,8
 709 575 709 575 708.5 626 c 128,-1,9
 708 677 708 677 695.5 720.5 c 128,-1,10
 683 764 683 764 652.5 793 c 128,-1,11
 622 822 622 822 562 822 c 0,12,13
 539 822 539 822 514.5 817.5 c 128,-1,14
 490 813 490 813 462.5 799 c 128,-1,15
 435 785 435 785 403.5 759 c 128,-1,16
 372 733 372 733 335 690 c 1,17,-1
 335 188 l 2,18,19
 335 142 335 142 339.5 112.5 c 128,-1,20
 344 83 344 83 359 66.5 c 128,-1,21
 374 50 374 50 403 44 c 128,-1,22
 432 38 432 38 481 38 c 1,23,-1
 481 0 l 1,24,-1
 28 0 l 1,25,-1
 28 38 l 1,26,27
 73 38 73 38 100.5 46 c 128,-1,28
 128 54 128 54 142.5 71.5 c 128,-1,29
 157 89 157 89 162 117.5 c 128,-1,30
 167 146 167 146 167 188 c 2,31,-1
 167 1155 l 2,32,33
 167 1227 167 1227 154 1260 c 128,-1,34
 141 1293 141 1293 100 1293 c 0,35,36
 87 1293 87 1293 68.5 1289.5 c 128,-1,37
 50 1286 50 1286 28 1277 c 1,38,-1
 12 1313 l 1,39,-1
 288 1423 l 1,40,-1
 335 1423 l 1,41,-1
 335 753 l 1,42,43
 375 813 375 813 414 850 c 128,-1,44
 453 887 453 887 491 907.5 c 128,-1,45
 529 928 529 928 566 935 c 128,-1,46
 603 942 603 942 639 942 c 0,47,48
 697 942 697 942 737 924 c 128,-1,49
 777 906 777 906 803.5 875 c 128,-1,50
 830 844 830 844 845 803 c 128,-1,51
 860 762 860 762 867 716.5 c 128,-1,52
 874 671 874 671 875.5 623 c 128,-1,53
 877 575 877 575 877 530 c 2,54,-1
 877 188 l 2,55,56
 877 144 877 144 881.5 115 c 128,-1,57
 886 86 886 86 900.5 69 c 128,-1,58
 915 52 915 52 942 45 c 128,-1,59
 969 38 969 38 1015 38 c 1,60,-1
 1015 0 l 1,61,-1
 562 0 l 1,0,-1
EndSplineSet
Validated: 1
Substitution2: "Single Substitution lookup 47 subtable" naturalsuperior
Substitution2: "Single Substitution lookup 46 subtable" naturalsuperior
Substitution2: "Single Substitution lookup 45 subtable" naturalsuperior
Substitution2: "Single Substitution lookup 43 subtable" naturalsuperior
Substitution2: "Single Substitution lookup 42 subtable" naturalsuperior
Substitution2: "Single Substitution lookup 19 subtable" naturalsuperior
Substitution2: "Single Substitution lookup 18 subtable" natural
Substitution2: "Single Substitution lookup 17 subtable" natural
EndChar

StartChar: i
Encoding: 105 105 72
Width: 570
GlyphClass: 2
Flags: W
AnchorPoint: "Anchor-4" 570 900 basechar 0
AnchorPoint: "Anchor-3" 444 0 basechar 0
AnchorPoint: "Anchor-2" 294 0 basechar 0
AnchorPoint: "Anchor-1" 300 -100 basechar 0
AnchorPoint: "Anchor-0" 294 1000 basechar 0
LayerCount: 2
Fore
SplineSet
402 1228 m 0,0,1
 402 1185 402 1185 373.5 1155 c 128,-1,2
 345 1125 345 1125 301 1125 c 256,3,4
 257 1125 257 1125 228 1154 c 128,-1,5
 199 1183 199 1183 199 1228 c 0,6,7
 199 1250 199 1250 207 1268.5 c 128,-1,8
 215 1287 215 1287 229 1300 c 128,-1,9
 243 1313 243 1313 261.5 1320.5 c 128,-1,10
 280 1328 280 1328 301 1328 c 256,11,12
 322 1328 322 1328 340.5 1320 c 128,-1,13
 359 1312 359 1312 372.5 1298.5 c 128,-1,14
 386 1285 386 1285 394 1267 c 128,-1,15
 402 1249 402 1249 402 1228 c 0,0,1
77 0 m 1,16,-1
 77 38 l 1,17,18
 120 38 120 38 147.5 44 c 128,-1,19
 175 50 175 50 190.5 66.5 c 128,-1,20
 206 83 206 83 211.5 112.5 c 128,-1,21
 217 142 217 142 217 188 c 2,22,-1
 217 678 l 2,23,24
 217 744 217 744 202.5 778 c 128,-1,25
 188 812 188 812 148 812 c 0,26,27
 134 812 134 812 117 808 c 128,-1,28
 100 804 100 804 77 796 c 1,29,-1
 64 832 l 1,30,-1
 341 942 l 1,31,-1
 384 942 l 1,32,-1
 384 188 l 2,33,34
 384 142 384 142 390 112.5 c 128,-1,35
 396 83 396 83 411.5 66.5 c 128,-1,36
 427 50 427 50 454.5 44 c 128,-1,37
 482 38 482 38 525 38 c 1,38,-1
 525 0 l 1,39,-1
 77 0 l 1,16,-1
EndSplineSet
Validated: 1
EndChar

StartChar: j
Encoding: 106 106 73
Width: 570
GlyphClass: 2
Flags: W
AnchorPoint: "Anchor-4" 570 941 basechar 0
AnchorPoint: "Anchor-3" 121 -500 basechar 0
AnchorPoint: "Anchor-2" 121 -500 basechar 0
AnchorPoint: "Anchor-1" 121 -500 basechar 0
AnchorPoint: "Anchor-0" 300 1000 basechar 0
LayerCount: 2
Fore
SplineSet
400 1228 m 256,0,1
 400 1207 400 1207 392.5 1188.5 c 128,-1,2
 385 1170 385 1170 371 1156 c 128,-1,3
 357 1142 357 1142 338.5 1133.5 c 128,-1,4
 320 1125 320 1125 297 1125 c 0,5,6
 253 1125 253 1125 224 1154 c 128,-1,7
 195 1183 195 1183 195 1228 c 0,8,9
 195 1249 195 1249 203.5 1267.5 c 128,-1,10
 212 1286 212 1286 226 1300 c 128,-1,11
 240 1314 240 1314 258.5 1322 c 128,-1,12
 277 1330 277 1330 297 1330 c 0,13,14
 316 1330 316 1330 334.5 1322 c 128,-1,15
 353 1314 353 1314 367.5 1300 c 128,-1,16
 382 1286 382 1286 391 1267.5 c 128,-1,17
 400 1249 400 1249 400 1228 c 256,0,1
384 19 m 2,18,19
 384 -100 384 -100 357 -187 c 128,-1,20
 330 -274 330 -274 281.5 -331 c 128,-1,21
 233 -388 233 -388 166.5 -416 c 128,-1,22
 100 -444 100 -444 22 -444 c 0,23,24
 -26 -444 -26 -444 -60 -434 c 128,-1,25
 -94 -424 -94 -424 -115 -409 c 128,-1,26
 -136 -394 -136 -394 -146.5 -376 c 128,-1,27
 -157 -358 -157 -358 -158 -343 c 0,28,29
 -158 -306 -158 -306 -133.5 -281 c 128,-1,30
 -109 -256 -109 -256 -75 -256 c 0,31,32
 -40 -256 -40 -256 -14.5 -271.5 c 128,-1,33
 11 -287 11 -287 43 -320 c 0,34,35
 89 -363 89 -363 124 -363 c 0,36,37
 160 -363 160 -363 179 -338.5 c 128,-1,38
 198 -314 198 -314 206.5 -275 c 128,-1,39
 215 -236 215 -236 216 -188.5 c 128,-1,40
 217 -141 217 -141 217 -94 c 2,41,-1
 217 558 l 2,42,43
 217 623 217 623 215.5 666 c 128,-1,44
 214 709 214 709 210.5 736.5 c 128,-1,45
 207 764 207 764 201.5 778 c 128,-1,46
 196 792 196 792 188 798 c 0,47,48
 168 813 168 813 143 812 c 128,-1,49
 118 811 118 811 75 796 c 1,50,-1
 64 832 l 1,51,-1
 341 942 l 1,52,-1
 384 942 l 1,53,-1
 384 19 l 2,18,19
EndSplineSet
Validated: 1
EndChar

StartChar: k
Encoding: 107 107 74
Width: 1025
GlyphClass: 2
Flags: W
AnchorPoint: "Anchor-4" 1025 900 basechar 0
AnchorPoint: "Anchor-3" 525 -100 basechar 0
AnchorPoint: "Anchor-2" 250 0 basechar 0
AnchorPoint: "Anchor-1" 525 -100 basechar 0
AnchorPoint: "Anchor-0" 525 1435 basechar 0
LayerCount: 2
Fore
SplineSet
591 0 m 1,0,-1
 591 38 l 1,1,2
 620 38 620 38 634 42.5 c 128,-1,3
 648 47 648 47 653 61 c 0,4,5
 656 69 656 69 656 77 c 0,6,7
 656 86 656 86 652.5 96 c 128,-1,8
 649 106 649 106 640.5 119.5 c 128,-1,9
 632 133 632 133 617 152 c 2,10,-1
 337 506 l 1,11,-1
 337 207 l 2,12,13
 337 174 337 174 338 152 c 128,-1,14
 339 130 339 130 341.5 114.5 c 128,-1,15
 344 99 344 99 348 89 c 128,-1,16
 352 79 352 79 359 71 c 0,17,18
 368 61 368 61 376.5 54.5 c 128,-1,19
 385 48 385 48 398 44 c 128,-1,20
 411 40 411 40 431 39 c 128,-1,21
 451 38 451 38 483 38 c 1,22,-1
 483 0 l 1,23,-1
 13 0 l 1,24,-1
 13 38 l 1,25,26
 61 38 61 38 92 43.5 c 128,-1,27
 123 49 123 49 140 67 c 0,28,29
 154 82 154 82 160 114 c 128,-1,30
 166 146 166 146 166 201 c 2,31,-1
 166 1035 l 2,32,33
 166 1114 166 1114 165 1159 c 128,-1,34
 164 1204 164 1204 161 1228.5 c 128,-1,35
 158 1253 158 1253 152.5 1262.5 c 128,-1,36
 147 1272 147 1272 138 1279 c 0,37,38
 132 1284 132 1284 124 1288 c 128,-1,39
 116 1292 116 1292 104 1293 c 128,-1,40
 92 1294 92 1294 75 1290.5 c 128,-1,41
 58 1287 58 1287 34 1277 c 1,42,-1
 13 1313 l 1,43,-1
 290 1423 l 1,44,-1
 337 1423 l 1,45,-1
 337 528 l 1,46,-1
 568 724 l 2,47,48
 600 751 600 751 619 768.5 c 128,-1,49
 638 786 638 786 647.5 798 c 128,-1,50
 657 810 657 810 659.5 818 c 128,-1,51
 662 826 662 826 662 833 c 0,52,53
 662 854 662 854 646 868 c 128,-1,54
 630 882 630 882 591 885 c 1,55,-1
 591 916 l 1,56,-1
 989 916 l 1,57,-1
 989 885 l 1,58,59
 907 882 907 882 854 859 c 0,60,61
 827 848 827 848 797.5 828 c 128,-1,62
 768 808 768 808 733 777 c 2,63,-1
 493 562 l 1,64,-1
 733 262 l 2,65,66
 772 213 772 213 798.5 180.5 c 128,-1,67
 825 148 825 148 843.5 127.5 c 128,-1,68
 862 107 862 107 875 95 c 128,-1,69
 888 83 888 83 899 75 c 128,-1,70
 910 67 910 67 921.5 61 c 128,-1,71
 933 55 933 55 950 45 c 0,72,73
 960 40 960 40 982 39 c 128,-1,74
 1004 38 1004 38 1037 38 c 1,75,-1
 1037 0 l 1,76,-1
 591 0 l 1,0,-1
EndSplineSet
Validated: 1
EndChar

StartChar: l
Encoding: 108 108 75
Width: 570
GlyphClass: 2
Flags: W
AnchorPoint: "Anchor-4" 470 900 basechar 0
AnchorPoint: "Anchor-3" 292 -100 basechar 0
AnchorPoint: "Anchor-2" 293 0 basechar 0
AnchorPoint: "Anchor-1" 292 -100 basechar 0
AnchorPoint: "Anchor-0" 292 1475 basechar 0
LayerCount: 2
Fore
SplineSet
77 0 m 1,0,-1
 77 38 l 1,1,2
 123 38 123 38 145 43 c 128,-1,3
 167 48 167 48 183 69 c 0,4,5
 189 77 189 77 194 87.5 c 128,-1,6
 199 98 199 98 203 114 c 128,-1,7
 207 130 207 130 209 152.5 c 128,-1,8
 211 175 211 175 211 207 c 2,9,-1
 211 1038 l 2,10,11
 211 1116 211 1116 209.5 1161 c 128,-1,12
 208 1206 208 1206 204.5 1230 c 128,-1,13
 201 1254 201 1254 196 1263 c 128,-1,14
 191 1272 191 1272 183 1279 c 0,15,16
 174 1285 174 1285 164 1288.5 c 128,-1,17
 154 1292 154 1292 142 1292 c 256,18,19
 130 1292 130 1292 114 1288.5 c 128,-1,20
 98 1285 98 1285 77 1277 c 1,21,-1
 59 1313 l 1,22,-1
 335 1423 l 1,23,-1
 378 1423 l 1,24,-1
 378 207 l 2,25,26
 378 177 378 177 379.5 155.5 c 128,-1,27
 381 134 381 134 384 118.5 c 128,-1,28
 387 103 387 103 392 92.5 c 128,-1,29
 397 82 397 82 404 73 c 256,30,31
 411 64 411 64 420 57.5 c 128,-1,32
 429 51 429 51 442.5 46.5 c 128,-1,33
 456 42 456 42 476.5 40 c 128,-1,34
 497 38 497 38 526 38 c 1,35,-1
 526 0 l 1,36,-1
 77 0 l 1,0,-1
EndSplineSet
Validated: 1
EndChar

StartChar: m
Encoding: 109 109 76
Width: 1595
GlyphClass: 2
Flags: W
AnchorPoint: "Anchor-4" 1595 941 basechar 0
AnchorPoint: "Anchor-3" 800 -100 basechar 0
AnchorPoint: "Anchor-2" 1365 0 basechar 0
AnchorPoint: "Anchor-1" 800 -100 basechar 0
AnchorPoint: "Anchor-0" 800 1000 basechar 0
LayerCount: 2
Fore
SplineSet
1134 0 m 1,0,-1
 1134 38 l 1,1,2
 1188 38 1188 38 1217.5 47 c 128,-1,3
 1247 56 1247 56 1261 76 c 128,-1,4
 1275 96 1275 96 1278 128.5 c 128,-1,5
 1281 161 1281 161 1281 207 c 2,6,-1
 1281 603 l 2,7,8
 1281 665 1281 665 1272 707 c 128,-1,9
 1263 749 1263 749 1244 775 c 128,-1,10
 1225 801 1225 801 1196.5 812.5 c 128,-1,11
 1168 824 1168 824 1130 824 c 0,12,13
 1108 824 1108 824 1081.5 818.5 c 128,-1,14
 1055 813 1055 813 1025.5 799 c 128,-1,15
 996 785 996 785 963 761 c 128,-1,16
 930 737 930 737 893 700 c 1,17,-1
 893 207 l 2,18,19
 893 158 893 158 896.5 125.5 c 128,-1,20
 900 93 900 93 914.5 73.5 c 128,-1,21
 929 54 929 54 958.5 46 c 128,-1,22
 988 38 988 38 1040 38 c 1,23,-1
 1040 0 l 1,24,-1
 576 0 l 1,25,-1
 576 38 l 1,26,27
 634 38 634 38 665 48 c 128,-1,28
 696 58 696 58 709.5 79 c 128,-1,29
 723 100 723 100 724.5 132 c 128,-1,30
 726 164 726 164 726 207 c 2,31,-1
 726 603 l 2,32,33
 726 664 726 664 715 706.5 c 128,-1,34
 704 749 704 749 684 775.5 c 128,-1,35
 664 802 664 802 635 814 c 128,-1,36
 606 826 606 826 570 826 c 256,37,38
 534 826 534 826 500.5 814.5 c 128,-1,39
 467 803 467 803 437.5 785 c 128,-1,40
 408 767 408 767 382 744.5 c 128,-1,41
 356 722 356 722 335 700 c 1,42,-1
 335 207 l 2,43,44
 335 149 335 149 341.5 115.5 c 128,-1,45
 348 82 348 82 364.5 65 c 128,-1,46
 381 48 381 48 410 43 c 128,-1,47
 439 38 439 38 483 38 c 1,48,-1
 483 0 l 1,49,-1
 30 0 l 1,50,-1
 30 38 l 1,51,52
 74 38 74 38 100.5 44.5 c 128,-1,53
 127 51 127 51 142 69 c 128,-1,54
 157 87 157 87 162 120 c 128,-1,55
 167 153 167 153 167 207 c 2,56,-1
 167 558 l 2,57,58
 167 634 167 634 166.5 688.5 c 128,-1,59
 166 743 166 743 154.5 773.5 c 128,-1,60
 143 804 143 804 114.5 810 c 128,-1,61
 86 816 86 816 30 796 c 1,62,-1
 13 832 l 1,63,-1
 292 942 l 1,64,-1
 335 942 l 1,65,-1
 335 749 l 1,66,67
 391 809 391 809 434.5 847 c 128,-1,68
 478 885 478 885 515.5 906 c 128,-1,69
 553 927 553 927 586 934.5 c 128,-1,70
 619 942 619 942 653 942 c 0,71,72
 694 942 694 942 731 930.5 c 128,-1,73
 768 919 768 919 798.5 895.5 c 128,-1,74
 829 872 829 872 851.5 835.5 c 128,-1,75
 874 799 874 799 885 749 c 1,76,77
 936 808 936 808 978 845 c 128,-1,78
 1020 882 1020 882 1058 904 c 128,-1,79
 1096 926 1096 926 1132 934 c 128,-1,80
 1168 942 1168 942 1206 942 c 0,81,82
 1262 942 1262 942 1306.5 924 c 128,-1,83
 1351 906 1351 906 1382.5 865.5 c 128,-1,84
 1414 825 1414 825 1431 760.5 c 128,-1,85
 1448 696 1448 696 1448 603 c 2,86,-1
 1448 207 l 2,87,88
 1448 155 1448 155 1454 122 c 128,-1,89
 1460 89 1460 89 1476 70 c 128,-1,90
 1492 51 1492 51 1518.5 44.5 c 128,-1,91
 1545 38 1545 38 1587 38 c 1,92,-1
 1587 0 l 1,93,-1
 1134 0 l 1,0,-1
EndSplineSet
Validated: 33
EndChar

StartChar: n
Encoding: 110 110 77
Width: 1025
GlyphClass: 2
Flags: W
AnchorPoint: "Anchor-4" 1025 941 basechar 0
AnchorPoint: "Anchor-3" 515 -100 basechar 0
AnchorPoint: "Anchor-2" 790 0 basechar 0
AnchorPoint: "Anchor-1" 515 -100 basechar 0
AnchorPoint: "Anchor-0" 515 1000 basechar 0
LayerCount: 2
Fore
SplineSet
562 0 m 1,0,-1
 562 38 l 1,1,2
 613 38 613 38 642.5 44.5 c 128,-1,3
 672 51 672 51 687.5 69.5 c 128,-1,4
 703 88 703 88 707 121 c 128,-1,5
 711 154 711 154 711 207 c 2,6,-1
 711 581 l 2,7,8
 711 643 711 643 704 688.5 c 128,-1,9
 697 734 697 734 680 763 c 128,-1,10
 663 792 663 792 636 806 c 128,-1,11
 609 820 609 820 568 820 c 0,12,13
 510 820 510 820 450.5 788 c 128,-1,14
 391 756 391 756 331 690 c 1,15,-1
 331 207 l 2,16,17
 331 153 331 153 335.5 120 c 128,-1,18
 340 87 340 87 356 69 c 128,-1,19
 372 51 372 51 401.5 44.5 c 128,-1,20
 431 38 431 38 481 38 c 1,21,-1
 481 0 l 1,22,-1
 26 0 l 1,23,-1
 26 38 l 1,24,25
 69 38 69 38 96 44.5 c 128,-1,26
 123 51 123 51 138 70 c 128,-1,27
 153 89 153 89 158.5 122 c 128,-1,28
 164 155 164 155 164 207 c 2,29,-1
 164 548 l 2,30,31
 164 630 164 630 162 677 c 128,-1,32
 160 724 160 724 156.5 749 c 128,-1,33
 153 774 153 774 147.5 783 c 128,-1,34
 142 792 142 792 134 798 c 0,35,36
 101 827 101 827 26 796 c 1,37,-1
 10 832 l 1,38,-1
 290 942 l 1,39,-1
 331 942 l 1,40,-1
 331 751 l 1,41,42
 494 942 494 942 639 942 c 0,43,44
 706 942 706 942 752 917.5 c 128,-1,45
 798 893 798 893 826 848 c 128,-1,46
 854 803 854 803 866.5 740 c 128,-1,47
 879 677 879 677 879 600 c 2,48,-1
 879 207 l 2,49,50
 879 156 879 156 884 123 c 128,-1,51
 889 90 889 90 904 71.5 c 128,-1,52
 919 53 919 53 947 45.5 c 128,-1,53
 975 38 975 38 1021 38 c 1,54,-1
 1021 0 l 1,55,-1
 562 0 l 1,0,-1
EndSplineSet
Validated: 33
EndChar

StartChar: o
Encoding: 111 111 78
Width: 1025
GlyphClass: 2
Flags: W
AnchorPoint: "Anchor-4" 1025 900 basechar 0
AnchorPoint: "Anchor-3" 717 0 basechar 0
AnchorPoint: "Anchor-2" 511 0 basechar 0
AnchorPoint: "Anchor-1" 511 -100 basechar 0
AnchorPoint: "Anchor-0" 511 1000 basechar 0
LayerCount: 2
Fore
SplineSet
954 475 m 0,0,1
 954 416 954 416 941.5 355.5 c 128,-1,2
 929 295 929 295 904 239 c 128,-1,3
 879 183 879 183 841 134 c 128,-1,4
 803 85 803 85 753 48.5 c 128,-1,5
 703 12 703 12 640 -9 c 128,-1,6
 577 -30 577 -30 502 -30 c 0,7,8
 406 -30 406 -30 326.5 9 c 128,-1,9
 247 48 247 48 189.5 114 c 128,-1,10
 132 180 132 180 100.5 267 c 128,-1,11
 69 354 69 354 69 449 c 0,12,13
 69 542 69 542 99.5 630.5 c 128,-1,14
 130 719 130 719 187.5 788 c 128,-1,15
 245 857 245 857 327 899.5 c 128,-1,16
 409 942 409 942 512 942 c 0,17,18
 611 942 611 942 692 906 c 128,-1,19
 773 870 773 870 831.5 807 c 128,-1,20
 890 744 890 744 922 658.5 c 128,-1,21
 954 573 954 573 954 475 c 0,0,1
767 398 m 0,22,23
 767 500 767 500 747 588 c 128,-1,24
 727 676 727 676 690 740.5 c 128,-1,25
 653 805 653 805 600 842 c 128,-1,26
 547 879 547 879 481 879 c 0,27,28
 442 879 442 879 401.5 862 c 128,-1,29
 361 845 361 845 328 805 c 128,-1,30
 295 765 295 765 274.5 698.5 c 128,-1,31
 254 632 254 632 254 532 c 0,32,33
 254 434 254 434 274.5 345 c 128,-1,34
 295 256 295 256 333 189 c 128,-1,35
 371 122 371 122 424.5 82.5 c 128,-1,36
 478 43 478 43 544 43 c 0,37,38
 594 43 594 43 635 61.5 c 128,-1,39
 676 80 676 80 705 122 c 128,-1,40
 734 164 734 164 750.5 232 c 128,-1,41
 767 300 767 300 767 398 c 0,22,23
EndSplineSet
Validated: 1
Substitution2: "Single Substitution lookup 21 subtable" diminished
EndChar

StartChar: p
Encoding: 112 112 79
Width: 1025
GlyphClass: 2
Flags: W
AnchorPoint: "Anchor-4" 1025 900 basechar 0
AnchorPoint: "Anchor-3" 472 -500 basechar 0
AnchorPoint: "Anchor-2" 230 -435 basechar 0
AnchorPoint: "Anchor-1" 472 -500 basechar 0
AnchorPoint: "Anchor-0" 472 1000 basechar 0
LayerCount: 2
Fore
SplineSet
956 493 m 0,0,1
 956 385 956 385 925.5 290 c 128,-1,2
 895 195 895 195 839.5 123.5 c 128,-1,3
 784 52 784 52 707 11 c 128,-1,4
 630 -30 630 -30 536 -30 c 0,5,6
 514 -30 514 -30 489 -28 c 128,-1,7
 464 -26 464 -26 437 -17.5 c 128,-1,8
 410 -9 410 -9 380 7.5 c 128,-1,9
 350 24 350 24 318 53 c 1,10,-1
 318 -224 l 2,11,12
 318 -278 318 -278 321.5 -312 c 128,-1,13
 325 -346 325 -346 340.5 -365.5 c 128,-1,14
 356 -385 356 -385 387.5 -392.5 c 128,-1,15
 419 -400 419 -400 474 -402 c 1,16,-1
 474 -440 l 1,17,-1
 -12 -440 l 1,18,-1
 -12 -402 l 1,19,20
 44 -400 44 -400 76 -393 c 128,-1,21
 108 -386 108 -386 124 -366.5 c 128,-1,22
 140 -347 140 -347 144 -312 c 128,-1,23
 148 -277 148 -277 148 -220 c 2,24,-1
 148 647 l 2,25,26
 148 685 148 685 147.5 709.5 c 128,-1,27
 147 734 147 734 144 750.5 c 128,-1,28
 141 767 141 767 134 777 c 128,-1,29
 127 787 127 787 115 796 c 0,30,31
 99 807 99 807 74.5 808.5 c 128,-1,32
 50 810 50 810 6 792 c 1,33,-1
 -6 826 l 1,34,-1
 280 940 l 1,35,-1
 318 940 l 1,36,-1
 318 726 l 1,37,38
 353 786 353 786 388 827.5 c 128,-1,39
 423 869 423 869 459 894.5 c 128,-1,40
 495 920 495 920 533 931 c 128,-1,41
 571 942 571 942 613 942 c 0,42,43
 689 942 689 942 752 907.5 c 128,-1,44
 815 873 815 873 860.5 812.5 c 128,-1,45
 906 752 906 752 931 670 c 128,-1,46
 956 588 956 588 956 493 c 0,0,1
796 398 m 0,47,48
 796 509 796 509 775 589 c 128,-1,49
 754 669 754 669 718 720 c 128,-1,50
 682 771 682 771 634 795.5 c 128,-1,51
 586 820 586 820 532 820 c 0,52,53
 502 820 502 820 476.5 808.5 c 128,-1,54
 451 797 451 797 426 776.5 c 128,-1,55
 401 756 401 756 375 728 c 128,-1,56
 349 700 349 700 318 666 c 1,57,-1
 318 323 l 2,58,59
 318 216 318 216 327 177 c 0,60,61
 334 151 334 151 350 125 c 128,-1,62
 366 99 366 99 392 78.5 c 128,-1,63
 418 58 418 58 453 45 c 128,-1,64
 488 32 488 32 532 32 c 0,65,66
 591 32 591 32 639.5 57.5 c 128,-1,67
 688 83 688 83 722.5 130 c 128,-1,68
 757 177 757 177 776.5 245 c 128,-1,69
 796 313 796 313 796 398 c 0,47,48
EndSplineSet
Validated: 33
EndChar

StartChar: q
Encoding: 113 113 80
Width: 1025
GlyphClass: 2
Flags: W
AnchorPoint: "Anchor-4" 1025 900 basechar 0
AnchorPoint: "Anchor-3" 548 -500 basechar 0
AnchorPoint: "Anchor-2" 548 -500 basechar 0
AnchorPoint: "Anchor-1" 548 -500 basechar 0
AnchorPoint: "Anchor-0" 548 1000 basechar 0
LayerCount: 2
Fore
SplineSet
562 -440 m 1,0,-1
 562 -402 l 1,1,2
 606 -402 606 -402 634.5 -397.5 c 128,-1,3
 663 -393 663 -393 680 -376 c 128,-1,4
 697 -359 697 -359 704 -326.5 c 128,-1,5
 711 -294 711 -294 711 -237 c 2,6,-1
 711 160 l 1,7,8
 667 106 667 106 628.5 70 c 128,-1,9
 590 34 590 34 554.5 11.5 c 128,-1,10
 519 -11 519 -11 483.5 -20.5 c 128,-1,11
 448 -30 448 -30 410 -30 c 0,12,13
 347 -30 347 -30 286 0 c 128,-1,14
 225 30 225 30 176 87.5 c 128,-1,15
 127 145 127 145 97 228.5 c 128,-1,16
 67 312 67 312 67 418 c 0,17,18
 67 533 67 533 103 629 c 128,-1,19
 139 725 139 725 203 794.5 c 128,-1,20
 267 864 267 864 353.5 903 c 128,-1,21
 440 942 440 942 540 942 c 0,22,23
 597 942 597 942 645.5 928.5 c 128,-1,24
 694 915 694 915 729 879 c 1,25,26
 759 894 759 894 788.5 909 c 128,-1,27
 818 924 818 924 844 942 c 1,28,-1
 879 942 l 1,29,-1
 879 -237 l 2,30,31
 879 -289 879 -289 885 -321.5 c 128,-1,32
 891 -354 891 -354 907.5 -372 c 128,-1,33
 924 -390 924 -390 953.5 -396 c 128,-1,34
 983 -402 983 -402 1029 -402 c 1,35,-1
 1029 -440 l 1,36,-1
 562 -440 l 1,0,-1
711 653 m 2,37,38
 711 702 711 702 698.5 742.5 c 128,-1,39
 686 783 686 783 661 812 c 128,-1,40
 636 841 636 841 597.5 857 c 128,-1,41
 559 873 559 873 508 873 c 0,42,43
 453 873 453 873 403.5 849.5 c 128,-1,44
 354 826 354 826 317 778.5 c 128,-1,45
 280 731 280 731 258.5 659.5 c 128,-1,46
 237 588 237 588 237 491 c 0,47,48
 237 396 237 396 259.5 325 c 128,-1,49
 282 254 282 254 320.5 207 c 128,-1,50
 359 160 359 160 409.5 136.5 c 128,-1,51
 460 113 460 113 515 113 c 0,52,53
 547 113 547 113 573 120 c 128,-1,54
 599 127 599 127 622 140.5 c 128,-1,55
 645 154 645 154 666.5 174 c 128,-1,56
 688 194 688 194 711 220 c 1,57,-1
 711 653 l 2,37,38
EndSplineSet
Validated: 1
EndChar

StartChar: r
Encoding: 114 114 81
Width: 702
GlyphClass: 2
Flags: W
AnchorPoint: "Anchor-4" 702 941 basechar 0
AnchorPoint: "Anchor-3" 353 -100 basechar 0
AnchorPoint: "Anchor-2" 256 0 basechar 0
AnchorPoint: "Anchor-1" 353 -100 basechar 0
AnchorPoint: "Anchor-0" 353 1000 basechar 0
LayerCount: 2
Fore
SplineSet
698 832 m 0,0,1
 698 814 698 814 691 797 c 128,-1,2
 684 780 684 780 671.5 767.5 c 128,-1,3
 659 755 659 755 642.5 747 c 128,-1,4
 626 739 626 739 607 739 c 0,5,6
 582 739 582 739 562.5 750 c 128,-1,7
 543 761 543 761 527 774.5 c 128,-1,8
 511 788 511 788 496 799 c 128,-1,9
 481 810 481 810 465 810 c 0,10,11
 440 810 440 810 404.5 768.5 c 128,-1,12
 369 727 369 727 331 654 c 1,13,-1
 331 213 l 2,14,15
 331 170 331 170 338 137 c 128,-1,16
 345 104 345 104 363 82 c 128,-1,17
 381 60 381 60 412.5 49 c 128,-1,18
 444 38 444 38 493 38 c 1,19,-1
 493 0 l 1,20,-1
 17 0 l 1,21,-1
 17 38 l 1,22,23
 60 38 60 38 88.5 42.5 c 128,-1,24
 117 47 117 47 133.5 64 c 128,-1,25
 150 81 150 81 157 115 c 128,-1,26
 164 149 164 149 164 207 c 2,27,-1
 164 562 l 2,28,29
 164 634 164 634 162.5 676.5 c 128,-1,30
 161 719 161 719 157.5 743 c 128,-1,31
 154 767 154 767 148 778 c 128,-1,32
 142 789 142 789 134 798 c 1,33,34
 112 810 112 810 85.5 812 c 128,-1,35
 59 814 59 814 17 796 c 1,36,-1
 8 832 l 1,37,-1
 292 942 l 1,38,-1
 331 942 l 1,39,-1
 331 737 l 1,40,41
 445 942 445 942 568 942 c 0,42,43
 595 942 595 942 619 934 c 128,-1,44
 643 926 643 926 660.5 911.5 c 128,-1,45
 678 897 678 897 688 876.5 c 128,-1,46
 698 856 698 856 698 832 c 0,0,1
EndSplineSet
Validated: 33
EndChar

StartChar: s
Encoding: 115 115 82
Width: 798
GlyphClass: 2
Flags: W
AnchorPoint: "Anchor-4" 798 941 basechar 0
AnchorPoint: "Anchor-3" 413 -100 basechar 0
AnchorPoint: "Anchor-2" 413 0 basechar 0
AnchorPoint: "Anchor-1" 413 -100 basechar 0
AnchorPoint: "Anchor-0" 413 1000 basechar 0
LayerCount: 2
Fore
SplineSet
726 231 m 0,0,1
 726 179 726 179 701 131.5 c 128,-1,2
 676 84 676 84 634 48 c 128,-1,3
 592 12 592 12 536.5 -9 c 128,-1,4
 481 -30 481 -30 420 -30 c 0,5,6
 383 -30 383 -30 348.5 -21.5 c 128,-1,7
 314 -13 314 -13 282.5 -2 c 128,-1,8
 251 9 251 9 223.5 19 c 128,-1,9
 196 29 196 29 173 32 c 0,10,11
 162 32 162 32 153 16 c 128,-1,12
 144 0 144 0 138 -13 c 1,13,-1
 105 -13 l 1,14,-1
 105 314 l 1,15,-1
 138 314 l 1,16,17
 151 244 151 244 178.5 191.5 c 128,-1,18
 206 139 206 139 243.5 103.5 c 128,-1,19
 281 68 281 68 326 50 c 128,-1,20
 371 32 371 32 420 32 c 0,21,22
 457 32 457 32 486 43 c 128,-1,23
 515 54 515 54 535 72.5 c 128,-1,24
 555 91 555 91 566 115.5 c 128,-1,25
 577 140 577 140 577 167 c 0,26,27
 578 201 578 201 569.5 229.5 c 128,-1,28
 561 258 561 258 536 285.5 c 128,-1,29
 511 313 511 313 465.5 343.5 c 128,-1,30
 420 374 420 374 345 412 c 0,31,32
 272 450 272 450 224.5 483 c 128,-1,33
 177 516 177 516 149.5 550 c 128,-1,34
 122 584 122 584 111 620 c 128,-1,35
 100 656 100 656 100 698 c 0,36,37
 100 749 100 749 119.5 793.5 c 128,-1,38
 139 838 139 838 177 871 c 128,-1,39
 215 904 215 904 270.5 923 c 128,-1,40
 326 942 326 942 398 942 c 0,41,42
 429 942 429 942 459.5 936.5 c 128,-1,43
 490 931 490 931 517 924.5 c 128,-1,44
 544 918 544 918 565 912.5 c 128,-1,45
 586 907 586 907 598 907 c 0,46,47
 612 907 612 907 621.5 912.5 c 128,-1,48
 631 918 631 918 643 942 c 1,49,-1
 676 942 l 1,50,-1
 676 630 l 1,51,-1
 643 630 l 1,52,53
 625 704 625 704 600 753 c 128,-1,54
 575 802 575 802 544 831 c 128,-1,55
 513 860 513 860 475.5 872.5 c 128,-1,56
 438 885 438 885 395 885 c 0,57,58
 303 885 303 885 260.5 851.5 c 128,-1,59
 218 818 218 818 217 765 c 0,60,61
 216 738 216 738 221.5 712.5 c 128,-1,62
 227 687 227 687 243.5 663.5 c 128,-1,63
 260 640 260 640 289.5 618 c 128,-1,64
 319 596 319 596 367 574 c 2,65,-1
 515 504 l 2,66,67
 619 456 619 456 672.5 387 c 128,-1,68
 726 318 726 318 726 231 c 0,0,1
EndSplineSet
Validated: 1
EndChar

StartChar: t
Encoding: 116 116 83
Width: 570
GlyphClass: 2
Flags: W
AnchorPoint: "Anchor-4" 570 900 basechar 0
AnchorPoint: "Anchor-3" 293 -100 basechar 0
AnchorPoint: "Anchor-2" 293 0 basechar 0
AnchorPoint: "Anchor-1" 293 -100 basechar 0
AnchorPoint: "Anchor-0" 285 1298 basechar 0
LayerCount: 2
Fore
SplineSet
572 167 m 1,0,1
 556 116 556 116 529 79 c 128,-1,2
 502 42 502 42 471 18 c 128,-1,3
 440 -6 440 -6 406.5 -18 c 128,-1,4
 373 -30 373 -30 343 -30 c 0,5,6
 310 -30 310 -30 278 -21 c 128,-1,7
 246 -12 246 -12 220 14.5 c 128,-1,8
 194 41 194 41 178 88.5 c 128,-1,9
 162 136 162 136 162 213 c 2,10,-1
 162 848 l 1,11,-1
 15 848 l 1,12,-1
 15 879 l 1,13,14
 56 894 56 894 101.5 931.5 c 128,-1,15
 147 969 147 969 186 1015 c 0,16,17
 200 1032 200 1032 211 1047 c 128,-1,18
 222 1062 222 1062 235 1083.5 c 128,-1,19
 248 1105 248 1105 263 1137 c 128,-1,20
 278 1169 278 1169 299 1218 c 1,21,-1
 329 1218 l 1,22,-1
 329 916 l 1,23,-1
 544 916 l 1,24,-1
 544 848 l 1,25,-1
 329 848 l 1,26,-1
 329 237 l 2,27,28
 329 192 329 192 336 163 c 128,-1,29
 343 134 343 134 355.5 117 c 128,-1,30
 368 100 368 100 384.5 93 c 128,-1,31
 401 86 401 86 420 85 c 0,32,33
 457 83 457 83 485.5 105.5 c 128,-1,34
 514 128 514 128 532 167 c 1,35,-1
 572 167 l 1,0,1
EndSplineSet
Validated: 33
EndChar

StartChar: u
Encoding: 117 117 84
Width: 1025
GlyphClass: 2
Flags: W
AnchorPoint: "Anchor-4" 995 900 basechar 0
AnchorPoint: "Anchor-3" 877 0 basechar 0
AnchorPoint: "Anchor-2" 475 0 basechar 0
AnchorPoint: "Anchor-1" 513 -100 basechar 0
AnchorPoint: "Anchor-0" 513 1000 basechar 0
LayerCount: 2
Fore
SplineSet
749 -30 m 1,0,-1
 704 -30 l 1,1,-1
 704 166 l 1,2,3
 646 105 646 105 602.5 67 c 128,-1,4
 559 29 559 29 523.5 7.5 c 128,-1,5
 488 -14 488 -14 457 -22 c 128,-1,6
 426 -30 426 -30 393 -30 c 0,7,8
 340 -30 340 -30 301.5 -13.5 c 128,-1,9
 263 3 263 3 236.5 30.5 c 128,-1,10
 210 58 210 58 194 94 c 128,-1,11
 178 130 178 130 169.5 169.5 c 128,-1,12
 161 209 161 209 158.5 250 c 128,-1,13
 156 291 156 291 156 327 c 2,14,-1
 156 737 l 2,15,16
 156 782 156 782 148 810 c 128,-1,17
 140 838 140 838 121.5 853 c 128,-1,18
 103 868 103 868 73 873.5 c 128,-1,19
 43 879 43 879 0 879 c 1,20,-1
 0 916 l 1,21,-1
 323 916 l 1,22,-1
 323 303 l 2,23,24
 323 264 323 264 328 226.5 c 128,-1,25
 333 189 333 189 349.5 159.5 c 128,-1,26
 366 130 366 130 396 112 c 128,-1,27
 426 94 426 94 475 94 c 0,28,29
 495 94 495 94 518.5 100 c 128,-1,30
 542 106 542 106 570.5 121 c 128,-1,31
 599 136 599 136 632 161 c 128,-1,32
 665 186 665 186 704 224 c 1,33,-1
 704 745 l 2,34,35
 704 787 704 787 695.5 812.5 c 128,-1,36
 687 838 687 838 669 852.5 c 128,-1,37
 651 867 651 867 623 872.5 c 128,-1,38
 595 878 595 878 556 879 c 1,39,-1
 556 916 l 1,40,-1
 871 916 l 1,41,-1
 871 243 l 2,42,43
 871 202 871 202 874.5 175.5 c 128,-1,44
 878 149 878 149 885.5 133 c 128,-1,45
 893 117 893 117 905 111 c 128,-1,46
 917 105 917 105 933 105 c 0,47,48
 947 105 947 105 969 108.5 c 128,-1,49
 991 112 991 112 1013 120 c 1,50,-1
 1027 85 l 1,51,-1
 749 -30 l 1,0,-1
EndSplineSet
Validated: 1
EndChar

StartChar: v
Encoding: 118 118 85
Width: 1025
GlyphClass: 2
Flags: W
AnchorPoint: "Anchor-4" 1025 941 basechar 0
AnchorPoint: "Anchor-3" 620 0 basechar 0
AnchorPoint: "Anchor-2" 525 0 basechar 0
AnchorPoint: "Anchor-1" 511 -100 basechar 0
AnchorPoint: "Anchor-0" 511 1000 basechar 0
LayerCount: 2
Fore
SplineSet
1008 879 m 1,0,1
 981 877 981 877 963.5 872.5 c 128,-1,2
 946 868 946 868 933 859 c 0,3,4
 916 842 916 842 901 818 c 128,-1,5
 886 794 886 794 871 758 c 2,6,-1
 546 -30 l 1,7,-1
 504 -30 l 1,8,-1
 175 747 l 2,9,10
 165 772 165 772 155 790 c 128,-1,11
 145 808 145 808 134 821 c 128,-1,12
 123 834 123 834 111 844 c 128,-1,13
 99 854 99 854 85 863 c 0,14,15
 76 868 76 868 59 871 c 128,-1,16
 42 874 42 874 15 879 c 1,17,-1
 15 916 l 1,18,-1
 449 916 l 1,19,-1
 449 879 l 1,20,-1
 420 879 l 2,21,22
 401 879 401 879 385 875.5 c 128,-1,23
 369 872 369 872 361 861 c 0,24,25
 341 840 341 840 339.5 808 c 128,-1,26
 338 776 338 776 361 726 c 2,27,-1
 574 220 l 1,28,-1
 788 747 l 2,29,30
 806 789 806 789 811 814 c 128,-1,31
 816 839 816 839 805 856 c 0,32,33
 802 860 802 860 796.5 864 c 128,-1,34
 791 868 791 868 780.5 871.5 c 128,-1,35
 770 875 770 875 752.5 877 c 128,-1,36
 735 879 735 879 707 879 c 1,37,-1
 707 916 l 1,38,-1
 1008 916 l 1,39,-1
 1008 879 l 1,0,1
EndSplineSet
Validated: 33
EndChar

StartChar: w
Encoding: 119 119 86
Width: 1480
GlyphClass: 2
Flags: W
AnchorPoint: "Anchor-4" 1480 941 basechar 0
AnchorPoint: "Anchor-3" 737 -100 basechar 0
AnchorPoint: "Anchor-2" 737 -100 basechar 0
AnchorPoint: "Anchor-1" 737 -100 basechar 0
AnchorPoint: "Anchor-0" 737 1000 basechar 0
LayerCount: 2
Fore
SplineSet
1463 879 m 1,0,1
 1374 867 1374 867 1332 763 c 2,2,-1
 1027 -30 l 1,3,-1
 985 -30 l 1,4,-1
 756 558 l 1,5,-1
 491 -30 l 1,6,-1
 453 -30 l 1,7,-1
 158 741 l 2,8,9
 143 778 143 778 129 802 c 128,-1,10
 115 826 115 826 100 839 c 0,11,12
 89 853 89 853 66 863 c 128,-1,13
 43 873 43 873 12 879 c 1,14,-1
 12 916 l 1,15,-1
 398 916 l 1,16,-1
 398 879 l 1,17,18
 345 876 345 876 327 861 c 0,19,20
 310 844 310 844 309.5 816 c 128,-1,21
 309 788 309 788 327 741 c 2,22,-1
 525 215 l 1,23,-1
 722 645 l 1,24,-1
 670 781 l 2,25,26
 646 840 646 840 607 863 c 0,27,28
 584 876 584 876 525 879 c 1,29,-1
 525 916 l 1,30,-1
 961 916 l 1,31,-1
 961 879 l 1,32,33
 924 877 924 877 899 872 c 128,-1,34
 874 867 874 867 859 856 c 0,35,36
 853 850 853 850 848 839.5 c 128,-1,37
 843 829 843 829 840.5 816 c 128,-1,38
 838 803 838 803 839.5 789 c 128,-1,39
 841 775 841 775 848 763 c 2,40,-1
 1057 237 l 1,41,-1
 1247 741 l 2,42,43
 1269 797 1269 797 1269 828 c 0,44,45
 1269 834 1269 834 1266 842.5 c 128,-1,46
 1263 851 1263 851 1253 859.5 c 128,-1,47
 1243 868 1243 868 1224 873.5 c 128,-1,48
 1205 879 1205 879 1173 879 c 1,49,-1
 1173 916 l 1,50,-1
 1463 916 l 1,51,-1
 1463 879 l 1,0,1
EndSplineSet
Validated: 33
EndChar

StartChar: x
Encoding: 120 120 87
Width: 1025
GlyphClass: 2
Flags: W
AnchorPoint: "Anchor-4" 1025 941 basechar 0
AnchorPoint: "Anchor-3" 514 -100 basechar 0
AnchorPoint: "Anchor-2" 770 0 basechar 0
AnchorPoint: "Anchor-1" 514 -100 basechar 0
AnchorPoint: "Anchor-0" 514 1000 basechar 0
LayerCount: 2
Fore
SplineSet
568 0 m 1,0,-1
 568 38 l 1,1,2
 606 38 606 38 625.5 48 c 128,-1,3
 645 58 645 58 652.5 72 c 128,-1,4
 660 86 660 86 657.5 101 c 128,-1,5
 655 116 655 116 649 126 c 2,6,-1
 459 406 l 1,7,-1
 260 140 l 2,8,9
 250 127 250 127 246 110 c 128,-1,10
 242 93 242 93 249 77 c 128,-1,11
 256 61 256 61 276.5 50 c 128,-1,12
 297 39 297 39 335 38 c 1,13,-1
 335 0 l 1,14,-1
 36 0 l 1,15,-1
 36 38 l 1,16,17
 56 39 56 39 73.5 47 c 128,-1,18
 91 55 91 55 111.5 74 c 128,-1,19
 132 93 132 93 159 125.5 c 128,-1,20
 186 158 186 158 224 209 c 2,21,-1
 418 465 l 1,22,-1
 244 717 l 2,23,24
 207 772 207 772 180.5 803.5 c 128,-1,25
 154 835 154 835 131 851.5 c 128,-1,26
 108 868 108 868 84.5 873 c 128,-1,27
 61 878 61 878 28 879 c 1,28,-1
 28 916 l 1,29,-1
 459 916 l 1,30,-1
 459 879 l 1,31,32
 429 881 429 881 412.5 873 c 128,-1,33
 396 865 396 865 388.5 853 c 128,-1,34
 381 841 381 841 382 828 c 128,-1,35
 383 815 383 815 388 806 c 2,36,-1
 519 601 l 1,37,-1
 654 798 l 2,38,39
 662 809 662 809 664.5 823 c 128,-1,40
 667 837 667 837 661.5 849.5 c 128,-1,41
 656 862 656 862 639.5 870.5 c 128,-1,42
 623 879 623 879 593 879 c 1,43,-1
 593 916 l 1,44,-1
 903 916 l 1,45,-1
 903 879 l 1,46,47
 872 878 872 878 847 868.5 c 128,-1,48
 822 859 822 859 797 839 c 128,-1,49
 772 819 772 819 745 786.5 c 128,-1,50
 718 754 718 754 682 705 c 2,51,-1
 558 536 l 1,52,-1
 786 209 l 2,53,54
 807 179 807 179 820.5 160.5 c 128,-1,55
 834 142 834 142 846.5 127 c 128,-1,56
 859 112 859 112 872.5 98 c 128,-1,57
 886 84 886 84 907 64 c 0,58,59
 915 54 915 54 943 46.5 c 128,-1,60
 971 39 971 39 1001 38 c 1,61,-1
 1001 0 l 1,62,-1
 568 0 l 1,0,-1
EndSplineSet
Validated: 1
Substitution2: "Single Substitution lookup 8 subtable" doublesharp
EndChar

StartChar: y
Encoding: 121 121 88
Width: 1025
GlyphClass: 2
Flags: W
AnchorPoint: "Anchor-4" 1025 900 basechar 0
AnchorPoint: "Anchor-3" 513 -500 basechar 0
AnchorPoint: "Anchor-2" 513 -500 basechar 0
AnchorPoint: "Anchor-1" 513 -500 basechar 0
AnchorPoint: "Anchor-0" 550 1000 basechar 0
LayerCount: 2
Fore
SplineSet
1013 879 m 1,0,1
 991 878 991 878 974 873 c 128,-1,2
 957 868 957 868 941.5 853.5 c 128,-1,3
 926 839 926 839 911 812.5 c 128,-1,4
 896 786 896 786 877 741 c 2,5,-1
 504 -173 l 2,6,7
 478 -238 478 -238 442.5 -288.5 c 128,-1,8
 407 -339 407 -339 366.5 -373.5 c 128,-1,9
 326 -408 326 -408 282 -426 c 128,-1,10
 238 -444 238 -444 195 -444 c 0,11,12
 165 -444 165 -444 140 -435 c 128,-1,13
 115 -426 115 -426 97 -410.5 c 128,-1,14
 79 -395 79 -395 69 -374 c 128,-1,15
 59 -353 59 -353 59 -329 c 0,16,17
 59 -289 59 -289 85 -264 c 128,-1,18
 111 -239 111 -239 162 -239 c 0,19,20
 178 -239 178 -239 199.5 -244.5 c 128,-1,21
 221 -250 221 -250 242 -256.5 c 128,-1,22
 263 -263 263 -263 279 -268.5 c 128,-1,23
 295 -274 295 -274 301 -274 c 0,24,25
 317 -274 317 -274 334 -266.5 c 128,-1,26
 351 -259 351 -259 368.5 -241.5 c 128,-1,27
 386 -224 386 -224 404 -195 c 128,-1,28
 422 -166 422 -166 440 -122 c 2,29,-1
 504 38 l 1,30,-1
 175 728 l 2,31,32
 166 746 166 746 153.5 770.5 c 128,-1,33
 141 795 141 795 122 818 c 128,-1,34
 103 841 103 841 76 858.5 c 128,-1,35
 49 876 49 876 12 879 c 1,36,-1
 12 916 l 1,37,-1
 440 916 l 1,38,-1
 440 879 l 1,39,-1
 418 879 l 2,40,41
 381 879 381 879 354 862 c 128,-1,42
 327 845 327 845 327 812 c 0,43,44
 327 791 327 791 335.5 765 c 128,-1,45
 344 739 344 739 361 704 c 2,46,-1
 583 243 l 1,47,-1
 788 749 l 2,48,49
 803 777 803 777 807.5 808.5 c 128,-1,50
 812 840 812 840 800 857 c 0,51,52
 797 861 797 861 793 865 c 128,-1,53
 789 869 789 869 780 872 c 128,-1,54
 771 875 771 875 755.5 877 c 128,-1,55
 740 879 740 879 715 879 c 1,56,-1
 715 916 l 1,57,-1
 1013 916 l 1,58,-1
 1013 879 l 1,0,1
EndSplineSet
Validated: 1
EndChar

StartChar: z
Encoding: 122 122 89
Width: 910
GlyphClass: 2
Flags: W
AnchorPoint: "Anchor-4" 910 941 basechar 0
AnchorPoint: "Anchor-3" 459 -100 basechar 0
AnchorPoint: "Anchor-2" 459 0 basechar 0
AnchorPoint: "Anchor-1" 459 -100 basechar 0
AnchorPoint: "Anchor-0" 459 1000 basechar 0
LayerCount: 2
Fore
SplineSet
262 67 m 1,0,-1
 598 67 l 2,1,2
 701 67 701 67 737 85 c 0,3,4
 754 93 754 93 767 101 c 128,-1,5
 780 109 780 109 790.5 127.5 c 128,-1,6
 801 146 801 146 810 181.5 c 128,-1,7
 819 217 819 217 826 280 c 1,8,-1
 861 280 l 1,9,-1
 850 0 l 1,10,-1
 41 0 l 1,11,-1
 41 38 l 1,12,-1
 651 848 l 1,13,-1
 348 848 l 2,14,15
 301 848 301 848 269.5 843.5 c 128,-1,16
 238 839 238 839 220 833 c 0,17,18
 191 820 191 820 170 782 c 128,-1,19
 149 744 149 744 141 662 c 1,20,-1
 102 662 l 1,21,-1
 109 916 l 1,22,-1
 877 916 l 1,23,-1
 877 879 l 1,24,-1
 262 67 l 1,0,-1
EndSplineSet
Validated: 1
EndChar

StartChar: braceleft
Encoding: 123 123 90
Width: 980
VWidth: 2298
Flags: W
LayerCount: 2
Fore
SplineSet
775 -192 m 1,0,1
 703 -185 703 -185 635.5 -152 c 128,-1,2
 568 -119 568 -119 516.5 -67.5 c 128,-1,3
 465 -16 465 -16 433.5 51 c 128,-1,4
 402 118 402 118 402 193 c 0,5,6
 402 233 402 233 409 273 c 128,-1,7
 416 313 416 313 425 351.5 c 128,-1,8
 434 390 434 390 441 426.5 c 128,-1,9
 448 463 448 463 448 496 c 0,10,11
 448 544 448 544 426 582.5 c 128,-1,12
 404 621 404 621 370 649 c 128,-1,13
 336 677 336 677 295.5 693.5 c 128,-1,14
 255 710 255 710 218 715 c 1,15,-1
 218 767 l 1,16,17
 254 771 254 771 294.5 787.5 c 128,-1,18
 335 804 335 804 369 831 c 128,-1,19
 403 858 403 858 425.5 896 c 128,-1,20
 448 934 448 934 448 981 c 0,21,22
 448 1016 448 1016 441 1054.5 c 128,-1,23
 434 1093 434 1093 425 1134.5 c 128,-1,24
 416 1176 416 1176 409 1218.5 c 128,-1,25
 402 1261 402 1261 402 1303 c 0,26,27
 402 1375 402 1375 434 1439 c 128,-1,28
 466 1503 466 1503 518.5 1552.5 c 128,-1,29
 571 1602 571 1602 638 1633.5 c 128,-1,30
 705 1665 705 1665 775 1673 c 1,31,-1
 775 1638 l 1,32,33
 725 1625 725 1625 684 1602.5 c 128,-1,34
 643 1580 643 1580 613.5 1547.5 c 128,-1,35
 584 1515 584 1515 567.5 1471.5 c 128,-1,36
 551 1428 551 1428 551 1373 c 0,37,38
 551 1338 551 1338 558 1303.5 c 128,-1,39
 565 1269 565 1269 573 1235 c 128,-1,40
 581 1201 581 1201 588 1166.5 c 128,-1,41
 595 1132 595 1132 595 1096 c 0,42,43
 595 1029 595 1029 574.5 973.5 c 128,-1,44
 554 918 554 918 517.5 873.5 c 128,-1,45
 481 829 481 829 430.5 795.5 c 128,-1,46
 380 762 380 762 321 741 c 1,47,48
 381 720 381 720 431.5 686.5 c 128,-1,49
 482 653 482 653 518 608 c 128,-1,50
 554 563 554 563 574.5 506 c 128,-1,51
 595 449 595 449 595 382 c 0,52,53
 595 347 595 347 588 313 c 128,-1,54
 581 279 581 279 573 245.5 c 128,-1,55
 565 212 565 212 558 178 c 128,-1,56
 551 144 551 144 551 109 c 0,57,58
 551 54 551 54 567.5 10.5 c 128,-1,59
 584 -33 584 -33 613.5 -66 c 128,-1,60
 643 -99 643 -99 684 -121 c 128,-1,61
 725 -143 725 -143 775 -156 c 1,62,-1
 775 -192 l 1,0,1
EndSplineSet
Validated: 1
EndChar

StartChar: bar
Encoding: 124 124 91
Width: 660
Flags: W
LayerCount: 2
Fore
SplineSet
280 -508 m 1,0,-1
 280 1569 l 1,1,-1
 380 1569 l 1,2,-1
 380 -508 l 1,3,-1
 280 -508 l 1,0,-1
EndSplineSet
Validated: 1
EndChar

StartChar: braceright
Encoding: 125 125 92
Width: 980
VWidth: 2298
Flags: W
LayerCount: 2
Fore
SplineSet
761 715 m 1,0,1
 725 710 725 710 684.5 693.5 c 128,-1,2
 644 677 644 677 610 649 c 128,-1,3
 576 621 576 621 554 582.5 c 128,-1,4
 532 544 532 544 532 496 c 0,5,6
 532 463 532 463 539 426.5 c 128,-1,7
 546 390 546 390 554.5 351.5 c 128,-1,8
 563 313 563 313 570 273 c 128,-1,9
 577 233 577 233 577 193 c 0,10,11
 577 118 577 118 546 51 c 128,-1,12
 515 -16 515 -16 463 -67.5 c 128,-1,13
 411 -119 411 -119 344 -152 c 128,-1,14
 277 -185 277 -185 205 -192 c 1,15,-1
 205 -156 l 1,16,17
 254 -143 254 -143 295 -121 c 128,-1,18
 336 -99 336 -99 365.5 -66 c 128,-1,19
 395 -33 395 -33 411 10.5 c 128,-1,20
 427 54 427 54 427 109 c 0,21,22
 427 144 427 144 420.5 178 c 128,-1,23
 414 212 414 212 405.5 245.5 c 128,-1,24
 397 279 397 279 390.5 313 c 128,-1,25
 384 347 384 347 384 382 c 0,26,27
 384 449 384 449 404.5 506 c 128,-1,28
 425 563 425 563 461.5 608 c 128,-1,29
 498 653 498 653 548 686.5 c 128,-1,30
 598 720 598 720 658 741 c 1,31,32
 599 762 599 762 548.5 795.5 c 128,-1,33
 498 829 498 829 461.5 873.5 c 128,-1,34
 425 918 425 918 404.5 973.5 c 128,-1,35
 384 1029 384 1029 384 1096 c 0,36,37
 384 1132 384 1132 390.5 1166.5 c 128,-1,38
 397 1201 397 1201 405.5 1235 c 128,-1,39
 414 1269 414 1269 420.5 1303.5 c 128,-1,40
 427 1338 427 1338 427 1373 c 0,41,42
 427 1428 427 1428 411 1471.5 c 128,-1,43
 395 1515 395 1515 365.5 1547.5 c 128,-1,44
 336 1580 336 1580 295 1602.5 c 128,-1,45
 254 1625 254 1625 205 1638 c 1,46,-1
 205 1673 l 1,47,48
 275 1665 275 1665 341.5 1633.5 c 128,-1,49
 408 1602 408 1602 460.5 1552.5 c 128,-1,50
 513 1503 513 1503 545 1439 c 128,-1,51
 577 1375 577 1375 577 1303 c 0,52,53
 577 1261 577 1261 570 1218.5 c 128,-1,54
 563 1176 563 1176 554.5 1134.5 c 128,-1,55
 546 1093 546 1093 539 1054.5 c 128,-1,56
 532 1016 532 1016 532 981 c 0,57,58
 532 934 532 934 554.5 896 c 128,-1,59
 577 858 577 858 611 831 c 128,-1,60
 645 804 645 804 685 787.5 c 128,-1,61
 725 771 725 771 761 767 c 1,62,-1
 761 715 l 1,0,1
EndSplineSet
Validated: 1
EndChar

StartChar: asciitilde
Encoding: 126 126 93
Width: 1115
Flags: W
LayerCount: 2
Fore
SplineSet
1076 630 m 1,0,1
 1055 590 1055 590 1027 551 c 128,-1,2
 999 512 999 512 963.5 481 c 128,-1,3
 928 450 928 450 886 431 c 128,-1,4
 844 412 844 412 794 412 c 0,5,6
 735 412 735 412 673 435 c 128,-1,7
 611 458 611 458 549 486 c 128,-1,8
 487 514 487 514 427.5 537 c 128,-1,9
 368 560 368 560 314 560 c 0,10,11
 272 560 272 560 239.5 542 c 128,-1,12
 207 524 207 524 181 496 c 128,-1,13
 155 468 155 468 134 435 c 128,-1,14
 113 402 113 402 94 371 c 1,15,-1
 39 444 l 1,16,17
 63 487 63 487 89.5 529 c 128,-1,18
 116 571 116 571 150 604.5 c 128,-1,19
 184 638 184 638 226 659 c 128,-1,20
 268 680 268 680 323 680 c 0,21,22
 358 680 358 680 400 668.5 c 128,-1,23
 442 657 442 657 486.5 640.5 c 128,-1,24
 531 624 531 624 576 604 c 128,-1,25
 621 584 621 584 662.5 567.5 c 128,-1,26
 704 551 704 551 740.5 539.5 c 128,-1,27
 777 528 777 528 805 528 c 0,28,29
 840 528 840 528 872.5 544.5 c 128,-1,30
 905 561 905 561 932.5 587 c 128,-1,31
 960 613 960 613 982 644.5 c 128,-1,32
 1004 676 1004 676 1019 705 c 1,33,-1
 1076 630 l 1,0,1
EndSplineSet
Validated: 1
EndChar

StartChar: degree
Encoding: 176 176 94
Width: 900
VWidth: 2232
Flags: W
LayerCount: 2
Fore
SplineSet
440 1439 m 128,-1,1
 595.92236039 1439 595.92236039 1439 704.472528854 1329.95642168 c 0,2,3
 813 1221.92225722 813 1221.92225722 813 1064 c 0,4,5
 813 908.104352748 813 908.104352748 703.004776156 800.575389528 c 128,-1,6
 592.96206118 693 592.96206118 693 435 693 c 0,7,8
 335.371078321 693 335.371078321 693 250.550382586 743.300645145 c 128,-1,9
 165.674692336 793.633903317 165.674692336 793.633903317 116.328843555 879.002221708 c 128,-1,10
 67 964.341121058 67 964.341121058 67 1066 c 0,11,12
 67 1221.92893219 67 1221.92893219 175.535533906 1330.46446609 c 128,-1,0
 284.071067812 1439 284.071067812 1439 440 1439 c 128,-1,1
440 1323 m 0,13,14
 339.858134303 1323 339.858134303 1323 267.380465943 1246.94948883 c 128,-1,15
 195 1171.00097175 195 1171.00097175 195 1066 c 128,-1,16
 195 961.009436091 195 961.009436091 266.892579616 885.037844866 c 0,17,18
 339.868497843 809 339.868497843 809 438 809 c 0,19,20
 540.121919785 809 540.121919785 809 612.59616414 884.026154368 c 128,-1,21
 685 958.979421068 685 958.979421068 685 1066 c 0,22,23
 685 1170.01155144 685 1170.01155144 611.606936605 1246.46265914 c 128,-1,24
 538.13108938 1323 538.13108938 1323 440 1323 c 0,13,14
EndSplineSet
Validated: 1
EndChar

StartChar: zerosubscript
Encoding: 8320 8320 119
Width: 737
VWidth: 2398
Flags: W
LayerCount: 2
Fore
SplineSet
544 367 m 0,0,1
 544 449 544 449 533 514 c 128,-1,2
 522 579 522 579 500 624.5 c 128,-1,3
 478 670 478 670 446 694.5 c 128,-1,4
 414 719 414 719 371 719 c 0,5,6
 341 719 341 719 309 702 c 128,-1,7
 277 685 277 685 251.5 639.5 c 128,-1,8
 226 594 226 594 209.5 515.5 c 128,-1,9
 193 437 193 437 193 314 c 0,10,11
 193 132 193 132 240.5 41 c 128,-1,12
 288 -50 288 -50 367 -50 c 0,13,14
 406 -50 406 -50 438.5 -29 c 128,-1,15
 471 -8 471 -8 494.5 40.5 c 128,-1,16
 518 89 518 89 531 169 c 128,-1,17
 544 249 544 249 544 367 c 0,0,1
686 340 m 0,18,19
 686 258 686 258 665 181 c 128,-1,20
 644 104 644 104 603.5 44 c 128,-1,21
 563 -16 563 -16 503 -52 c 128,-1,22
 443 -88 443 -88 365 -88 c 0,23,24
 293 -88 293 -88 235 -52.5 c 128,-1,25
 177 -17 177 -17 136 41 c 128,-1,26
 95 99 95 99 73 174 c 128,-1,27
 51 249 51 249 51 328 c 0,28,29
 51 425 51 425 77.5 504.5 c 128,-1,30
 104 584 104 584 148 640 c 128,-1,31
 192 696 192 696 250 727 c 128,-1,32
 308 758 308 758 371 758 c 0,33,34
 433 758 433 758 490 729 c 128,-1,35
 547 700 547 700 590.5 646 c 128,-1,36
 634 592 634 592 660 514.5 c 128,-1,37
 686 437 686 437 686 340 c 0,18,19
EndSplineSet
Validated: 1
Position2: "Single Positioning lookup 13 subtable" dx=-587 dy=0 dh=0 dv=0
Position2: "Single Positioning lookup 12 subtable" dx=-1324 dy=0 dh=-737 dv=0
Position2: "Single Positioning lookup 11 subtable" dx=-1174 dy=0 dh=0 dv=0
Position2: "Single Positioning lookup 10 subtable" dx=-587 dy=0 dh=0 dv=0
Position2: "Single Positioning lookup 9 subtable" dx=-1174 dy=0 dh=-587 dv=0
EndChar

StartChar: zerosuperior
Encoding: 8304 8304 120
Width: 737
GlyphClass: 2
Flags: W
AnchorPoint: "Anchor-9" 737 941 basechar 0
AnchorPoint: "Anchor-8" 369 750 basechar 0
AnchorPoint: "Anchor-7" 369 750 basechar 0
AnchorPoint: "Anchor-6" 369 750 basechar 0
AnchorPoint: "Anchor-5" 369 1625 basechar 0
LayerCount: 2
Fore
SplineSet
544 1247 m 0,0,1
 544 1329 544 1329 532.5 1394 c 128,-1,2
 521 1459 521 1459 499.5 1504.5 c 128,-1,3
 478 1550 478 1550 445.5 1574.5 c 128,-1,4
 413 1599 413 1599 371 1599 c 0,5,6
 341 1599 341 1599 309 1581.5 c 128,-1,7
 277 1564 277 1564 251.5 1518.5 c 128,-1,8
 226 1473 226 1473 209.5 1394.5 c 128,-1,9
 193 1316 193 1316 193 1194 c 0,10,11
 193 1012 193 1012 240.5 921 c 128,-1,12
 288 830 288 830 367 830 c 0,13,14
 406 830 406 830 438.5 851 c 128,-1,15
 471 872 471 872 494.5 920.5 c 128,-1,16
 518 969 518 969 531 1049 c 128,-1,17
 544 1129 544 1129 544 1247 c 0,0,1
686 1220 m 0,18,19
 686 1138 686 1138 665 1061 c 128,-1,20
 644 984 644 984 603.5 924 c 128,-1,21
 563 864 563 864 503 828 c 128,-1,22
 443 792 443 792 365 792 c 0,23,24
 293 792 293 792 235 827.5 c 128,-1,25
 177 863 177 863 136 921 c 128,-1,26
 95 979 95 979 73 1054 c 128,-1,27
 51 1129 51 1129 51 1208 c 0,28,29
 51 1305 51 1305 77.5 1384.5 c 128,-1,30
 104 1464 104 1464 148 1520 c 128,-1,31
 192 1576 192 1576 250 1607 c 128,-1,32
 308 1638 308 1638 371 1638 c 0,33,34
 433 1638 433 1638 490 1609 c 128,-1,35
 547 1580 547 1580 590.5 1526 c 128,-1,36
 634 1472 634 1472 660 1394.5 c 128,-1,37
 686 1317 686 1317 686 1220 c 0,18,19
EndSplineSet
Validated: 1
Position2: "Single Positioning lookup 13 subtable" dx=-587 dy=0 dh=0 dv=0
Position2: "Single Positioning lookup 12 subtable" dx=-1324 dy=0 dh=-737 dv=0
Position2: "Single Positioning lookup 11 subtable" dx=-1174 dy=0 dh=0 dv=0
Position2: "Single Positioning lookup 10 subtable" dx=-587 dy=0 dh=0 dv=0
Position2: "Single Positioning lookup 9 subtable" dx=-1174 dy=0 dh=-587 dv=0
Position2: "Single Positioning lookup 6 subtable" dx=0 dy=875 dh=0 dv=0
Position2: "Single Positioning lookup 5 subtable" dx=0 dy=875 dh=0 dv=0
Substitution2: "Single Substitution lookup 36 subtable" zerosupersuper
EndChar

StartChar: onesubscript
Encoding: 8321 8321 121
Width: 737
VWidth: 2398
Flags: W
LayerCount: 2
Fore
SplineSet
193 -73 m 1,0,-1
 193 -52 l 1,1,2
 239 -52 239 -52 264.5 -47.5 c 128,-1,3
 290 -43 290 -43 302 -29.5 c 128,-1,4
 314 -16 314 -16 316.5 8 c 128,-1,5
 319 32 319 32 319 70 c 2,6,-1
 319 510 l 2,7,8
 319 551 319 551 318.5 584.5 c 128,-1,9
 318 618 318 618 306.5 637.5 c 128,-1,10
 295 657 295 657 267.5 659.5 c 128,-1,11
 240 662 240 662 186 642 c 1,12,-1
 176 662 l 1,13,-1
 413 758 l 1,14,-1
 439 758 l 1,15,-1
 439 70 l 2,16,17
 439 31 439 31 441 7 c 128,-1,18
 443 -17 443 -17 454.5 -30 c 128,-1,19
 466 -43 466 -43 490.5 -47.5 c 128,-1,20
 515 -52 515 -52 561 -52 c 1,21,-1
 561 -73 l 1,22,-1
 193 -73 l 1,0,-1
EndSplineSet
Validated: 33
Position2: "Single Positioning lookup 13 subtable" dx=-587 dy=0 dh=0 dv=0
Position2: "Single Positioning lookup 12 subtable" dx=-1324 dy=0 dh=-737 dv=0
Position2: "Single Positioning lookup 11 subtable" dx=-1174 dy=0 dh=0 dv=0
Position2: "Single Positioning lookup 10 subtable" dx=-587 dy=0 dh=0 dv=0
Position2: "Single Positioning lookup 9 subtable" dx=-1174 dy=0 dh=-587 dv=0
EndChar

StartChar: onesuperior
Encoding: 185 185 122
Width: 737
GlyphClass: 2
Flags: W
AnchorPoint: "Anchor-9" 740 941 basechar 0
AnchorPoint: "Anchor-8" 369 750 basechar 0
AnchorPoint: "Anchor-7" 369 750 basechar 0
AnchorPoint: "Anchor-6" 369 750 basechar 0
AnchorPoint: "Anchor-5" 369 1625 basechar 0
LayerCount: 2
Fore
SplineSet
193 806 m 1,0,-1
 193 828 l 1,1,2
 239 828 239 828 264.5 832.5 c 128,-1,3
 290 837 290 837 302 850.5 c 128,-1,4
 314 864 314 864 316.5 888 c 128,-1,5
 319 912 319 912 319 950 c 2,6,-1
 319 1390 l 2,7,8
 319 1430 319 1430 318.5 1463 c 128,-1,9
 318 1496 318 1496 306.5 1516 c 128,-1,10
 295 1536 295 1536 267.5 1539 c 128,-1,11
 240 1542 240 1542 186 1522 c 1,12,-1
 176 1542 l 1,13,-1
 413 1638 l 1,14,-1
 439 1638 l 1,15,-1
 439 950 l 2,16,17
 439 911 439 911 441 887 c 128,-1,18
 443 863 443 863 454.5 850 c 128,-1,19
 466 837 466 837 490.5 832.5 c 128,-1,20
 515 828 515 828 561 828 c 1,21,-1
 561 806 l 1,22,-1
 193 806 l 1,0,-1
EndSplineSet
Validated: 33
Position2: "Single Positioning lookup 13 subtable" dx=-587 dy=0 dh=0 dv=0
Position2: "Single Positioning lookup 12 subtable" dx=-1324 dy=0 dh=-737 dv=0
Position2: "Single Positioning lookup 11 subtable" dx=-1174 dy=0 dh=0 dv=0
Position2: "Single Positioning lookup 10 subtable" dx=-587 dy=0 dh=0 dv=0
Position2: "Single Positioning lookup 9 subtable" dx=-1174 dy=0 dh=-587 dv=0
Position2: "Single Positioning lookup 4 subtable" dx=0 dy=875 dh=0 dv=0
Position2: "Single Positioning lookup 3 subtable" dx=0 dy=875 dh=0 dv=0
Position2: "Single Positioning lookup 2 subtable" dx=0 dy=875 dh=0 dv=0
Substitution2: "Single Substitution lookup 36 subtable" onesupersuper
EndChar

StartChar: twosubscript
Encoding: 8322 8322 123
Width: 737
VWidth: 2398
Flags: W
LayerCount: 2
Fore
SplineSet
621.5 -73 m 1,0,-1
 46.5 -73 l 1,1,-1
 46.5 -52 l 1,2,3
 172.5 45 172.5 45 262.5 124 c 128,-1,4
 352.5 203 352.5 203 405.5 265 c 0,5,6
 507.5 386 507.5 386 507.5 488 c 0,7,8
 507.5 540 507.5 540 486 574.5 c 128,-1,9
 464.5 609 464.5 609 434 629.5 c 128,-1,10
 403.5 650 403.5 650 370 658 c 128,-1,11
 336.5 666 336.5 666 313.5 666 c 0,12,13
 262.5 666 262.5 666 225.5 650.5 c 128,-1,14
 188.5 635 188.5 635 163 613.5 c 128,-1,15
 137.5 592 137.5 592 123 568 c 128,-1,16
 108.5 544 108.5 544 101.5 527 c 1,17,-1
 75.5 527 l 1,18,19
 79.5 554 79.5 554 93 593.5 c 128,-1,20
 106.5 633 106.5 633 137 669.5 c 128,-1,21
 167.5 706 167.5 706 219 732 c 128,-1,22
 270.5 758 270.5 758 351.5 758 c 0,23,24
 403.5 758 403.5 758 454 743 c 128,-1,25
 504.5 728 504.5 728 544 700.5 c 128,-1,26
 583.5 673 583.5 673 607.5 633 c 128,-1,27
 631.5 593 631.5 593 631.5 543 c 0,28,29
 631.5 495 631.5 495 610 447.5 c 128,-1,30
 588.5 400 588.5 400 557 357.5 c 128,-1,31
 525.5 315 525.5 315 489 278 c 128,-1,32
 452.5 241 452.5 241 422.5 214 c 0,33,34
 333.5 133 333.5 133 278 83 c 128,-1,35
 222.5 33 222.5 33 200.5 17 c 1,36,-1
 456.5 17 l 2,37,38
 511.5 17 511.5 17 545 19.5 c 128,-1,39
 578.5 22 578.5 22 599.5 29.5 c 128,-1,40
 620.5 37 620.5 37 634.5 49 c 128,-1,41
 648.5 61 648.5 61 665.5 81 c 1,42,-1
 690.5 81 l 1,43,-1
 621.5 -73 l 1,0,-1
EndSplineSet
Validated: 1
Position2: "Single Positioning lookup 13 subtable" dx=-587 dy=0 dh=0 dv=0
Position2: "Single Positioning lookup 12 subtable" dx=-1324 dy=0 dh=-737 dv=0
Position2: "Single Positioning lookup 11 subtable" dx=-1174 dy=0 dh=0 dv=0
Position2: "Single Positioning lookup 10 subtable" dx=-587 dy=0 dh=0 dv=0
Position2: "Single Positioning lookup 9 subtable" dx=-1174 dy=0 dh=-587 dv=0
EndChar

StartChar: twosuperior
Encoding: 178 178 124
Width: 737
GlyphClass: 2
Flags: W
AnchorPoint: "Anchor-9" 751.5 941 basechar 0
AnchorPoint: "Anchor-8" 368.5 750 basechar 0
AnchorPoint: "Anchor-7" 368.5 750 basechar 0
AnchorPoint: "Anchor-6" 368.5 750 basechar 0
AnchorPoint: "Anchor-5" 368.5 1625 basechar 0
LayerCount: 2
Fore
SplineSet
621.5 806 m 1,0,-1
 46.5 806 l 1,1,-1
 46.5 828 l 1,2,3
 172.5 926 172.5 926 262.5 1004 c 128,-1,4
 352.5 1082 352.5 1082 405.5 1145 c 0,5,6
 455.5 1206 455.5 1206 481.5 1261.5 c 128,-1,7
 507.5 1317 507.5 1317 507.5 1368 c 0,8,9
 507.5 1420 507.5 1420 486 1454.5 c 128,-1,10
 464.5 1489 464.5 1489 434 1509.5 c 128,-1,11
 403.5 1530 403.5 1530 370 1538 c 128,-1,12
 336.5 1546 336.5 1546 313.5 1546 c 0,13,14
 262.5 1546 262.5 1546 226 1530.5 c 128,-1,15
 189.5 1515 189.5 1515 164 1493.5 c 128,-1,16
 138.5 1472 138.5 1472 123.5 1448 c 128,-1,17
 108.5 1424 108.5 1424 101.5 1407 c 1,18,-1
 75.5 1407 l 1,19,20
 79.5 1435 79.5 1435 93 1474.5 c 128,-1,21
 106.5 1514 106.5 1514 137 1550.5 c 128,-1,22
 167.5 1587 167.5 1587 219 1612.5 c 128,-1,23
 270.5 1638 270.5 1638 351.5 1638 c 0,24,25
 403.5 1638 403.5 1638 454 1623 c 128,-1,26
 504.5 1608 504.5 1608 544 1580.5 c 128,-1,27
 583.5 1553 583.5 1553 607.5 1513 c 128,-1,28
 631.5 1473 631.5 1473 631.5 1423 c 0,29,30
 631.5 1375 631.5 1375 610 1327.5 c 128,-1,31
 588.5 1280 588.5 1280 557 1237.5 c 128,-1,32
 525.5 1195 525.5 1195 489 1158 c 128,-1,33
 452.5 1121 452.5 1121 422.5 1094 c 0,34,35
 333.5 1012 333.5 1012 278 963 c 128,-1,36
 222.5 914 222.5 914 200.5 897 c 1,37,-1
 456.5 897 l 2,38,39
 511.5 897 511.5 897 544.5 899.5 c 128,-1,40
 577.5 902 577.5 902 598.5 909.5 c 128,-1,41
 619.5 917 619.5 917 634 929 c 128,-1,42
 648.5 941 648.5 941 665.5 961 c 1,43,-1
 690.5 961 l 1,44,-1
 621.5 806 l 1,0,-1
EndSplineSet
Validated: 1
Position2: "Single Positioning lookup 13 subtable" dx=-587 dy=0 dh=0 dv=0
Position2: "Single Positioning lookup 12 subtable" dx=-1324 dy=0 dh=-737 dv=0
Position2: "Single Positioning lookup 11 subtable" dx=-1174 dy=0 dh=0 dv=0
Position2: "Single Positioning lookup 10 subtable" dx=-587 dy=0 dh=0 dv=0
Position2: "Single Positioning lookup 9 subtable" dx=-1174 dy=0 dh=-587 dv=0
Position2: "Single Positioning lookup 6 subtable" dx=0 dy=875 dh=0 dv=0
Position2: "Single Positioning lookup 5 subtable" dx=0 dy=875 dh=0 dv=0
Substitution2: "Single Substitution lookup 36 subtable" twosupersuper
EndChar

StartChar: threesubscript
Encoding: 8323 8323 125
Width: 737
VWidth: 2398
Flags: W
LayerCount: 2
Fore
SplineSet
645.5 196 m 0,0,1
 645.5 133 645.5 133 618.5 81 c 128,-1,2
 591.5 29 591.5 29 541.5 -8.5 c 128,-1,3
 491.5 -46 491.5 -46 420 -67 c 128,-1,4
 348.5 -88 348.5 -88 259.5 -88 c 0,5,6
 197.5 -88 197.5 -88 164 -80.5 c 128,-1,7
 130.5 -73 130.5 -73 114 -62.5 c 128,-1,8
 97.5 -52 97.5 -52 94.5 -40.5 c 128,-1,9
 91.5 -29 91.5 -29 91.5 -22 c 0,10,11
 91.5 -4 91.5 -4 109 7.5 c 128,-1,12
 126.5 19 126.5 19 148.5 19 c 0,13,14
 175.5 19 175.5 19 197.5 10.5 c 128,-1,15
 219.5 2 219.5 2 242.5 -8.5 c 128,-1,16
 265.5 -19 265.5 -19 292 -27.5 c 128,-1,17
 318.5 -36 318.5 -36 355.5 -36 c 0,18,19
 387.5 -36 387.5 -36 420 -24.5 c 128,-1,20
 452.5 -13 452.5 -13 479 7.5 c 128,-1,21
 505.5 28 505.5 28 522 57.5 c 128,-1,22
 538.5 87 538.5 87 538.5 123 c 0,23,24
 538.5 163 538.5 163 526.5 193.5 c 128,-1,25
 514.5 224 514.5 224 494.5 246.5 c 128,-1,26
 474.5 269 474.5 269 449 284 c 128,-1,27
 423.5 299 423.5 299 396.5 308 c 0,28,29
 334.5 330 334.5 330 254.5 331 c 1,30,-1
 254.5 348 l 1,31,32
 263.5 349 263.5 349 284 353 c 128,-1,33
 304.5 357 304.5 357 329.5 365.5 c 128,-1,34
 354.5 374 354.5 374 381 388 c 128,-1,35
 407.5 402 407.5 402 429 423 c 128,-1,36
 450.5 444 450.5 444 464.5 472.5 c 128,-1,37
 478.5 501 478.5 501 478.5 538 c 0,38,39
 478.5 577 478.5 577 462 603.5 c 128,-1,40
 445.5 630 445.5 630 421 645.5 c 128,-1,41
 396.5 661 396.5 661 368 668 c 128,-1,42
 339.5 675 339.5 675 316.5 675 c 0,43,44
 202.5 675 202.5 675 128.5 574 c 1,45,-1
 105.5 585 l 1,46,47
 115.5 604 115.5 604 133 633.5 c 128,-1,48
 150.5 663 150.5 663 181 690.5 c 128,-1,49
 211.5 718 211.5 718 257.5 738 c 128,-1,50
 303.5 758 303.5 758 369.5 758 c 0,51,52
 440.5 758 440.5 758 485 738.5 c 128,-1,53
 529.5 719 529.5 719 554 692 c 128,-1,54
 578.5 665 578.5 665 587.5 637 c 128,-1,55
 596.5 609 596.5 609 596.5 593 c 0,56,57
 596.5 550 596.5 550 564 503.5 c 128,-1,58
 531.5 457 531.5 457 464.5 409 c 1,59,60
 488.5 401 488.5 401 519.5 386.5 c 128,-1,61
 550.5 372 550.5 372 578.5 347 c 128,-1,62
 606.5 322 606.5 322 626 285 c 128,-1,63
 645.5 248 645.5 248 645.5 196 c 0,0,1
EndSplineSet
Validated: 1
Position2: "Single Positioning lookup 13 subtable" dx=-587 dy=0 dh=0 dv=0
Position2: "Single Positioning lookup 12 subtable" dx=-1324 dy=0 dh=-737 dv=0
Position2: "Single Positioning lookup 11 subtable" dx=-1174 dy=0 dh=0 dv=0
Position2: "Single Positioning lookup 10 subtable" dx=-587 dy=0 dh=0 dv=0
Position2: "Single Positioning lookup 9 subtable" dx=-1174 dy=0 dh=-587 dv=0
EndChar

StartChar: threesuperior
Encoding: 179 179 126
Width: 737
GlyphClass: 2
Flags: W
AnchorPoint: "Anchor-9" 767.5 941 basechar 0
AnchorPoint: "Anchor-8" 368.5 750 basechar 0
AnchorPoint: "Anchor-7" 368.5 750 basechar 0
AnchorPoint: "Anchor-6" 368.5 750 basechar 0
AnchorPoint: "Anchor-5" 368.5 1625 basechar 0
LayerCount: 2
Fore
SplineSet
645.5 1076 m 0,0,1
 645.5 1013 645.5 1013 618.5 961 c 128,-1,2
 591.5 909 591.5 909 541.5 871.5 c 128,-1,3
 491.5 834 491.5 834 420 813 c 128,-1,4
 348.5 792 348.5 792 259.5 792 c 0,5,6
 198.5 792 198.5 792 165 799.5 c 128,-1,7
 131.5 807 131.5 807 115 817.5 c 128,-1,8
 98.5 828 98.5 828 95 839 c 128,-1,9
 91.5 850 91.5 850 91.5 857 c 0,10,11
 91.5 875 91.5 875 108.5 887 c 128,-1,12
 125.5 899 125.5 899 148.5 899 c 0,13,14
 175.5 899 175.5 899 197.5 890.5 c 128,-1,15
 219.5 882 219.5 882 242.5 871.5 c 128,-1,16
 265.5 861 265.5 861 292 852.5 c 128,-1,17
 318.5 844 318.5 844 355.5 844 c 0,18,19
 388.5 844 388.5 844 421 855.5 c 128,-1,20
 453.5 867 453.5 867 479.5 887.5 c 128,-1,21
 505.5 908 505.5 908 522 937.5 c 128,-1,22
 538.5 967 538.5 967 538.5 1003 c 0,23,24
 538.5 1043 538.5 1043 526.5 1073.5 c 128,-1,25
 514.5 1104 514.5 1104 494.5 1126 c 128,-1,26
 474.5 1148 474.5 1148 449 1163 c 128,-1,27
 423.5 1178 423.5 1178 396.5 1187 c 0,28,29
 334.5 1209 334.5 1209 254.5 1210 c 1,30,-1
 254.5 1228 l 1,31,32
 263.5 1229 263.5 1229 283.5 1233 c 128,-1,33
 303.5 1237 303.5 1237 328.5 1245.5 c 128,-1,34
 353.5 1254 353.5 1254 380 1268 c 128,-1,35
 406.5 1282 406.5 1282 428.5 1302.5 c 128,-1,36
 450.5 1323 450.5 1323 464.5 1351.5 c 128,-1,37
 478.5 1380 478.5 1380 478.5 1418 c 0,38,39
 478.5 1457 478.5 1457 462.5 1483.5 c 128,-1,40
 446.5 1510 446.5 1510 422 1526 c 128,-1,41
 397.5 1542 397.5 1542 369 1548.5 c 128,-1,42
 340.5 1555 340.5 1555 316.5 1555 c 0,43,44
 202.5 1555 202.5 1555 128.5 1454 c 1,45,-1
 105.5 1465 l 1,46,47
 115.5 1484 115.5 1484 133 1513.5 c 128,-1,48
 150.5 1543 150.5 1543 181 1570.5 c 128,-1,49
 211.5 1598 211.5 1598 257.5 1618 c 128,-1,50
 303.5 1638 303.5 1638 369.5 1638 c 0,51,52
 440.5 1638 440.5 1638 485 1618 c 128,-1,53
 529.5 1598 529.5 1598 554 1571 c 128,-1,54
 578.5 1544 578.5 1544 587.5 1516 c 128,-1,55
 596.5 1488 596.5 1488 596.5 1472 c 0,56,57
 596.5 1382 596.5 1382 464.5 1289 c 1,58,59
 488.5 1281 488.5 1281 519.5 1266.5 c 128,-1,60
 550.5 1252 550.5 1252 578.5 1226.5 c 128,-1,61
 606.5 1201 606.5 1201 626 1164 c 128,-1,62
 645.5 1127 645.5 1127 645.5 1076 c 0,0,1
EndSplineSet
Validated: 1
Position2: "Single Positioning lookup 13 subtable" dx=-587 dy=0 dh=0 dv=0
Position2: "Single Positioning lookup 12 subtable" dx=-1324 dy=0 dh=-737 dv=0
Position2: "Single Positioning lookup 11 subtable" dx=-1174 dy=0 dh=0 dv=0
Position2: "Single Positioning lookup 10 subtable" dx=-587 dy=0 dh=0 dv=0
Position2: "Single Positioning lookup 9 subtable" dx=-1174 dy=0 dh=-587 dv=0
Position2: "Single Positioning lookup 6 subtable" dx=0 dy=875 dh=0 dv=0
Position2: "Single Positioning lookup 5 subtable" dx=0 dy=875 dh=0 dv=0
Substitution2: "Single Substitution lookup 36 subtable" threesupersuper
EndChar

StartChar: foursubscript
Encoding: 8324 8324 127
Width: 737
VWidth: 2398
Flags: W
LayerCount: 2
Fore
SplineSet
452.5 632 m 1,0,-1
 106.5 226 l 1,1,-1
 452.5 226 l 1,2,-1
 452.5 632 l 1,0,-1
570.5 141 m 1,3,-1
 570.5 -73 l 1,4,-1
 452.5 -73 l 1,5,-1
 452.5 141 l 1,6,-1
 36.5 141 l 1,7,-1
 36.5 218 l 1,8,-1
 491.5 758 l 1,9,-1
 570.5 758 l 1,10,-1
 570.5 226 l 1,11,-1
 700.5 226 l 1,12,-1
 700.5 141 l 1,13,-1
 570.5 141 l 1,3,-1
EndSplineSet
Validated: 1
Position2: "Single Positioning lookup 13 subtable" dx=-587 dy=0 dh=0 dv=0
Position2: "Single Positioning lookup 12 subtable" dx=-1324 dy=0 dh=-737 dv=0
Position2: "Single Positioning lookup 11 subtable" dx=-1174 dy=0 dh=0 dv=0
Position2: "Single Positioning lookup 10 subtable" dx=-587 dy=0 dh=0 dv=0
Position2: "Single Positioning lookup 9 subtable" dx=-1174 dy=0 dh=-587 dv=0
EndChar

StartChar: foursuperior
Encoding: 8308 8308 128
Width: 737
GlyphClass: 2
Flags: W
AnchorPoint: "Anchor-9" 751.5 941 basechar 0
AnchorPoint: "Anchor-8" 368.5 750 basechar 0
AnchorPoint: "Anchor-7" 368.5 750 basechar 0
AnchorPoint: "Anchor-6" 368.5 750 basechar 0
AnchorPoint: "Anchor-5" 368.5 1625 basechar 0
LayerCount: 2
Fore
SplineSet
452.5 1512 m 1,0,-1
 106.5 1106 l 1,1,-1
 452.5 1106 l 1,2,-1
 452.5 1512 l 1,0,-1
570.5 1021 m 1,3,-1
 570.5 806 l 1,4,-1
 452.5 806 l 1,5,-1
 452.5 1021 l 1,6,-1
 36.5 1021 l 1,7,-1
 36.5 1098 l 1,8,-1
 491.5 1638 l 1,9,-1
 570.5 1638 l 1,10,-1
 570.5 1106 l 1,11,-1
 700.5 1106 l 1,12,-1
 700.5 1021 l 1,13,-1
 570.5 1021 l 1,3,-1
EndSplineSet
Validated: 1
Position2: "Single Positioning lookup 13 subtable" dx=-587 dy=0 dh=0 dv=0
Position2: "Single Positioning lookup 12 subtable" dx=-1324 dy=0 dh=-737 dv=0
Position2: "Single Positioning lookup 11 subtable" dx=-1174 dy=0 dh=0 dv=0
Position2: "Single Positioning lookup 10 subtable" dx=-587 dy=0 dh=0 dv=0
Position2: "Single Positioning lookup 9 subtable" dx=-1174 dy=0 dh=-587 dv=0
Position2: "Single Positioning lookup 6 subtable" dx=0 dy=875 dh=0 dv=0
Position2: "Single Positioning lookup 5 subtable" dx=0 dy=875 dh=0 dv=0
Substitution2: "Single Substitution lookup 36 subtable" foursupersuper
EndChar

StartChar: fivesubscript
Encoding: 8325 8325 129
Width: 737
VWidth: 2398
Flags: W
LayerCount: 2
Fore
SplineSet
595.5 638 m 1,0,-1
 302.5 638 l 1,1,-1
 236.5 529 l 1,2,3
 259.5 527 259.5 527 298.5 519.5 c 128,-1,4
 337.5 512 337.5 512 382 496.5 c 128,-1,5
 426.5 481 426.5 481 472 457.5 c 128,-1,6
 517.5 434 517.5 434 554.5 400.5 c 128,-1,7
 591.5 367 591.5 367 614.5 322 c 128,-1,8
 637.5 277 637.5 277 637.5 220 c 0,9,10
 637.5 169 637.5 169 620 126.5 c 128,-1,11
 602.5 84 602.5 84 573 50 c 128,-1,12
 543.5 16 543.5 16 505 -10 c 128,-1,13
 466.5 -36 466.5 -36 423.5 -53.5 c 128,-1,14
 380.5 -71 380.5 -71 336 -79.5 c 128,-1,15
 291.5 -88 291.5 -88 251.5 -88 c 0,16,17
 166.5 -88 166.5 -88 125 -64.5 c 128,-1,18
 83.5 -41 83.5 -41 83.5 -9 c 0,19,20
 83.5 -4 83.5 -4 86 3.5 c 128,-1,21
 88.5 11 88.5 11 94.5 17.5 c 128,-1,22
 100.5 24 100.5 24 111.5 29 c 128,-1,23
 122.5 34 122.5 34 140.5 34 c 0,24,25
 166.5 34 166.5 34 186 24.5 c 128,-1,26
 205.5 15 205.5 15 225.5 4 c 128,-1,27
 245.5 -7 245.5 -7 270.5 -16.5 c 128,-1,28
 295.5 -26 295.5 -26 332.5 -26 c 0,29,30
 373.5 -26 373.5 -26 411.5 -12.5 c 128,-1,31
 449.5 1 449.5 1 478.5 25.5 c 128,-1,32
 507.5 50 507.5 50 525 83 c 128,-1,33
 542.5 116 542.5 116 542.5 155 c 0,34,35
 542.5 173 542.5 173 537.5 196 c 128,-1,36
 532.5 219 532.5 219 520 243.5 c 128,-1,37
 507.5 268 507.5 268 486.5 292.5 c 128,-1,38
 465.5 317 465.5 317 434.5 338 c 0,39,40
 394.5 365 394.5 365 352.5 382 c 128,-1,41
 310.5 399 310.5 399 268.5 408 c 128,-1,42
 226.5 417 226.5 417 187.5 420.5 c 128,-1,43
 148.5 424 148.5 424 114.5 425 c 1,44,-1
 302.5 741 l 1,45,-1
 653.5 741 l 1,46,-1
 595.5 638 l 1,0,-1
EndSplineSet
Validated: 1
Position2: "Single Positioning lookup 13 subtable" dx=-587 dy=0 dh=0 dv=0
Position2: "Single Positioning lookup 12 subtable" dx=-1324 dy=0 dh=-737 dv=0
Position2: "Single Positioning lookup 11 subtable" dx=-1174 dy=0 dh=0 dv=0
Position2: "Single Positioning lookup 10 subtable" dx=-587 dy=0 dh=0 dv=0
Position2: "Single Positioning lookup 9 subtable" dx=-1174 dy=0 dh=-587 dv=0
EndChar

StartChar: fivesuperior
Encoding: 8309 8309 130
Width: 737
GlyphClass: 2
Flags: W
AnchorPoint: "Anchor-9" 749.5 941 basechar 0
AnchorPoint: "Anchor-8" 368.5 750 basechar 0
AnchorPoint: "Anchor-7" 368.5 750 basechar 0
AnchorPoint: "Anchor-6" 368.5 750 basechar 0
AnchorPoint: "Anchor-5" 368.5 1625 basechar 0
LayerCount: 2
Fore
SplineSet
595.5 1518 m 1,0,-1
 302.5 1518 l 1,1,-1
 236.5 1409 l 1,2,3
 259.5 1407 259.5 1407 298.5 1399.5 c 128,-1,4
 337.5 1392 337.5 1392 382 1376.5 c 128,-1,5
 426.5 1361 426.5 1361 472 1337.5 c 128,-1,6
 517.5 1314 517.5 1314 554.5 1280.5 c 128,-1,7
 591.5 1247 591.5 1247 614.5 1202 c 128,-1,8
 637.5 1157 637.5 1157 637.5 1100 c 0,9,10
 637.5 1049 637.5 1049 620 1006.5 c 128,-1,11
 602.5 964 602.5 964 573 930 c 128,-1,12
 543.5 896 543.5 896 505 870 c 128,-1,13
 466.5 844 466.5 844 423.5 826.5 c 128,-1,14
 380.5 809 380.5 809 336 800.5 c 128,-1,15
 291.5 792 291.5 792 251.5 792 c 0,16,17
 166.5 792 166.5 792 125 815.5 c 128,-1,18
 83.5 839 83.5 839 83.5 871 c 0,19,20
 83.5 876 83.5 876 85.5 883.5 c 128,-1,21
 87.5 891 87.5 891 93.5 897.5 c 128,-1,22
 99.5 904 99.5 904 111 909 c 128,-1,23
 122.5 914 122.5 914 140.5 914 c 0,24,25
 165.5 914 165.5 914 185 904.5 c 128,-1,26
 204.5 895 204.5 895 225 884 c 128,-1,27
 245.5 873 245.5 873 270.5 863.5 c 128,-1,28
 295.5 854 295.5 854 332.5 854 c 0,29,30
 373.5 854 373.5 854 411.5 867.5 c 128,-1,31
 449.5 881 449.5 881 478.5 905.5 c 128,-1,32
 507.5 930 507.5 930 525 963 c 128,-1,33
 542.5 996 542.5 996 542.5 1035 c 0,34,35
 542.5 1054 542.5 1054 537.5 1077 c 128,-1,36
 532.5 1100 532.5 1100 520 1124 c 128,-1,37
 507.5 1148 507.5 1148 486.5 1172.5 c 128,-1,38
 465.5 1197 465.5 1197 434.5 1218 c 0,39,40
 394.5 1246 394.5 1246 352.5 1262.5 c 128,-1,41
 310.5 1279 310.5 1279 269 1288 c 128,-1,42
 227.5 1297 227.5 1297 188 1300 c 128,-1,43
 148.5 1303 148.5 1303 114.5 1305 c 1,44,-1
 302.5 1620 l 1,45,-1
 653.5 1620 l 1,46,-1
 595.5 1518 l 1,0,-1
EndSplineSet
Validated: 1
Position2: "Single Positioning lookup 13 subtable" dx=-587 dy=0 dh=0 dv=0
Position2: "Single Positioning lookup 12 subtable" dx=-1324 dy=0 dh=-737 dv=0
Position2: "Single Positioning lookup 11 subtable" dx=-1174 dy=0 dh=0 dv=0
Position2: "Single Positioning lookup 10 subtable" dx=-587 dy=0 dh=0 dv=0
Position2: "Single Positioning lookup 9 subtable" dx=-1174 dy=0 dh=-587 dv=0
Position2: "Single Positioning lookup 6 subtable" dx=0 dy=875 dh=0 dv=0
Position2: "Single Positioning lookup 5 subtable" dx=0 dy=875 dh=0 dv=0
Substitution2: "Single Substitution lookup 36 subtable" fivesupersuper
EndChar

StartChar: sixsubscript
Encoding: 8326 8326 131
Width: 737
VWidth: 2398
Flags: W
LayerCount: 2
Fore
SplineSet
547.5 135 m 0,0,1
 547.5 182 547.5 182 537 227.5 c 128,-1,2
 526.5 273 526.5 273 504 309 c 128,-1,3
 481.5 345 481.5 345 446 367 c 128,-1,4
 410.5 389 410.5 389 361.5 389 c 0,5,6
 317.5 389 317.5 389 280 371 c 128,-1,7
 242.5 353 242.5 353 211.5 337 c 1,8,9
 205.5 296 205.5 296 200.5 263.5 c 128,-1,10
 195.5 231 195.5 231 195.5 206 c 0,11,12
 195.5 165 195.5 165 208.5 118.5 c 128,-1,13
 221.5 72 221.5 72 246.5 33 c 128,-1,14
 271.5 -6 271.5 -6 307.5 -31 c 128,-1,15
 343.5 -56 343.5 -56 389.5 -54 c 0,16,17
 420.5 -53 420.5 -53 449.5 -40.5 c 128,-1,18
 478.5 -28 478.5 -28 500 -4.5 c 128,-1,19
 521.5 19 521.5 19 534.5 54 c 128,-1,20
 547.5 89 547.5 89 547.5 135 c 0,0,1
676.5 200 m 0,21,22
 676.5 146 676.5 146 655 94 c 128,-1,23
 633.5 42 633.5 42 593 1.5 c 128,-1,24
 552.5 -39 552.5 -39 495.5 -63.5 c 128,-1,25
 438.5 -88 438.5 -88 367.5 -88 c 0,26,27
 300.5 -88 300.5 -88 244 -61.5 c 128,-1,28
 187.5 -35 187.5 -35 147 10.5 c 128,-1,29
 106.5 56 106.5 56 83.5 116.5 c 128,-1,30
 60.5 177 60.5 177 60.5 245 c 0,31,32
 60.5 312 60.5 312 78 369.5 c 128,-1,33
 95.5 427 95.5 427 124 475 c 128,-1,34
 152.5 523 152.5 523 188 561 c 128,-1,35
 223.5 599 223.5 599 260.5 628 c 0,36,37
 306.5 664 306.5 664 354 689 c 128,-1,38
 401.5 714 401.5 714 447.5 729 c 128,-1,39
 493.5 744 493.5 744 536 751 c 128,-1,40
 578.5 758 578.5 758 615.5 758 c 2,41,-1
 656.5 758 l 1,42,-1
 656.5 734 l 1,43,44
 570.5 731 570.5 731 504 704.5 c 128,-1,45
 437.5 678 437.5 678 382.5 632 c 0,46,47
 364.5 617 364.5 617 342 594 c 128,-1,48
 319.5 571 319.5 571 297.5 539.5 c 128,-1,49
 275.5 508 275.5 508 255 468.5 c 128,-1,50
 234.5 429 234.5 429 220.5 380 c 1,51,52
 273.5 409 273.5 409 325 424.5 c 128,-1,53
 376.5 440 376.5 440 430.5 440 c 0,54,55
 463.5 440 463.5 440 506.5 428 c 128,-1,56
 549.5 416 549.5 416 587 387.5 c 128,-1,57
 624.5 359 624.5 359 650.5 313 c 128,-1,58
 676.5 267 676.5 267 676.5 200 c 0,21,22
EndSplineSet
Validated: 33
Position2: "Single Positioning lookup 13 subtable" dx=-587 dy=0 dh=0 dv=0
Position2: "Single Positioning lookup 12 subtable" dx=-1324 dy=0 dh=-737 dv=0
Position2: "Single Positioning lookup 11 subtable" dx=-1174 dy=0 dh=0 dv=0
Position2: "Single Positioning lookup 10 subtable" dx=-587 dy=0 dh=0 dv=0
Position2: "Single Positioning lookup 9 subtable" dx=-1174 dy=0 dh=-587 dv=0
EndChar

StartChar: sixsuperior
Encoding: 8310 8310 132
Width: 737
GlyphClass: 2
Flags: W
AnchorPoint: "Anchor-9" 733.5 941 basechar 0
AnchorPoint: "Anchor-8" 368.5 750 basechar 0
AnchorPoint: "Anchor-7" 368.5 750 basechar 0
AnchorPoint: "Anchor-6" 368.5 750 basechar 0
AnchorPoint: "Anchor-5" 368.5 1625 basechar 0
LayerCount: 2
Fore
SplineSet
547.5 1015 m 0,0,1
 547.5 1062 547.5 1062 537 1107.5 c 128,-1,2
 526.5 1153 526.5 1153 504 1189 c 128,-1,3
 481.5 1225 481.5 1225 446 1247 c 128,-1,4
 410.5 1269 410.5 1269 361.5 1269 c 0,5,6
 317.5 1269 317.5 1269 279 1251 c 128,-1,7
 240.5 1233 240.5 1233 211.5 1216 c 1,8,9
 203.5 1176 203.5 1176 199.5 1143.5 c 128,-1,10
 195.5 1111 195.5 1111 195.5 1086 c 0,11,12
 195.5 1045 195.5 1045 208.5 998.5 c 128,-1,13
 221.5 952 221.5 952 246.5 913 c 128,-1,14
 271.5 874 271.5 874 307.5 849 c 128,-1,15
 343.5 824 343.5 824 389.5 826 c 0,16,17
 420.5 827 420.5 827 449.5 839.5 c 128,-1,18
 478.5 852 478.5 852 500 875.5 c 128,-1,19
 521.5 899 521.5 899 534.5 934 c 128,-1,20
 547.5 969 547.5 969 547.5 1015 c 0,0,1
676.5 1080 m 0,21,22
 676.5 1027 676.5 1027 655 975 c 128,-1,23
 633.5 923 633.5 923 593 882.5 c 128,-1,24
 552.5 842 552.5 842 495.5 817 c 128,-1,25
 438.5 792 438.5 792 367.5 792 c 0,26,27
 299.5 792 299.5 792 243 818.5 c 128,-1,28
 186.5 845 186.5 845 146 890.5 c 128,-1,29
 105.5 936 105.5 936 83 996.5 c 128,-1,30
 60.5 1057 60.5 1057 60.5 1125 c 0,31,32
 60.5 1192 60.5 1192 78 1249.5 c 128,-1,33
 95.5 1307 95.5 1307 124 1355 c 128,-1,34
 152.5 1403 152.5 1403 188.5 1441 c 128,-1,35
 224.5 1479 224.5 1479 260.5 1508 c 0,36,37
 306.5 1545 306.5 1545 354 1570 c 128,-1,38
 401.5 1595 401.5 1595 447.5 1610 c 128,-1,39
 493.5 1625 493.5 1625 536 1631.5 c 128,-1,40
 578.5 1638 578.5 1638 615.5 1638 c 2,41,-1
 656.5 1638 l 1,42,-1
 656.5 1614 l 1,43,44
 571.5 1611 571.5 1611 504 1584 c 128,-1,45
 436.5 1557 436.5 1557 382.5 1512 c 0,46,47
 363.5 1497 363.5 1497 341 1474 c 128,-1,48
 318.5 1451 318.5 1451 296.5 1419.5 c 128,-1,49
 274.5 1388 274.5 1388 254.5 1348.5 c 128,-1,50
 234.5 1309 234.5 1309 220.5 1260 c 1,51,52
 274.5 1291 274.5 1291 325.5 1305.5 c 128,-1,53
 376.5 1320 376.5 1320 430.5 1320 c 0,54,55
 463.5 1320 463.5 1320 506.5 1308 c 128,-1,56
 549.5 1296 549.5 1296 587 1267.5 c 128,-1,57
 624.5 1239 624.5 1239 650.5 1193 c 128,-1,58
 676.5 1147 676.5 1147 676.5 1080 c 0,21,22
EndSplineSet
Validated: 33
Position2: "Single Positioning lookup 13 subtable" dx=-587 dy=0 dh=0 dv=0
Position2: "Single Positioning lookup 12 subtable" dx=-1324 dy=0 dh=-737 dv=0
Position2: "Single Positioning lookup 11 subtable" dx=-1174 dy=0 dh=0 dv=0
Position2: "Single Positioning lookup 10 subtable" dx=-587 dy=0 dh=0 dv=0
Position2: "Single Positioning lookup 9 subtable" dx=-1174 dy=0 dh=-587 dv=0
Position2: "Single Positioning lookup 6 subtable" dx=0 dy=875 dh=0 dv=0
Position2: "Single Positioning lookup 5 subtable" dx=0 dy=875 dh=0 dv=0
Substitution2: "Single Substitution lookup 36 subtable" sixsupersuper
EndChar

